<svg width="233" height="211" viewBox="0 0 233 211" fill="none" xmlns="http://www.w3.org/2000/svg">
<path d="M134.463 3.47589H71.2764V84.9433H134.463V3.47589Z" fill="#263238"/>
<path d="M134.458 85.1752H71.2764C71.2085 85.1752 71.1434 85.1513 71.0955 85.1087C71.0475 85.0661 71.0205 85.0083 71.0205 84.948V3.4761C71.0205 3.41584 71.0475 3.35805 71.0955 3.31544C71.1434 3.27284 71.2085 3.2489 71.2764 3.2489H134.458C134.526 3.2489 134.591 3.27284 134.639 3.31544C134.687 3.35805 134.714 3.41584 134.714 3.4761V84.948C134.714 85.0083 134.687 85.0661 134.639 85.1087C134.591 85.1513 134.526 85.1752 134.458 85.1752ZM71.5067 84.7208H134.202V3.70329H71.5323L71.5067 84.7208Z" fill="#263238"/>
<path d="M129.325 10.1011H76.4097V78.323H129.325V10.1011Z" fill="white"/>
<path d="M129.325 78.5502H76.4097C76.3418 78.5502 76.2767 78.5262 76.2288 78.4836C76.1808 78.441 76.1538 78.3832 76.1538 78.323V10.101C76.1538 10.0408 76.1808 9.98299 76.2288 9.94038C76.2767 9.89778 76.3418 9.87384 76.4097 9.87384H129.325C129.393 9.87384 129.458 9.89778 129.506 9.94038C129.554 9.98299 129.581 10.0408 129.581 10.101V78.323C129.581 78.3832 129.554 78.441 129.506 78.4836C129.458 78.5262 129.393 78.5502 129.325 78.5502ZM76.6656 78.0958H129.069V10.3282H76.6656V78.0958Z" fill="#263238"/>
<path d="M116.929 26.0865H88.8105V62.3376H116.929V26.0865Z" fill="#263238"/>
<path d="M116.924 62.5648H88.8106C88.7427 62.5648 88.6776 62.5408 88.6296 62.4982C88.5817 62.4556 88.5547 62.3979 88.5547 62.3376V26.0864C88.5547 26.0262 88.5817 25.9684 88.6296 25.9258C88.6776 25.8832 88.7427 25.8593 88.8106 25.8593H116.924C116.992 25.8593 117.057 25.8832 117.105 25.9258C117.153 25.9684 117.18 26.0262 117.18 26.0864V62.3376C117.18 62.3979 117.153 62.4556 117.105 62.4982C117.057 62.5408 116.992 62.5648 116.924 62.5648ZM89.0665 62.1104H116.688V26.3136H89.0511L89.0665 62.1104Z" fill="#263238"/>
<path d="M59.2643 46.8975H29.7539V84.948H59.2643V46.8975Z" fill="#263238"/>
<path d="M59.2643 85.1752H29.7539C29.6861 85.1752 29.621 85.1513 29.573 85.1087C29.525 85.066 29.498 85.0083 29.498 84.948V46.8975C29.498 46.8372 29.525 46.7794 29.573 46.7368C29.621 46.6942 29.6861 46.6703 29.7539 46.6703H59.2643C59.3322 46.6703 59.3973 46.6942 59.4452 46.7368C59.4932 46.7794 59.5202 46.8372 59.5202 46.8975V84.948C59.5202 85.0083 59.4932 85.066 59.4452 85.1087C59.3973 85.1513 59.3322 85.1752 59.2643 85.1752ZM30.0098 84.7208H59.0084V47.1247H30.0098V84.7208Z" fill="#263238"/>
<path d="M56.8691 49.9873H32.1543V81.8536H56.8691V49.9873Z" fill="white"/>
<path d="M56.8691 82.0808H32.1543C32.0865 82.0808 32.0214 82.0569 31.9734 82.0143C31.9254 81.9717 31.8984 81.9139 31.8984 81.8536V49.9873C31.8984 49.9271 31.9254 49.8693 31.9734 49.8267C32.0214 49.7841 32.0865 49.7601 32.1543 49.7601H56.8691C56.9366 49.7613 57.0009 49.7856 57.0486 49.828C57.0963 49.8703 57.1237 49.9274 57.125 49.9873V81.8536C57.125 81.8834 57.1184 81.913 57.1055 81.9406C57.0927 81.9681 57.0738 81.9932 57.0501 82.0143C57.0263 82.0354 56.9981 82.0521 56.9671 82.0635C56.936 82.0749 56.9027 82.0808 56.8691 82.0808ZM32.4102 81.6264H56.6132V50.2145H32.4102V81.6264Z" fill="#263238"/>
<path d="M51.0756 57.4575H37.9429V74.388H51.0756V57.4575Z" fill="#263238"/>
<path d="M51.0757 74.6152H37.9429C37.8755 74.614 37.8111 74.5897 37.7634 74.5474C37.7157 74.505 37.6883 74.4479 37.687 74.388V57.4575C37.687 57.3972 37.714 57.3394 37.762 57.2968C37.81 57.2542 37.875 57.2303 37.9429 57.2303H51.0757C51.1436 57.2303 51.2086 57.2542 51.2566 57.2968C51.3046 57.3394 51.3316 57.3972 51.3316 57.4575V74.388C51.3316 74.4483 51.3046 74.5061 51.2566 74.5487C51.2086 74.5913 51.1436 74.6152 51.0757 74.6152ZM38.1988 74.1608H50.8198V57.6847H38.1988V74.1608Z" fill="#263238"/>
<path d="M54.0693 118.032C54.0693 117.709 58.435 117.455 63.7935 117.459C69.1521 117.464 73.5177 117.737 73.5177 118.059C73.5177 118.382 69.1572 118.632 63.7935 118.627C58.4299 118.623 54.0693 118.355 54.0693 118.032Z" fill="white"/>
<path d="M64.0495 118.864H63.8141C61.2039 118.864 58.7524 118.795 56.9048 118.682C53.834 118.495 53.834 118.273 53.834 118.041C53.834 117.805 53.834 117.587 56.9048 117.405C58.7524 117.296 61.1988 117.246 63.8141 117.246C66.4294 117.246 68.8706 117.31 70.7182 117.423C73.789 117.614 73.789 117.832 73.789 118.068C73.789 118.305 73.789 118.523 70.7182 118.7C68.9321 118.795 66.5675 118.864 64.0495 118.864ZM54.8371 118.041C57.813 118.327 60.8058 118.45 63.7987 118.409C66.7928 118.46 69.7876 118.345 72.7654 118.064C69.7879 117.778 66.7932 117.656 63.7987 117.7C60.8118 117.646 57.8239 117.757 54.8525 118.032L54.8371 118.041Z" fill="#263238"/>
<path d="M68.9526 119.541C70.177 117.255 71.7249 115.117 73.5588 113.179C76.7422 109.735 81.809 104.414 82.4027 102.728C82.9964 101.042 81.2461 104.132 74.9816 107.522C68.62 110.957 66.7212 120.463 66.7212 120.463L68.9526 119.541Z" fill="#3A6D8C"/>
<path d="M66.3779 120.872L66.4649 120.44C66.5417 120.05 68.4558 110.798 74.8431 107.345C77.2744 106.039 79.5188 104.477 81.5272 102.692C82.1925 102.11 82.3717 101.956 82.6122 102.088C82.8527 102.219 82.7504 102.492 82.6378 102.815C82.1004 104.332 78.1135 108.622 74.9096 112.07L73.753 113.32C71.939 115.245 70.4052 117.366 69.1877 119.631L69.1519 119.713L66.3779 120.872ZM82.0799 102.846L81.8854 103.014C79.8522 104.827 77.5765 106.411 75.1092 107.731C69.6944 110.662 67.5346 118.182 67.0689 120.081L68.7578 119.372C69.9976 117.101 71.5444 114.973 73.364 113.034L74.5258 111.78C77.4123 108.663 81.3429 104.437 82.0799 102.846Z" fill="#263238"/>
<path d="M65.892 120.931C65.7685 120.932 65.6488 120.894 65.5547 120.823C65.4607 120.752 65.3987 120.653 65.3802 120.545C65.3443 120.345 64.5766 115.547 67.5451 108.517C70.4521 101.633 71.4194 98.566 71.4296 98.5206C71.4436 98.4593 71.4717 98.4013 71.5121 98.3501C71.5525 98.2989 71.6044 98.2556 71.6644 98.2231C71.7245 98.1905 71.7915 98.1692 71.8613 98.1607C71.931 98.1522 72.002 98.1565 72.0698 98.1734C72.1376 98.1903 72.2007 98.2195 72.2552 98.2591C72.3097 98.2986 72.3544 98.3478 72.3866 98.4034C72.4187 98.459 72.4376 98.5199 72.442 98.5823C72.4464 98.6447 72.4363 98.7072 72.4123 98.7659C72.4123 98.7932 71.4296 101.892 68.5021 108.826C65.6361 115.61 66.3833 120.349 66.3884 120.399C66.4075 120.518 66.373 120.639 66.2925 120.735C66.212 120.831 66.0919 120.895 65.9585 120.913L65.892 120.931Z" fill="#263238"/>
<path d="M63.891 121.454C63.766 121.454 63.645 121.415 63.5507 121.342C63.4564 121.269 63.3954 121.168 63.3792 121.058C63.3792 120.972 61.9768 112.098 60.4977 108.949C59.0186 105.8 58.6297 104.891 58.6143 104.859C58.5756 104.748 58.586 104.629 58.6436 104.525C58.7011 104.42 58.8013 104.34 58.9237 104.299C59.0461 104.258 59.1813 104.261 59.3017 104.306C59.4222 104.351 59.5186 104.435 59.5714 104.541C59.5714 104.541 59.945 105.418 61.4394 108.603C62.9748 111.861 64.3362 120.572 64.3976 120.94C64.407 121 64.403 121.06 64.3859 121.118C64.3688 121.176 64.339 121.23 64.298 121.278C64.2571 121.326 64.206 121.366 64.1475 121.396C64.0891 121.426 64.0245 121.446 63.9575 121.454H63.891Z" fill="#263238"/>
<path d="M60.9737 108.772C60.9737 108.772 62.9339 108.158 62.8623 105.536C62.7497 101.57 58.0462 100.624 58.0462 100.624L57.3195 101.665L55.9069 101.456C55.9069 101.456 55.1955 104.587 56.7207 106.99C57.1095 107.662 57.7372 108.2 58.5063 108.523C59.2754 108.845 60.1428 108.932 60.9737 108.772Z" fill="#3A6D8C"/>
<path d="M60.2006 109.067C59.4419 109.075 58.6955 108.896 58.0448 108.549C57.3941 108.203 56.8647 107.702 56.5157 107.104C54.9803 104.655 55.6456 101.542 55.6763 101.41L55.7275 101.192L57.2066 101.415L57.9231 100.365L58.1023 100.402C58.1534 100.402 63.0002 101.433 63.1179 105.532C63.1947 108.285 61.1475 108.962 61.0707 108.99H61.0451C60.7675 109.042 60.4844 109.068 60.2006 109.067ZM56.1369 101.715C56.0141 102.456 55.7326 104.937 56.9661 106.881C57.3221 107.506 57.9003 108.009 58.6109 108.312C59.3216 108.615 60.125 108.701 60.8967 108.558C61.0605 108.499 62.6726 107.881 62.6061 105.545C62.514 102.183 59.0235 101.097 58.1688 100.883L57.4676 101.915L56.1369 101.715Z" fill="#263238"/>
<path d="M69.6845 104.923C69.6845 104.923 70.8616 105.445 74.2907 103.151C77.7197 100.856 77.8323 96.4713 77.8323 96.4713L73.9478 97.4073L72.5403 95.6306L70.3038 96.7757L67.7038 94.7809C67.7038 94.7809 64.633 100.633 69.6845 104.923Z" fill="#3A6D8C"/>
<path d="M70.0633 105.2C69.8883 105.21 69.713 105.184 69.5515 105.123L69.4901 105.086C64.3721 100.733 67.4429 94.7491 67.4429 94.6901L67.5862 94.4174L70.2885 96.4985L72.5712 95.3262L74.0093 97.1438L78.0525 96.1714V96.4758C78.0525 96.6621 77.8836 101.02 74.4136 103.333C72.0645 104.923 70.7184 105.2 70.0633 105.2ZM69.8228 104.723C70.0224 104.768 71.2302 104.914 74.1219 102.969C76.8805 101.115 77.4332 97.7981 77.5407 96.7757L73.8302 97.6845L72.4483 95.9487L70.2578 97.0529L67.8063 95.1672C67.2945 96.3668 65.6363 101.142 69.8228 104.723Z" fill="#263238"/>
<path d="M66.0558 121.544C65.5245 119.058 65.3525 116.522 65.544 113.997C65.8306 109.553 66.3885 102.601 65.7538 100.942C65.1192 99.2839 65.7538 102.683 62.9492 108.699C60.0984 114.806 64.8735 123.476 64.8735 123.476L66.0558 121.544Z" fill="#3A6D8C"/>
<path d="M64.8581 123.971L64.6381 123.576C64.4436 123.217 59.8425 114.742 62.7086 108.613C63.8082 106.282 64.5817 103.84 65.0117 101.342C65.1652 100.524 65.2062 100.306 65.4877 100.284C65.7691 100.261 65.8715 100.538 65.9995 100.856C66.5727 102.369 66.2042 107.917 65.9073 112.379L65.7999 113.997C65.6185 116.501 65.7904 119.015 66.3117 121.481V121.567L64.8581 123.971ZM65.5644 101.192C65.5644 101.265 65.5337 101.347 65.5184 101.429C65.08 103.958 64.2945 106.43 63.1794 108.79C60.7535 113.983 64.0085 121.19 64.8888 122.967L65.7845 121.513C65.2691 119.031 65.0972 116.502 65.2727 113.983L65.3802 112.366C65.6565 108.331 66.0199 102.86 65.5644 101.192Z" fill="#263238"/>
<path d="M63.604 119.318C61.444 117.666 59.5314 115.776 57.9128 113.693C55.016 110.057 50.5838 104.305 48.9307 103.355C47.2776 102.406 50.1488 104.718 52.1653 110.98C54.2125 117.341 64.0288 121.485 64.0288 121.485L63.604 119.318Z" fill="#3A6D8C"/>
<path d="M64.3617 121.853L63.9164 121.667C63.5121 121.494 53.9722 117.4 51.9199 111.021C51.1439 108.591 50.0352 106.255 48.6188 104.064C48.1684 103.342 48.0455 103.155 48.2503 102.974C48.455 102.792 48.7313 102.974 49.0487 103.142C50.5534 104.01 54.1667 108.558 57.0481 112.229L58.1024 113.556C59.7085 115.617 61.5999 117.49 63.7322 119.132L63.809 119.186L64.3617 121.853ZM48.9565 103.632L49.0896 103.841C50.5175 106.063 51.633 108.431 52.4112 110.894C54.1513 116.305 61.7515 120.149 63.6708 121.054L63.3535 119.418C61.2122 117.76 59.3093 115.873 57.6878 113.802L56.6335 112.475C54.0336 109.167 50.4868 104.687 48.9565 103.632Z" fill="#263238"/>
<path d="M73.6662 118.068H73.5536C73.4512 118.386 69.1316 118.632 63.8294 118.627C58.6244 118.627 54.3713 118.368 54.1052 118.064C55.3845 119.798 56.3369 121.706 56.9252 123.712C57.3554 125.186 57.4072 126.727 57.0768 128.221C56.7463 129.716 56.0422 131.125 55.0162 132.345C52.7061 135.272 51.4904 138.769 51.5411 142.342C51.5411 150.439 57.2681 157.014 64.3668 157.023C71.4654 157.032 77.2334 150.475 77.2436 142.378C77.2436 138.18 75.7082 134.39 73.2362 131.714C72.0254 130.392 71.22 128.814 70.8981 127.134C70.5761 125.454 70.7487 123.729 71.3989 122.126C71.9577 120.694 72.7196 119.33 73.6662 118.068Z" fill="#263238"/>
<path opacity="0.3" d="M56.1063 150.076C55.9871 149.355 56.1125 148.619 56.4667 147.962C56.8208 147.305 57.3876 146.757 58.0945 146.387C58.8015 146.017 59.6165 145.843 60.4354 145.887C61.2544 145.931 62.04 146.191 62.6919 146.633C63.3438 147.075 63.8324 147.68 64.0953 148.37C64.3581 149.06 64.3833 149.804 64.1675 150.506C63.9517 151.209 63.5048 151.839 62.8839 152.315C62.263 152.791 61.4963 153.092 60.6818 153.179C60.1517 153.243 59.6126 153.213 59.0955 153.092C58.5783 152.97 58.0933 152.759 57.6682 152.471C57.2431 152.183 56.8863 151.822 56.6182 151.411C56.3502 151 56.1763 150.546 56.1063 150.076Z" fill="white"/>
<path d="M58.7778 153.397C58.7215 153.062 58.7792 152.719 58.9434 152.413C59.1076 152.107 59.3708 151.851 59.6996 151.679C60.0283 151.507 60.4075 151.425 60.7886 151.445C61.1698 151.465 61.5356 151.585 61.8393 151.791C62.143 151.996 62.3708 152.277 62.4935 152.598C62.6162 152.919 62.6283 153.266 62.5282 153.593C62.4281 153.92 62.2203 154.213 61.9315 154.435C61.6427 154.657 61.2859 154.797 60.9069 154.838C60.6605 154.868 60.4098 154.854 60.1693 154.798C59.9288 154.742 59.7031 154.644 59.5053 154.51C59.3074 154.376 59.1413 154.209 59.0165 154.018C58.8917 153.827 58.8105 153.616 58.7778 153.397Z" fill="white"/>
<path d="M54.0694 118.281C54.0312 118.281 53.9936 118.273 53.9598 118.257C53.9259 118.241 53.8968 118.218 53.8749 118.191C53.8626 118.173 53.8523 118.155 53.8442 118.136C53.842 118.126 53.842 118.115 53.8442 118.104C53.8279 118.044 53.8392 117.981 53.8757 117.928C53.9122 117.875 53.9708 117.837 54.0387 117.823C54.1065 117.809 54.1781 117.819 54.2376 117.851C54.2971 117.883 54.3397 117.935 54.356 117.995C54.3708 118.04 54.3694 118.088 54.3519 118.132C54.3345 118.176 54.3019 118.214 54.2587 118.241C54.2033 118.274 54.136 118.289 54.0694 118.281Z" fill="#263238"/>
<path d="M145.349 162.726H50.4051C50.4051 162.726 48.926 167.969 49.4174 177.58C49.9087 187.19 54.8322 200.072 54.0952 205.093V210.773H60.2368V177.357H135.512V210.773H141.654V205.093C140.917 200.095 145.835 187.186 146.327 177.58C146.818 167.974 145.349 162.726 145.349 162.726Z" fill="white"/>
<path d="M141.659 211H135.517C135.45 211 135.384 210.976 135.336 210.933C135.288 210.891 135.261 210.833 135.261 210.773V177.602H60.4978V210.773C60.4978 210.833 60.4709 210.891 60.4229 210.933C60.3749 210.976 60.3098 211 60.2419 211H54.1003C54.0325 211 53.9674 210.976 53.9194 210.933C53.8714 210.891 53.8444 210.833 53.8444 210.773V205.093C54.2129 202.544 53.1433 198.036 51.9047 192.824C50.7378 187.903 49.4122 182.328 49.1666 177.598C48.6548 168.056 50.1441 162.735 50.1595 162.68C50.1741 162.631 50.2066 162.587 50.2519 162.556C50.2972 162.525 50.3529 162.508 50.4103 162.508H145.349C145.406 162.508 145.462 162.525 145.507 162.556C145.553 162.587 145.585 162.631 145.6 162.68C145.6 162.735 147.079 168.065 146.588 177.598C146.347 182.328 145.021 187.903 143.855 192.824C142.616 198.045 141.541 202.553 141.915 205.093V210.8C141.907 210.855 141.877 210.906 141.83 210.943C141.783 210.98 141.722 211 141.659 211ZM135.768 210.546H141.398V205.093C141.019 202.526 142.099 197.982 143.348 192.72C144.515 187.817 145.83 182.269 146.071 177.566C146.511 169.06 145.38 163.934 145.139 162.953H50.6099C50.3642 163.934 49.2382 169.06 49.6733 177.566C49.9138 182.264 51.2087 187.817 52.4012 192.72C53.6499 197.982 54.7298 202.526 54.346 205.125V210.546H59.9758V177.375C59.9758 177.315 60.0027 177.257 60.0507 177.215C60.0987 177.172 60.1638 177.148 60.2317 177.148H135.512C135.58 177.149 135.644 177.174 135.692 177.216C135.739 177.258 135.767 177.315 135.768 177.375V210.546Z" fill="#263238"/>
<path d="M145.349 162.726H50.4049C50.1825 163.591 50.0117 164.466 49.8931 165.348H145.861C145.6 163.621 145.349 162.726 145.349 162.726Z" fill="#263238"/>
<path d="M145.861 165.575H49.8932C49.8563 165.575 49.8199 165.568 49.7862 165.555C49.7526 165.542 49.7226 165.522 49.6983 165.497C49.674 165.473 49.656 165.444 49.6454 165.413C49.6349 165.381 49.6321 165.348 49.6373 165.316C49.8983 163.598 50.1491 162.712 50.1491 162.671C50.1637 162.622 50.1962 162.578 50.2415 162.547C50.2869 162.516 50.3425 162.499 50.3999 162.499H145.349C145.406 162.499 145.462 162.516 145.507 162.547C145.553 162.578 145.585 162.622 145.6 162.671C145.6 162.712 145.856 163.58 146.111 165.316C146.116 165.348 146.113 165.381 146.102 165.412C146.092 165.444 146.074 165.473 146.05 165.498C146.026 165.522 145.997 165.541 145.965 165.554C145.932 165.567 145.897 165.574 145.861 165.575ZM50.1849 165.12H145.569C145.39 163.998 145.221 163.267 145.144 162.953H50.6046C50.5278 163.267 50.3589 163.998 50.1849 165.12Z" fill="#263238"/>
<path d="M146.638 160.795H48.1836V163.794H146.638V160.795Z" fill="white"/>
<path d="M146.638 164.021H48.1836C48.1158 164.021 48.0507 163.997 48.0027 163.954C47.9547 163.912 47.9277 163.854 47.9277 163.794V160.795C47.9277 160.734 47.9547 160.677 48.0027 160.634C48.0507 160.591 48.1158 160.567 48.1836 160.567H146.638C146.706 160.567 146.771 160.591 146.819 160.634C146.867 160.677 146.894 160.734 146.894 160.795V163.794C146.894 163.854 146.867 163.912 146.819 163.954C146.771 163.997 146.706 164.021 146.638 164.021ZM48.4395 163.566H146.372V161.022H48.4395V163.566Z" fill="#263238"/>
<path d="M146.638 158.832H48.1836V161.831H146.638V158.832Z" fill="#263238"/>
<path d="M146.638 162.058H48.1836C48.1158 162.058 48.0507 162.034 48.0027 161.991C47.9547 161.949 47.9277 161.891 47.9277 161.831V158.85C47.9277 158.79 47.9547 158.732 48.0027 158.689C48.0507 158.647 48.1158 158.623 48.1836 158.623H146.638C146.706 158.623 146.771 158.647 146.819 158.689C146.867 158.732 146.894 158.79 146.894 158.85V161.849C146.889 161.906 146.86 161.959 146.813 161.998C146.765 162.037 146.703 162.058 146.638 162.058ZM48.4395 161.603H146.372V159.059H48.4395V161.603Z" fill="#263238"/>
<path d="M148.783 156.778H46.0342V160.826H148.783V156.778Z" fill="#263238"/>
<path d="M123.459 166.438H72.0488V173.427H123.459V166.438Z" fill="white"/>
<path d="M123.459 173.654H72.0489C71.981 173.654 71.9159 173.63 71.8679 173.587C71.8199 173.545 71.793 173.487 71.793 173.427V166.438C71.793 166.378 71.8199 166.32 71.8679 166.277C71.9159 166.235 71.981 166.211 72.0489 166.211H123.459C123.527 166.212 123.591 166.236 123.639 166.279C123.686 166.321 123.714 166.378 123.715 166.438V173.427C123.715 173.487 123.688 173.545 123.64 173.587C123.592 173.63 123.527 173.654 123.459 173.654ZM72.2792 173.199H123.178V166.665H72.3048L72.2792 173.199Z" fill="#263238"/>
<path d="M100.827 168.406H93.9385V170.809H100.827V168.406Z" fill="#263238"/>
<path d="M100.822 171.037H93.9385C93.8711 171.035 93.8067 171.011 93.759 170.969C93.7113 170.926 93.6839 170.869 93.6826 170.809V168.392C93.6826 168.332 93.7096 168.274 93.7576 168.231C93.8056 168.189 93.8706 168.165 93.9385 168.165H100.822C100.89 168.165 100.955 168.189 101.003 168.231C101.051 168.274 101.078 168.332 101.078 168.392V170.796C101.08 170.827 101.075 170.858 101.063 170.887C101.051 170.916 101.033 170.943 101.009 170.965C100.985 170.988 100.956 171.006 100.924 171.018C100.892 171.03 100.857 171.037 100.822 171.037ZM94.1688 170.582H100.546V168.633H94.1944L94.1688 170.582Z" fill="#263238"/>
<path d="M204.042 211C203.974 211 203.909 210.976 203.861 210.933C203.813 210.891 203.786 210.833 203.786 210.773V0.227194C203.786 0.166939 203.813 0.109151 203.861 0.0665435C203.909 0.0239363 203.974 0 204.042 0C204.11 0 204.175 0.0239363 204.223 0.0665435C204.271 0.109151 204.298 0.166939 204.298 0.227194V210.773C204.297 210.833 204.269 210.89 204.222 210.932C204.174 210.975 204.109 210.999 204.042 211Z" fill="#263238"/>
<path d="M204.042 95.7397C202.563 92.818 193.806 75.4558 190.915 70.1031C188.719 66.2151 185.983 62.5866 182.772 59.3022L160.217 67.9356C160.217 67.9356 159.705 68.8444 159.536 71.9115C159.372 74.8696 200.756 134.867 204.063 139.615L204.042 95.7397Z" fill="white"/>
<path d="M204.042 139.838C203.998 139.838 203.955 139.828 203.916 139.809C203.878 139.79 203.845 139.762 203.822 139.729C199.247 133.1 159.111 74.8878 159.296 71.8888C159.47 68.799 159.981 67.8629 160.002 67.7993C160.03 67.7525 160.075 67.7157 160.13 67.6948L182.685 59.0614C182.734 59.0435 182.789 59.0396 182.841 59.0502C182.893 59.0607 182.941 59.0853 182.977 59.1205C183.028 59.1705 188.038 64.1597 191.165 69.9759C194.098 75.4285 203.259 93.5677 204.293 95.617C204.309 95.6452 204.318 95.6763 204.319 95.7079V139.579C204.318 139.629 204.3 139.677 204.265 139.717C204.231 139.756 204.183 139.784 204.129 139.797L204.042 139.838ZM160.411 68.0992C160.299 68.3628 159.935 69.3988 159.792 71.9116C159.664 74.2153 187.153 114.706 203.807 138.807V95.7897C202.665 93.5177 193.612 75.6285 190.7 70.2031C187.885 64.9503 183.504 60.3746 182.721 59.5749L160.411 68.0992Z" fill="#263238"/>
<path d="M204.042 108.635L186.129 83.1032L185.719 76.4782L177.311 74.188L176.226 81.899L184.906 85.8749L202.409 125.861L204.042 117.496V108.635Z" fill="#263238"/>
<path d="M202.409 126.088C202.357 126.089 202.306 126.075 202.263 126.049C202.22 126.023 202.187 125.986 202.169 125.943L184.701 86.034L176.108 82.099C176.061 82.0791 176.022 82.0463 175.997 82.0055C175.972 81.9646 175.962 81.9178 175.97 81.8718L177.055 74.1472C177.059 74.1143 177.072 74.0828 177.091 74.0546C177.11 74.0263 177.136 74.0021 177.167 73.9836C177.201 73.9691 177.237 73.9616 177.275 73.9616C177.312 73.9616 177.349 73.9691 177.382 73.9836L185.796 76.2555C185.846 76.2688 185.891 76.2956 185.923 76.3323C185.955 76.3689 185.973 76.4136 185.975 76.46L186.38 83.0259L204.257 108.513C204.282 108.548 204.297 108.589 204.298 108.631V117.5L202.66 125.907C202.65 125.955 202.623 126 202.582 126.033C202.542 126.067 202.49 126.088 202.435 126.093L202.409 126.088ZM176.502 81.7673L185.023 85.6932C185.078 85.7195 185.121 85.761 185.146 85.8113L202.312 125.039L203.786 117.482V108.703L185.909 83.2213C185.887 83.1897 185.875 83.1538 185.873 83.1168L185.474 76.6509L177.526 74.488L176.502 81.7673Z" fill="#263238"/>
<path d="M160.217 67.9266C160.217 67.9266 159.265 70.1985 159.536 71.9025C159.807 73.6065 164.557 80.5722 166.594 83.2213C168.631 85.8704 176.63 86.602 176.63 86.602L179.343 76.7236L190.469 80.336C190.469 80.336 190.602 71.5435 190.469 68.7718C190.336 66 186.129 61.547 184.502 60.461C182.874 59.375 181.784 59.4977 181.784 59.4977L160.217 67.9266Z" fill="white"/>
<path d="M176.63 86.8246H176.605C176.272 86.7974 168.457 86.0613 166.369 83.3576C164.439 80.8403 159.562 73.7246 159.275 71.9389C158.989 70.1531 159.925 67.9493 159.966 67.8494C159.977 67.8206 159.995 67.7941 160.018 67.7715C160.04 67.7489 160.068 67.7305 160.099 67.7176L181.687 59.2887C181.71 59.2846 181.735 59.2846 181.758 59.2887C181.81 59.2887 182.971 59.1705 184.66 60.2929C186.349 61.4152 190.592 65.9682 190.73 68.7763C190.869 71.5844 190.73 80.2678 190.73 80.3541C190.731 80.3904 190.72 80.4262 190.701 80.458C190.681 80.4898 190.652 80.5166 190.618 80.5359C190.585 80.5577 190.547 80.5717 190.507 80.5765C190.466 80.5813 190.425 80.5767 190.387 80.5632L179.532 77.0371L176.886 86.6656C176.869 86.7131 176.834 86.7542 176.788 86.7829C176.742 86.8115 176.687 86.8262 176.63 86.8246ZM160.422 68.0947C160.253 68.5264 159.562 70.4439 159.792 71.8707C160.053 73.5156 164.792 80.4768 166.804 83.0941C168.564 85.3888 175.141 86.2067 176.436 86.3475L179.097 76.6645C179.105 76.6333 179.12 76.6041 179.143 76.5789C179.165 76.5537 179.193 76.5333 179.225 76.5191C179.257 76.5057 179.292 76.4988 179.327 76.4988C179.363 76.4988 179.398 76.5057 179.43 76.5191L190.219 80.0224C190.219 78.4139 190.331 71.2255 190.219 68.7945C190.091 66.1636 185.981 61.7378 184.353 60.6518C182.977 59.7431 182.03 59.7431 181.856 59.7431L160.422 68.0947Z" fill="#263238"/>
<path d="M204.042 50.9961C202.619 50.3463 200.459 49.383 199.507 49.0695C197.998 48.5833 196.488 49.801 196.488 49.801L182.771 59.3023C182.771 59.3023 189.353 71.1164 194.292 78.6683C197.808 84.0392 201.943 91.8138 204.042 95.8533V50.9961Z" fill="#3A6D8C"/>
<path d="M204.042 96.0805C203.993 96.081 203.944 96.0689 203.903 96.0455C203.861 96.0221 203.827 95.9885 203.807 95.9487C201.673 91.8274 197.568 84.1346 194.083 78.7819C189.195 71.3117 182.618 59.5204 182.552 59.4022C182.524 59.356 182.517 59.3027 182.53 59.2518C182.543 59.201 182.576 59.156 182.623 59.125L196.34 49.6238C196.391 49.5783 197.967 48.3288 199.605 48.8559C200.562 49.1648 202.614 50.0827 204.17 50.7916C204.212 50.8117 204.246 50.8412 204.27 50.8772C204.295 50.9131 204.308 50.9541 204.308 50.996V95.8533C204.308 95.9057 204.288 95.9564 204.251 95.997C204.213 96.0376 204.161 96.0655 204.104 96.0759L204.042 96.0805ZM183.094 59.3659C183.913 60.829 189.952 71.5798 194.518 78.5547C197.768 83.5257 201.545 90.5415 203.786 94.8218V51.1323C202.502 50.5462 200.367 49.592 199.421 49.283C198.08 48.8286 196.672 49.96 196.662 49.9691L183.094 59.3659Z" fill="#263238"/>
<path d="M204.042 74.0472L196.365 73.4383L199.231 67.972C199.231 67.972 194.159 62.7329 190.863 61.2743C188.458 60.202 185.745 58.8115 184.481 58.139L182.771 59.325C182.771 59.325 189.353 71.1391 194.292 78.691C197.808 84.0619 201.943 91.8365 204.042 95.876V74.0472Z" fill="#3A6D8C"/>
<path d="M204.042 96.0806C203.993 96.0811 203.944 96.069 203.903 96.0456C203.861 96.0222 203.827 95.9886 203.807 95.9488C201.673 91.8275 197.568 84.1347 194.083 78.782C189.195 71.3118 182.618 59.5204 182.552 59.4023C182.524 59.3561 182.517 59.3028 182.53 59.2519C182.543 59.2011 182.576 59.1561 182.623 59.1251L184.333 57.9392C184.376 57.9134 184.427 57.8996 184.479 57.8996C184.531 57.8996 184.581 57.9134 184.624 57.9392C185.986 58.6571 188.622 60.0157 190.991 61.0654C194.287 62.533 199.231 67.604 199.436 67.8176C199.468 67.8508 199.489 67.8915 199.497 67.935C199.504 67.9784 199.497 68.0228 199.477 68.0629L196.749 73.2521L204.068 73.8291C204.104 73.8334 204.139 73.844 204.171 73.8604C204.202 73.8768 204.23 73.8986 204.252 73.9246C204.287 73.9653 204.306 74.0145 204.308 74.0654V95.8761C204.308 95.9285 204.288 95.9792 204.251 96.0198C204.213 96.0604 204.161 96.0883 204.104 96.0987L204.042 96.0806ZM183.094 59.3659C183.913 60.8291 189.952 71.5799 194.518 78.5548C197.768 83.5258 201.545 90.5416 203.786 94.8219V74.2472L196.329 73.6565C196.288 73.6533 196.249 73.6414 196.214 73.6218C196.179 73.6022 196.15 73.5754 196.13 73.5437C196.109 73.5121 196.097 73.4764 196.096 73.4399C196.094 73.4034 196.102 73.367 196.12 73.3339L198.929 67.9721C198.177 67.2132 193.699 62.7466 190.741 61.4425C188.443 60.4201 185.894 59.116 184.491 58.3799L183.094 59.3659Z" fill="#263238"/>
<path d="M158.589 64.914C158.589 64.914 161.148 72.1433 163.876 73.7064C166.604 75.2695 174.731 77.7959 176.901 77.4415C178.194 77.2304 179.407 76.7335 180.427 75.9966C180.427 75.9966 183.959 66.1182 183.821 64.6732C183.682 63.2282 181.349 56.7896 181.349 56.7896C181.349 56.7896 176.359 66.1182 174.598 66.9633C172.837 67.8085 158.589 64.914 158.589 64.914Z" fill="white"/>
<path d="M176.4 77.705C173.529 77.705 166.21 75.324 163.738 73.8972C160.979 72.3069 158.451 65.2638 158.344 64.9821C158.329 64.9439 158.327 64.9031 158.337 64.8639C158.347 64.8247 158.369 64.7886 158.4 64.7595C158.43 64.7298 158.469 64.7079 158.512 64.696C158.555 64.684 158.601 64.6824 158.646 64.6913C164.332 65.85 173.247 67.3495 174.475 66.7633C175.862 66.0999 179.742 59.2704 181.129 56.6941C181.151 56.6537 181.186 56.62 181.23 56.5974C181.274 56.5747 181.324 56.5641 181.375 56.5668C181.425 56.5686 181.475 56.5845 181.515 56.6122C181.555 56.6399 181.585 56.678 181.6 56.7213C181.697 56.9849 183.949 63.2009 184.087 64.655C184.225 66.109 180.827 75.6603 180.684 76.0647C180.669 76.1026 180.645 76.1369 180.612 76.1646C179.556 76.9306 178.299 77.4465 176.958 77.6641C176.774 77.6938 176.587 77.7075 176.4 77.705ZM158.973 65.2457C159.546 66.7451 161.762 72.2387 164.019 73.5383C166.788 75.1422 174.798 77.5823 176.855 77.2415C178.079 77.0314 179.229 76.5639 180.208 75.8784C181.201 73.0975 183.673 65.8455 183.565 64.7049C183.458 63.5644 181.866 59.0024 181.303 57.4347C180.156 59.534 176.318 66.4225 174.716 67.1904C173.114 67.9584 161.68 65.7637 158.973 65.2457Z" fill="#263238"/>
<path d="M158.589 64.914C158.589 64.914 161.148 72.1433 163.876 73.7064C165.171 74.3882 166.53 74.9675 167.939 75.4376L174.593 66.9633C172.832 67.8039 158.589 64.914 158.589 64.914Z" fill="#263238"/>
<path d="M167.94 75.6648H167.847C166.426 75.191 165.055 74.604 163.753 73.9109C160.994 72.3205 158.466 65.2775 158.359 64.9958C158.345 64.9576 158.342 64.9167 158.352 64.8776C158.362 64.8384 158.384 64.8023 158.415 64.7731C158.446 64.7435 158.484 64.7216 158.527 64.7096C158.571 64.6977 158.617 64.696 158.661 64.705C164.347 65.8636 173.257 67.3631 174.491 66.777C174.541 66.7521 174.6 66.7435 174.657 66.7526C174.714 66.7617 174.765 66.788 174.803 66.827C174.839 66.866 174.859 66.915 174.859 66.9655C174.859 67.0161 174.839 67.0651 174.803 67.1041L168.149 75.583C168.124 75.6097 168.091 75.6309 168.055 75.645C168.019 75.6592 167.979 75.6659 167.94 75.6648ZM158.973 65.2139C159.546 66.7134 161.762 72.2069 164.019 73.5065C165.237 74.1558 166.518 74.7063 167.847 75.1514L173.989 67.3041C170.995 67.5676 161.424 65.7001 158.973 65.2457V65.2139Z" fill="#263238"/>
<path d="M151.654 35.8922C151.201 35.7977 150.724 35.8413 150.302 36.016C149.88 36.1907 149.536 36.4864 149.326 36.8555C148.753 37.809 148.254 38.7958 147.831 39.809L149.162 39.291C149.162 39.291 147.079 41.2085 146.828 42.8352C146.577 44.4619 147.58 48.8922 148.246 49.701C148.911 50.5099 157.811 65.6546 158.722 66.0227C159.633 66.3908 169.951 70.8983 171.369 70.7483C172.786 70.5984 176.855 70.0122 177.771 68.6082C178.687 67.2041 181.763 60.261 181.354 56.7941C180.944 53.3271 175.949 35.6014 174.45 34.2018C172.95 32.8023 171.205 32.7205 169.792 31.5391C168.954 30.8438 168.42 29.9066 168.288 28.8946C167.865 29.2606 167.421 29.6064 166.957 29.9306C166.493 30.2394 166.122 30.6452 165.877 31.112C165.877 31.112 163.63 29.4853 162.883 29.3399C162.136 29.1945 159.889 28.3039 159.72 29.1172C159.551 29.9306 161.138 31.6209 161.138 31.6209C161.138 31.6209 155.395 31.1029 153.067 31.7663C150.738 32.4297 149.407 33.7611 149.576 34.2064C149.745 34.6517 153.159 35.1152 153.159 35.1152L151.654 35.8922Z" fill="white"/>
<path d="M171.307 70.98C169.972 70.98 164.316 68.649 159.49 66.5997L158.62 66.2271C158.036 65.9954 155.549 62.0195 150.805 54.2767C149.433 52.032 148.246 50.0918 148.036 49.8373C147.34 48.9831 146.316 44.4937 146.577 42.8034C146.736 41.7583 147.601 40.6223 148.236 39.8953L147.934 40.0134C147.888 40.0328 147.836 40.0393 147.786 40.032C147.735 40.0247 147.689 40.0039 147.652 39.9725C147.617 39.9419 147.592 39.9029 147.581 39.8602C147.57 39.8175 147.574 39.7728 147.591 39.7317C148.016 38.7055 148.52 37.7065 149.1 36.7418C149.332 36.3458 149.701 36.0261 150.152 35.8298C150.603 35.6335 151.114 35.571 151.608 35.6513L152.422 35.1969C150.974 34.9788 149.484 34.6653 149.351 34.2518C149.302 34.0672 149.337 33.8728 149.448 33.7111C149.832 33.0386 151.107 32.0707 153.031 31.53C154.955 30.9893 159.081 31.2119 160.616 31.3255C160.135 30.7394 159.377 29.6943 159.51 29.0536C159.527 28.9691 159.564 28.8887 159.618 28.8181C159.673 28.7474 159.745 28.6883 159.828 28.6446C160.34 28.3811 161.261 28.6128 162.336 28.9218C162.597 28.9991 162.822 29.0627 162.98 29.0945C163.636 29.2263 165.202 30.2941 165.831 30.7348C166.101 30.3479 166.448 30.0077 166.855 29.7306C167.663 29.1535 168.16 28.7173 168.165 28.7128C168.2 28.6822 168.244 28.6613 168.292 28.6524C168.34 28.6435 168.39 28.6471 168.436 28.6628C168.483 28.678 168.523 28.7052 168.552 28.7407C168.581 28.7763 168.598 28.8188 168.6 28.8627C168.73 29.8185 169.231 30.704 170.018 31.3664C170.627 31.8405 171.318 32.2241 172.065 32.5024C173.037 32.8554 173.921 33.3759 174.665 34.0337C176.251 35.5195 181.241 53.4406 181.641 56.7531C182.071 60.3882 178.841 67.4585 178.027 68.7081C177.004 70.303 172.352 70.8664 171.435 70.98H171.307ZM149.157 39.0638C149.198 39.0643 149.239 39.0731 149.277 39.0896C149.314 39.1062 149.346 39.1299 149.372 39.1592C149.404 39.2035 149.419 39.2559 149.414 39.3084C149.41 39.361 149.386 39.4107 149.346 39.45C149.346 39.45 147.299 41.3357 147.084 42.867C146.869 44.3983 147.826 48.8059 148.45 49.5692C148.681 49.851 149.761 51.6185 151.255 54.0631C153.85 58.3208 158.2 65.4456 158.84 65.8227L159.715 66.1862C166.671 69.1443 170.591 70.5984 171.338 70.5211C173.759 70.2712 176.835 69.5851 177.551 68.4945C178.575 66.9496 181.497 60.161 181.093 56.8167C180.668 53.2725 175.673 35.6786 174.261 34.3518C173.554 33.7391 172.722 33.2518 171.809 32.9159C171.009 32.6187 170.267 32.2091 169.613 31.7027C168.854 31.0685 168.329 30.2445 168.109 29.3398C167.878 29.5261 167.541 29.7942 167.121 30.0896C166.684 30.3712 166.333 30.7442 166.097 31.1756C166.082 31.2087 166.059 31.2382 166.028 31.2618C165.998 31.2855 165.962 31.3026 165.923 31.3119C165.885 31.3215 165.844 31.3228 165.805 31.3157C165.766 31.3086 165.729 31.2933 165.698 31.271C164.813 30.6303 163.313 29.6443 162.806 29.5443C162.638 29.508 162.392 29.4398 162.116 29.358C161.46 29.1717 160.37 28.8582 160.027 29.0399C160.007 29.0505 159.991 29.065 159.978 29.0824C159.966 29.0997 159.958 29.1194 159.956 29.1399C159.848 29.6579 160.734 30.8393 161.312 31.4664C161.344 31.5007 161.364 31.5428 161.37 31.5872C161.375 31.6317 161.366 31.6766 161.343 31.7163C161.319 31.7562 161.283 31.7888 161.238 31.8099C161.193 31.831 161.142 31.8396 161.092 31.8344C161.036 31.8344 155.375 31.3301 153.128 31.9753C150.805 32.6387 149.73 33.8883 149.797 34.1246C149.976 34.3154 151.69 34.6653 153.169 34.8561C153.222 34.8635 153.27 34.8848 153.309 34.9172C153.347 34.9497 153.373 34.9918 153.384 35.0379C153.394 35.0832 153.388 35.1301 153.367 35.1723C153.346 35.2145 153.311 35.2501 153.267 35.2742L151.767 36.0875C151.707 36.1186 151.635 36.1284 151.567 36.1148C151.168 36.0287 150.748 36.0659 150.376 36.2204C150.003 36.3748 149.702 36.6373 149.52 36.9645C149.045 37.7471 148.623 38.5544 148.256 39.3818L149.029 39.0819C149.068 39.0646 149.113 39.0583 149.157 39.0638Z" fill="#263238"/>
<path d="M179.184 49.4057C179.328 49.4033 179.47 49.3771 179.603 49.3284C177.894 43.0034 175.422 35.1106 174.444 34.1973C172.945 32.7932 171.2 32.716 169.787 31.5346C168.951 30.8397 168.42 29.9043 168.287 28.8946C167.865 29.2606 167.421 29.6064 166.957 29.9306C166.493 30.2394 166.122 30.6452 165.877 31.112C165.877 31.112 163.63 29.4853 162.883 29.3399C162.136 29.1945 159.889 28.3039 159.72 29.1172C159.551 29.9306 161.138 31.6209 161.138 31.6209C161.138 31.6209 155.395 31.1029 153.067 31.7663C150.738 32.4297 149.407 33.7611 149.576 34.2064C149.745 34.6517 153.159 35.1152 153.159 35.1152L151.659 35.924C151.206 35.8295 150.729 35.8731 150.307 36.0478C149.885 36.2225 149.541 36.5182 149.33 36.8873C148.758 37.8408 148.259 38.8276 147.836 39.8408L149.167 39.3228C149.167 39.3228 147.084 41.2403 146.833 42.867C146.582 44.4938 147.585 48.924 148.251 49.7329C148.547 50.1009 150.508 53.368 152.662 56.8668L152.739 56.8986C152.894 56.8626 153.039 56.7991 153.166 56.7118C153.293 56.6246 153.399 56.5155 153.476 56.3911C153.554 56.2667 153.603 56.1296 153.62 55.988C153.636 55.8464 153.621 55.7032 153.573 55.5672C153.241 54.5357 152.493 53.059 152.657 52.4683C152.821 51.8776 155.068 49.1421 154.239 47.8153C153.409 46.4885 150.656 44.8618 151.168 42.0537C151.68 39.2456 162.31 38.8048 163.308 38.364C164.306 37.9233 167.55 35.7786 168.799 35.1833C170.048 34.5881 172.709 35.6377 173.707 37.6916C174.705 39.7454 174.787 42.8625 175.12 43.8213C175.453 44.78 177.449 45.966 177.449 45.966C177.449 45.966 178.355 49.4057 179.184 49.4057Z" fill="#263238"/>
<path d="M152.734 57.0939C152.697 57.0928 152.661 57.0851 152.627 57.0712L152.55 57.0394C152.499 57.0186 152.458 56.9834 152.432 56.9394C151.869 56.0306 151.322 55.1219 150.81 54.2903C149.438 52.0184 148.251 50.0918 148.036 49.8373C147.34 48.9831 146.316 44.4937 146.577 42.8034C146.736 41.7583 147.601 40.6223 148.236 39.8953L147.934 40.0134C147.888 40.0328 147.836 40.0393 147.786 40.032C147.735 40.0247 147.689 40.0039 147.652 39.9725C147.617 39.9419 147.592 39.9029 147.581 39.8602C147.57 39.8175 147.574 39.7728 147.591 39.7317C148.016 38.7055 148.52 37.7065 149.1 36.7418C149.332 36.3458 149.701 36.0261 150.152 35.8298C150.603 35.6335 151.114 35.571 151.608 35.6513L152.422 35.1969C150.974 34.9788 149.484 34.6653 149.351 34.2518C149.302 34.0672 149.337 33.8728 149.448 33.7111C149.832 33.0386 151.107 32.0707 153.031 31.53C154.955 30.9893 159.081 31.2119 160.616 31.3255C160.135 30.7394 159.377 29.6943 159.51 29.0536C159.527 28.9691 159.564 28.8887 159.618 28.8181C159.673 28.7474 159.745 28.6883 159.828 28.6446C160.34 28.3811 161.261 28.6128 162.336 28.9218C162.597 28.9991 162.822 29.0627 162.98 29.0945C163.636 29.2263 165.202 30.2941 165.831 30.7348C166.101 30.3479 166.448 30.0077 166.855 29.7306C167.663 29.1535 168.16 28.7173 168.165 28.7128C168.2 28.6822 168.244 28.6613 168.292 28.6524C168.34 28.6435 168.39 28.6471 168.436 28.6628C168.483 28.678 168.523 28.7052 168.552 28.7407C168.581 28.7763 168.598 28.8188 168.6 28.8627C168.73 29.8185 169.231 30.704 170.018 31.3664C170.627 31.8405 171.318 32.2241 172.065 32.5024C173.037 32.8554 173.921 33.3759 174.665 34.0337C175.837 35.1288 178.595 44.4846 179.89 49.2693C179.906 49.3235 179.898 49.3808 179.869 49.4303C179.839 49.4797 179.791 49.5179 179.732 49.5374C179.569 49.5956 179.395 49.6264 179.22 49.6283C178.314 49.6283 177.557 47.2064 177.249 46.0704C176.85 45.8251 175.202 44.7754 174.9 43.8576C174.755 43.3084 174.651 42.7513 174.588 42.19C174.399 40.8768 174.138 39.0774 173.498 37.7506C173.228 37.2069 172.838 36.7168 172.351 36.3094C171.864 35.902 171.29 35.5855 170.663 35.3787C170.392 35.2729 170.101 35.216 169.806 35.2113C169.511 35.2066 169.217 35.2542 168.943 35.3514C168.329 35.6422 167.203 36.3283 166.113 36.9918C165.023 37.6552 163.963 38.3004 163.451 38.5276C162.679 38.7308 161.885 38.8633 161.082 38.9229C157.832 39.3455 151.787 40.1225 151.445 42.0536C151.102 43.9848 152.412 45.3661 153.492 46.4658C153.873 46.8389 154.216 47.2419 154.515 47.6699C155.201 48.765 154.106 50.5462 153.384 51.723C153.22 51.9669 153.078 52.2222 152.959 52.4864C152.857 52.8317 153.195 53.6905 153.471 54.4448C153.609 54.7947 153.748 55.1537 153.85 55.4718C153.94 55.6932 153.954 55.9334 153.889 56.1618C153.824 56.3901 153.684 56.596 153.487 56.7531C153.3 56.9018 153.081 57.0133 152.842 57.0803L152.734 57.0939ZM149.152 39.0638C149.193 39.0643 149.234 39.0731 149.271 39.0896C149.309 39.1062 149.341 39.1299 149.367 39.1592C149.399 39.2035 149.414 39.2559 149.409 39.3084C149.404 39.361 149.381 39.4107 149.341 39.45C149.341 39.45 147.294 41.3357 147.079 42.867C146.864 44.3983 147.821 48.8059 148.445 49.5692C148.676 49.851 149.761 51.6231 151.255 54.0722C151.741 54.872 152.279 55.7262 152.791 56.5986C153.007 56.5252 153.182 56.3792 153.277 56.1921C153.373 56.0049 153.382 55.7919 153.302 55.599C153.205 55.2945 153.067 54.9492 152.929 54.5993C152.581 53.6905 152.248 52.859 152.386 52.3819C152.508 52.077 152.666 51.7846 152.857 51.5095C153.487 50.4871 154.541 48.7831 153.988 47.8744C153.706 47.4727 153.382 47.0955 153.021 46.7475C151.9 45.5752 150.503 44.1166 150.882 41.9673C151.286 39.6954 157.335 38.9274 160.954 38.464C161.699 38.3923 162.438 38.2738 163.165 38.1095C163.646 37.896 164.7 37.2417 165.765 36.6055C166.829 35.9694 168.006 35.2424 168.646 34.9379C168.982 34.8086 169.344 34.7419 169.711 34.7419C170.077 34.7419 170.439 34.8086 170.775 34.9379C171.469 35.1662 172.104 35.5159 172.643 35.9663C173.182 36.4166 173.614 36.9585 173.913 37.5597C174.578 38.9229 174.844 40.7768 175.038 42.1036C175.1 42.6387 175.199 43.1698 175.335 43.694C175.586 44.4165 177.024 45.3934 177.562 45.7115C177.614 45.7444 177.652 45.7926 177.669 45.8478C178.125 47.5745 178.836 49.1421 179.164 49.1421C179.203 49.1464 179.242 49.1464 179.281 49.1421C177.485 42.5398 175.125 35.156 174.24 34.3245C173.533 33.7118 172.701 33.2245 171.789 32.8886C170.988 32.5915 170.247 32.1818 169.593 31.6754C168.833 31.0412 168.309 30.2173 168.088 29.3126C167.858 29.4989 167.52 29.767 167.1 30.0623C166.664 30.3439 166.312 30.717 166.077 31.1483C166.062 31.1814 166.038 31.2109 166.008 31.2346C165.978 31.2582 165.942 31.2754 165.903 31.2846C165.864 31.2942 165.824 31.2956 165.785 31.2884C165.745 31.2813 165.709 31.266 165.678 31.2437C164.792 30.603 163.293 29.617 162.786 29.5171C162.617 29.4807 162.371 29.4125 162.095 29.3308C161.44 29.1445 160.35 28.8309 160.007 29.0127C159.987 29.0232 159.97 29.0378 159.958 29.0551C159.945 29.0725 159.938 29.0922 159.935 29.1127C159.828 29.6307 160.713 30.8121 161.292 31.4391C161.324 31.4735 161.344 31.5155 161.349 31.56C161.355 31.6044 161.345 31.6493 161.322 31.689C161.299 31.7289 161.262 31.7616 161.217 31.7826C161.173 31.8037 161.122 31.8123 161.071 31.8072C161.015 31.8072 155.355 31.3074 153.108 31.948C150.784 32.6114 149.71 33.861 149.776 34.0973C149.955 34.2881 151.67 34.638 153.149 34.8289C153.201 34.8362 153.25 34.8575 153.288 34.89C153.327 34.9224 153.353 34.9645 153.364 35.0106C153.373 35.056 153.367 35.1029 153.346 35.1451C153.325 35.1873 153.29 35.2228 153.246 35.2469L151.746 36.0603C151.686 36.0914 151.615 36.1011 151.547 36.0875C151.148 36.0023 150.728 36.0399 150.356 36.1943C149.984 36.3486 149.682 36.6106 149.5 36.9372C149.024 37.7199 148.602 38.5271 148.236 39.3546L149.008 39.0547C149.058 39.0423 149.11 39.0455 149.157 39.0638H149.152Z" fill="#263238"/>
<path d="M151.572 55.0946C151.572 55.0946 149.243 54.7993 149.325 57.1621C149.407 59.5249 155.728 61.7378 155.728 61.7378L151.572 55.0946Z" fill="#263238"/>
<path d="M155.728 61.965C155.698 61.9693 155.667 61.9693 155.636 61.965C155.37 61.8696 149.157 59.6658 149.07 57.1803C149.032 56.8492 149.076 56.5148 149.2 56.2008C149.324 55.8867 149.524 55.6006 149.786 55.3627C150.041 55.1836 150.333 55.0511 150.646 54.9731C150.959 54.8951 151.286 54.8731 151.608 54.9083C151.647 54.9139 151.684 54.9269 151.717 54.9466C151.75 54.9662 151.777 54.9919 151.798 55.0219L155.953 61.6106C155.979 61.6513 155.989 61.698 155.984 61.7444C155.978 61.7907 155.957 61.8344 155.923 61.8696C155.9 61.897 155.871 61.9197 155.837 61.9362C155.804 61.9526 155.766 61.9625 155.728 61.965ZM151.332 55.3082C150.893 55.2978 150.465 55.4267 150.124 55.6717C149.916 55.8675 149.759 56.1019 149.665 56.3581C149.571 56.6143 149.543 56.8858 149.581 57.153C149.643 58.8979 153.538 60.6291 155.145 61.2698L151.414 55.3127L151.332 55.3082Z" fill="#263238"/>
<path d="M178.688 45.4208C178.688 45.4208 181.18 43.794 182.014 46.3068C182.848 48.8196 180.684 53.6906 180.684 53.6906L178.688 45.4208Z" fill="white"/>
<path d="M180.663 53.9177C180.608 53.9131 180.556 53.8929 180.514 53.8603C180.473 53.8276 180.444 53.7841 180.433 53.736L178.437 45.4661C178.427 45.4233 178.43 45.3788 178.448 45.3378C178.465 45.2967 178.495 45.2609 178.534 45.2344C178.585 45.2026 179.798 44.4256 180.909 44.78C181.255 44.9093 181.559 45.1127 181.795 45.372C182.031 45.6313 182.19 45.9384 182.26 46.2658C183.104 48.8195 181.011 53.5951 180.919 53.7951C180.895 53.8361 180.858 53.8699 180.812 53.8918C180.767 53.9137 180.715 53.9228 180.663 53.9177ZM178.974 45.5252L180.745 52.8636C181.303 51.4186 182.378 48.2061 181.768 46.3703C181.718 46.1146 181.599 45.8734 181.421 45.6677C181.242 45.4619 181.01 45.2976 180.745 45.1889C180.439 45.1356 180.125 45.1379 179.821 45.1957C179.516 45.2535 179.228 45.3656 178.974 45.5252Z" fill="#263238"/>
<path d="M169.152 59.793C168.685 59.8003 168.23 59.6566 167.873 59.3886C167.822 59.3484 167.791 59.2922 167.786 59.2319C167.782 59.1716 167.803 59.1121 167.847 59.066C167.869 59.0433 167.895 59.0246 167.925 59.0112C167.955 58.9977 167.988 58.9897 168.021 58.9875C168.054 58.9854 168.088 58.9893 168.12 58.9988C168.151 59.0084 168.181 59.0235 168.206 59.0433C168.421 59.1901 168.674 59.2869 168.942 59.325C169.21 59.3631 169.485 59.3412 169.741 59.2614C170.077 59.1838 170.389 59.0408 170.654 58.8427C170.92 58.6446 171.132 58.3965 171.276 58.1163C171.496 57.4893 170.34 55.5899 169.562 54.5403C169.525 54.4897 169.511 54.4279 169.525 54.3687C169.539 54.3095 169.579 54.2576 169.636 54.2245C169.693 54.1913 169.763 54.1796 169.829 54.192C169.896 54.2044 169.954 54.2397 169.992 54.2904C170.212 54.5857 172.126 57.2166 171.768 58.2481C171.6 58.6033 171.342 58.919 171.013 59.1705C170.684 59.4221 170.295 59.6025 169.874 59.6976C169.64 59.7586 169.397 59.7907 169.152 59.793Z" fill="#263238"/>
<path d="M167.786 63.4281C166.466 63.4142 165.153 63.2399 163.886 62.9101C163.854 62.9014 163.825 62.8871 163.8 62.8681C163.774 62.8492 163.753 62.8259 163.738 62.7997C163.723 62.7735 163.713 62.7448 163.711 62.7154C163.708 62.686 163.712 62.6565 163.722 62.6284C163.732 62.5998 163.747 62.5732 163.769 62.5501C163.79 62.527 163.816 62.5079 163.845 62.494C163.875 62.48 163.907 62.4714 163.941 62.4687C163.974 62.4661 164.008 62.4694 164.04 62.4785C164.081 62.4785 168.216 63.6144 170.836 62.4194C173.457 61.2243 175.059 60.252 175.53 58.7843C175.548 58.724 175.592 58.6727 175.653 58.6416C175.714 58.6105 175.787 58.6022 175.855 58.6184C175.922 58.6347 175.98 58.6742 176.015 58.7283C176.05 58.7825 176.06 58.8467 176.041 58.907C175.53 60.5246 173.902 61.5288 171.087 62.8147C170.056 63.2467 168.925 63.4568 167.786 63.4281Z" fill="#263238"/>
<path d="M156.726 52.8136C156.644 52.8139 156.564 52.7968 156.491 52.7636C156.371 52.7076 156.281 52.6115 156.24 52.4964C156.2 52.3814 156.213 52.2569 156.276 52.1502C156.342 52.0412 157.924 49.4511 162.085 48.4515C162.214 48.4248 162.35 48.4436 162.464 48.5041C162.578 48.5647 162.661 48.6621 162.695 48.7758C162.73 48.8896 162.713 49.0108 162.649 49.1139C162.585 49.217 162.478 49.2939 162.351 49.3285C158.615 50.2372 157.197 52.5501 157.182 52.5728C157.138 52.646 157.072 52.7072 156.992 52.7497C156.912 52.7921 156.82 52.8142 156.726 52.8136Z" fill="#263238"/>
<path d="M167.208 47.2791C167.129 47.2784 167.052 47.2617 166.982 47.2302C166.912 47.1986 166.851 47.1532 166.803 47.0974C166.721 47.0021 166.684 46.8817 166.701 46.7624C166.719 46.6432 166.788 46.5349 166.896 46.4612C167.054 46.3567 170.749 43.8758 173.897 45.0981C173.959 45.1217 174.015 45.1558 174.062 45.1986C174.109 45.2414 174.146 45.2919 174.171 45.3474C174.196 45.4029 174.208 45.4622 174.207 45.522C174.206 45.5817 174.192 45.6407 174.166 45.6956C174.139 45.7505 174.101 45.8002 174.052 45.8419C174.004 45.8836 173.947 45.9165 173.885 45.9386C173.822 45.9608 173.755 45.9718 173.688 45.971C173.621 45.9703 173.554 45.9577 173.493 45.9342C170.898 44.9436 167.551 47.1837 167.52 47.2064C167.427 47.2599 167.318 47.2854 167.208 47.2791Z" fill="#263238"/>
<path d="M161.916 53.6951C162.295 54.254 162.233 54.9038 161.783 55.1446C161.332 55.3854 160.657 55.1446 160.278 54.5721C159.899 53.9995 159.956 53.3634 160.406 53.1226C160.856 52.8818 161.537 53.1362 161.916 53.6951Z" fill="#263238"/>
<path d="M172.909 49.9509C173.206 50.5462 173.053 51.1869 172.572 51.3732C172.09 51.5595 171.456 51.2323 171.159 50.6371C170.862 50.0418 171.011 49.4011 171.497 49.2103C171.983 49.0194 172.613 49.342 172.909 49.9509Z" fill="#263238"/>
<path d="M204.042 137.003L191.38 168.905L204.042 197.823V137.003Z" fill="#263238"/>
<path d="M204.042 198.05C203.99 198.05 203.939 198.036 203.897 198.01C203.854 197.984 203.821 197.947 203.801 197.905L191.144 168.987C191.124 168.936 191.124 168.88 191.144 168.828L203.801 136.926C203.807 136.896 203.819 136.867 203.837 136.842C203.855 136.816 203.879 136.794 203.907 136.776C203.935 136.759 203.966 136.746 203.999 136.739C204.033 136.733 204.067 136.732 204.101 136.737C204.134 136.742 204.166 136.753 204.195 136.769C204.224 136.785 204.249 136.806 204.269 136.831C204.289 136.856 204.303 136.883 204.31 136.913C204.318 136.942 204.319 136.973 204.313 137.003V197.823C204.313 197.876 204.292 197.927 204.253 197.968C204.215 198.008 204.162 198.036 204.103 198.045L204.042 198.05ZM191.656 168.901L203.786 196.619V138.33L191.656 168.901Z" fill="#263238"/>
<path d="M160.217 67.9266C160.217 67.9266 146.91 80.3314 145.426 81.5355C143.941 82.7397 139.729 85.1706 140.405 87.3199C141.08 89.4692 179.481 134.313 179.481 134.313L182.04 145.995V179.343C182.04 179.343 195.346 171.754 200.628 161.394C200.628 161.394 202.798 154.529 203.341 148.867V136.462L167.515 83.703C167.515 83.703 159.679 72.9703 160.217 67.9266Z" fill="#3A6D8C"/>
<path d="M182.055 179.57C182.014 179.57 181.973 179.561 181.937 179.543C181.896 179.524 181.861 179.495 181.837 179.46C181.812 179.425 181.799 179.384 181.799 179.343V145.977L179.24 134.39C177.193 132.032 140.855 89.551 140.159 87.379C139.56 85.466 142.36 83.4667 144.207 82.1399C144.627 81.8445 144.985 81.5855 145.257 81.3674C146.725 80.1815 159.894 67.8948 160.027 67.7676C160.065 67.7349 160.113 67.7128 160.165 67.7039C160.216 67.6951 160.27 67.6998 160.319 67.7176C160.368 67.7374 160.409 67.7705 160.435 67.8121C160.462 67.8537 160.473 67.9017 160.467 67.9493C159.955 72.8703 167.679 83.4758 167.755 83.5803L203.581 136.344C203.606 136.379 203.618 136.42 203.617 136.462V148.853C203.105 154.492 200.92 161.376 200.894 161.444C195.623 171.777 182.336 179.443 182.203 179.52C182.16 179.548 182.109 179.566 182.055 179.57ZM159.93 68.5173C157.524 70.762 146.94 80.6222 145.599 81.6946C145.318 81.9218 144.955 82.1853 144.53 82.4852C142.785 83.7348 140.144 85.625 140.655 87.2472C141.167 88.8694 166.414 118.664 179.685 134.149C179.706 134.177 179.721 134.208 179.731 134.24L182.29 145.927V178.907C184.532 177.543 195.7 170.473 200.393 161.294C200.393 161.258 202.547 154.415 203.08 148.84V136.526L167.3 83.8166C167.013 83.4212 159.991 73.7746 159.93 68.5173Z" fill="#263238"/>
<path d="M167.54 83.703C167.54 83.703 159.679 72.9703 160.216 67.9266C160.216 67.9266 158.594 69.4397 156.419 71.4572C156.337 72.5023 156.281 73.9881 156.281 76.1147C156.325 81.1281 157.335 86.0979 159.265 90.8096L167.965 90.5688L162.238 98.0389C162.238 98.0389 173.636 111.671 180.827 117.55C186.344 122.094 197.281 130.787 202.082 134.594L167.54 83.703Z" fill="#3A6D8C"/>
<path d="M202.092 134.822C202.028 134.822 201.966 134.801 201.918 134.763C197.384 131.164 186.237 122.294 180.663 117.719C173.539 111.871 162.156 98.3116 162.044 98.1798C162.013 98.1413 161.996 98.0953 161.996 98.048C161.996 98.0008 162.013 97.9547 162.044 97.9162L167.459 90.8141L159.27 91.0413C159.218 91.0417 159.167 91.0286 159.123 91.0036C159.08 90.9785 159.045 90.9427 159.024 90.9005C157.089 86.1595 156.074 81.1616 156.02 76.1192C156.02 74.1881 156.066 72.6159 156.158 71.4481C156.163 71.3951 156.188 71.3453 156.23 71.3072C158.405 69.2852 160.022 67.7721 160.022 67.7721C160.059 67.7384 160.107 67.7156 160.159 67.7067C160.211 67.6977 160.265 67.7031 160.314 67.7221C160.363 67.7419 160.404 67.775 160.431 67.8166C160.457 67.8582 160.468 67.9063 160.462 67.9538C159.951 72.8749 167.674 83.4803 167.75 83.5848L202.302 134.476C202.333 134.524 202.344 134.579 202.333 134.633C202.323 134.687 202.292 134.736 202.246 134.772C202.201 134.801 202.148 134.819 202.092 134.822ZM162.566 98.0162C163.748 99.4203 174.291 111.852 180.991 117.369C186.109 121.554 195.879 129.355 200.951 133.399L167.326 83.8256C166.978 83.3713 159.992 73.7609 159.93 68.5173L156.67 71.5571C156.583 72.7068 156.537 74.238 156.537 76.101C156.594 81.0316 157.575 85.9194 159.439 90.5642L167.94 90.3279C167.987 90.3266 168.034 90.3369 168.075 90.3576C168.116 90.3783 168.149 90.4087 168.172 90.4453C168.195 90.482 168.206 90.5236 168.204 90.5654C168.201 90.6072 168.186 90.6477 168.16 90.6824L162.566 98.0162Z" fill="#263238"/>
<path d="M189.113 131.164L191.805 130.682C191.232 133.119 191.193 135.63 191.687 138.08C192.107 140.321 192.776 142.521 193.683 144.646L191.569 145.059C191.569 145.059 187.828 137.893 189.113 131.164Z" fill="white"/>
<path d="M191.569 145.286C191.52 145.286 191.472 145.273 191.431 145.25C191.389 145.227 191.356 145.194 191.334 145.155C191.298 145.082 187.577 137.848 188.862 131.123C188.87 131.078 188.894 131.037 188.93 131.004C188.965 130.972 189.011 130.95 189.062 130.941L191.754 130.46C191.796 130.452 191.84 130.455 191.881 130.467C191.922 130.479 191.959 130.5 191.989 130.528C192.018 130.555 192.039 130.589 192.05 130.625C192.061 130.662 192.061 130.7 192.05 130.737C191.488 133.142 191.444 135.62 191.922 138.039C192.341 140.263 193.005 142.445 193.903 144.555C193.918 144.586 193.926 144.619 193.926 144.652C193.926 144.686 193.918 144.719 193.903 144.75C193.886 144.779 193.861 144.805 193.831 144.824C193.801 144.844 193.766 144.857 193.729 144.864L191.621 145.282L191.569 145.286ZM189.363 131.355C188.294 137.334 191.206 143.696 191.743 144.8L193.361 144.477C192.513 142.412 191.878 140.283 191.462 138.116C190.987 135.751 190.999 133.33 191.498 130.969L189.363 131.355Z" fill="#263238"/>
<path d="M140.001 86.4747C140.001 86.4747 138.644 89.3646 139.591 91.7774C140.538 94.1903 145.021 110.807 145.021 110.807C145.021 110.807 141.628 112.13 144.208 115.142C145.728 116.908 147.045 118.805 148.138 120.804C148.138 120.804 146.649 122.371 148.276 124.78C149.095 125.944 149.821 127.159 150.446 128.415C150.446 128.415 153.159 141.06 154.541 142.265C155.923 143.469 162.817 145.641 172.454 146.24C182.091 146.84 192.266 147.086 192.266 147.086C192.266 147.086 190.09 142.746 189.707 138.652C189.323 134.558 189.164 131.187 189.164 131.187L171.799 129.742L168.677 121.79L141.086 88.4195C141.086 88.4195 139.862 87.0791 140.001 86.4747Z" fill="#3A6D8C"/>
<path d="M192.235 147.29C192.132 147.29 181.948 147.04 172.418 146.445C162.888 145.85 155.825 143.719 154.346 142.405C152.975 141.188 150.487 129.737 150.206 128.433C149.577 127.215 148.862 126.032 148.067 124.893C146.603 122.73 147.524 121.208 147.852 120.777C146.773 118.839 145.487 116.998 144.013 115.278C143.138 114.261 142.826 113.306 143.076 112.443C143.346 111.686 143.942 111.053 144.735 110.685C144.254 108.903 140.246 94.0903 139.361 91.8502C138.388 89.3874 139.719 86.5111 139.775 86.3975C139.799 86.3459 139.844 86.3039 139.901 86.2796C139.957 86.2553 140.022 86.2504 140.082 86.2658C140.143 86.2826 140.195 86.3187 140.228 86.3673C140.261 86.4159 140.273 86.4735 140.262 86.5293C140.185 86.8701 140.819 87.7516 141.285 88.2696L168.83 121.64C168.847 121.659 168.859 121.68 168.866 121.704L171.937 129.514L189.144 130.946C189.205 130.951 189.262 130.976 189.305 131.016C189.347 131.057 189.372 131.109 189.374 131.164C189.374 131.196 189.512 134.576 189.916 138.62C190.321 142.665 192.45 146.936 192.475 146.977C192.496 147.011 192.507 147.049 192.507 147.088C192.507 147.127 192.496 147.165 192.475 147.199C192.447 147.232 192.411 147.257 192.368 147.273C192.326 147.289 192.28 147.295 192.235 147.29ZM139.96 87.3108C139.632 88.3014 139.207 90.1372 139.837 91.723C140.778 94.1131 145.088 110.098 145.267 110.775C145.282 110.827 145.276 110.882 145.249 110.93C145.223 110.979 145.179 111.017 145.124 111.039C144.759 111.189 144.433 111.403 144.164 111.669C143.896 111.935 143.691 112.246 143.563 112.584C143.353 113.306 143.639 114.124 144.407 115.029C145.94 116.807 147.269 118.718 148.374 120.731C148.393 120.77 148.4 120.814 148.394 120.856C148.388 120.899 148.368 120.939 148.338 120.972C148.281 121.031 146.987 122.453 148.496 124.684C149.321 125.849 150.051 127.063 150.682 128.319C151.45 131.864 153.63 141.151 154.699 142.097C156.086 143.328 163.2 145.427 172.444 146.004C180.893 146.536 189.845 146.786 191.841 146.84C191.329 145.741 189.742 142.101 189.399 138.661C189.057 135.222 188.888 132.164 188.888 131.391L171.742 129.964C171.694 129.962 171.647 129.946 171.609 129.919C171.57 129.892 171.542 129.856 171.527 129.814L168.38 121.876L140.865 88.5377C140.512 88.1522 140.209 87.7331 139.96 87.2881V87.3108Z" fill="#263238"/>
<path d="M156.685 115.251C156.617 115.25 156.553 115.226 156.505 115.183C156.458 115.141 156.43 115.084 156.429 115.024C156.429 114.964 156.456 114.906 156.504 114.863C156.552 114.821 156.617 114.797 156.685 114.797C157.995 114.757 159.296 114.588 160.564 114.292C157.296 113.996 154.012 113.865 150.728 113.902C150.66 113.902 150.595 113.878 150.547 113.835C150.499 113.793 150.472 113.735 150.472 113.674C150.472 113.614 150.499 113.556 150.547 113.514C150.595 113.471 150.66 113.447 150.728 113.447C152.775 113.447 155.436 113.497 157.519 113.602C161.496 113.802 161.532 114.029 161.567 114.247C161.603 114.465 161.24 114.606 161.102 114.638C159.664 115.003 158.18 115.209 156.685 115.251Z" fill="#263238"/>
<path d="M148.005 116.333C147.965 116.332 147.926 116.324 147.891 116.308C147.855 116.292 147.824 116.27 147.8 116.242C147.688 116.11 146.705 114.915 146.992 114.142C147.042 114.009 147.131 113.889 147.248 113.795C147.365 113.7 147.508 113.634 147.662 113.602C148.265 113.487 148.883 113.441 149.499 113.465C149.532 113.465 149.565 113.47 149.596 113.481C149.626 113.491 149.655 113.507 149.678 113.527C149.702 113.548 149.721 113.572 149.734 113.599C149.748 113.625 149.755 113.654 149.755 113.684C149.757 113.713 149.751 113.743 149.74 113.771C149.728 113.799 149.711 113.825 149.688 113.847C149.665 113.869 149.637 113.887 149.607 113.899C149.576 113.912 149.543 113.919 149.51 113.92C148.937 113.911 148.365 113.949 147.8 114.033C147.725 114.045 147.656 114.075 147.598 114.119C147.54 114.163 147.497 114.219 147.473 114.283C147.319 114.697 147.841 115.537 148.205 115.969C148.244 116.018 148.261 116.078 148.251 116.137C148.242 116.197 148.207 116.25 148.153 116.287C148.111 116.316 148.059 116.332 148.005 116.333Z" fill="#263238"/>
<path d="M156.01 132.836C155.973 132.836 155.937 132.829 155.903 132.815C155.87 132.802 155.84 132.783 155.815 132.759C155.771 132.713 155.749 132.653 155.754 132.593C155.759 132.533 155.79 132.476 155.841 132.436C155.841 132.436 156.527 131.909 157.504 131.264C157.559 131.228 157.628 131.214 157.695 131.223C157.762 131.232 157.822 131.265 157.862 131.314C157.902 131.363 157.919 131.424 157.908 131.483C157.898 131.543 157.861 131.596 157.806 131.632C156.844 132.264 156.184 132.772 156.179 132.777C156.133 132.815 156.072 132.836 156.01 132.836Z" fill="#263238"/>
<path d="M159.168 130.755C159.125 130.754 159.083 130.744 159.046 130.725C159.009 130.707 158.977 130.682 158.953 130.65C158.916 130.6 158.904 130.538 158.918 130.48C158.932 130.421 158.972 130.37 159.029 130.337C159.49 130.073 159.94 129.842 160.37 129.637C162.725 128.533 170.243 129.337 170.56 129.369C170.628 129.377 170.689 129.408 170.731 129.456C170.773 129.503 170.793 129.563 170.785 129.624C170.782 129.653 170.771 129.682 170.755 129.709C170.738 129.735 170.716 129.758 170.689 129.777C170.662 129.795 170.632 129.809 170.599 129.817C170.567 129.825 170.532 129.827 170.499 129.823C170.422 129.823 162.822 129.001 160.611 130.037C160.191 130.237 159.751 130.464 159.306 130.719C159.265 130.742 159.217 130.755 159.168 130.755Z" fill="#263238"/>
<path d="M191.805 130.678L194.712 127.711C194.712 127.711 196.462 123.358 196.81 122.939C197.158 122.521 199.963 118.9 200.429 118.068C200.894 117.237 201.012 114.129 202.415 114.547C203.817 114.965 203.351 116.205 203.116 118.586C202.869 120.277 202.318 121.922 201.483 123.457C201.483 123.457 202.532 131.959 202.532 132.477C202.532 132.995 199.973 141.288 199.973 141.288L193.084 143.773C193.084 143.773 189.947 138.525 191.805 130.678Z" fill="white"/>
<path d="M193.074 144.005C193.028 144.005 192.983 143.993 192.944 143.973C192.904 143.952 192.871 143.922 192.849 143.887C192.818 143.832 189.701 138.47 191.554 130.637C191.563 130.598 191.582 130.563 191.61 130.532L194.487 127.597C194.727 126.993 196.252 123.23 196.605 122.808C196.959 122.385 199.753 118.773 200.188 117.973C200.343 117.605 200.458 117.224 200.531 116.837C200.772 115.851 201.043 114.733 201.713 114.388C201.829 114.329 201.958 114.294 202.09 114.285C202.223 114.276 202.356 114.292 202.481 114.333C203.832 114.733 203.694 115.819 203.505 117.464C203.458 117.809 203.412 118.196 203.371 118.614C203.129 120.311 202.58 121.962 201.744 123.503C201.851 124.353 202.768 131.973 202.768 132.482C202.768 132.99 200.454 140.502 200.209 141.351C200.198 141.385 200.18 141.415 200.154 141.441C200.128 141.467 200.096 141.488 200.06 141.501L193.171 143.987C193.141 144 193.108 144.006 193.074 144.005ZM192.05 130.787C190.454 137.603 192.7 142.496 193.212 143.487L199.763 141.124C200.787 137.816 202.276 132.868 202.286 132.491C202.297 132.114 201.601 126.434 201.237 123.498C201.233 123.455 201.242 123.411 201.263 123.371C202.084 121.862 202.627 120.244 202.87 118.582C202.911 118.159 202.962 117.773 203.003 117.423C203.228 115.665 203.259 115.042 202.343 114.774C202.288 114.751 202.229 114.74 202.169 114.74C202.109 114.74 202.049 114.751 201.995 114.774C201.519 115.015 201.253 116.137 201.058 116.923C200.978 117.349 200.848 117.767 200.669 118.168C200.198 119.009 197.404 122.621 197.025 123.071C196.79 123.353 195.633 126.111 194.978 127.779C194.969 127.807 194.951 127.832 194.927 127.851L192.05 130.787Z" fill="#263238"/>
<path d="M196.345 127.093L199.032 123.566L202.998 119.422C202.998 119.422 204.4 115.692 204.984 116.001C205.567 116.31 206.151 117.45 205.45 119.213C204.801 120.651 204.02 122.038 203.116 123.362L200.081 129.578L199.149 131.132" fill="white"/>
<path d="M199.149 131.359C199.106 131.359 199.064 131.35 199.026 131.332C198.967 131.304 198.922 131.256 198.902 131.199C198.882 131.142 198.888 131.081 198.919 131.028L199.855 129.474L202.88 123.271C203.782 121.953 204.561 120.572 205.209 119.141C205.843 117.537 205.372 116.523 204.902 116.224C204.559 116.442 203.781 118.041 203.243 119.495C203.233 119.523 203.216 119.548 203.192 119.568L199.226 123.716L196.554 127.22C196.513 127.262 196.456 127.289 196.394 127.296C196.332 127.303 196.269 127.289 196.217 127.258C196.165 127.227 196.128 127.18 196.113 127.126C196.098 127.072 196.106 127.015 196.134 126.965L198.816 123.439L202.772 119.318C203.156 118.296 204.088 116.01 204.758 115.787C204.817 115.768 204.879 115.761 204.941 115.765C205.003 115.77 205.063 115.787 205.117 115.815C205.767 116.16 206.457 117.373 205.69 119.3C205.037 120.752 204.249 122.153 203.335 123.489L200.316 129.678L199.374 131.25C199.351 131.284 199.318 131.312 199.278 131.332C199.239 131.351 199.194 131.36 199.149 131.359Z" fill="#263238"/>
<path d="M198.576 129.892C198.576 129.892 200.444 126.257 200.68 125.639C200.915 125.021 203.013 123.258 203.597 122.222C204.18 121.186 205.465 121.286 205.465 122.426C205.477 123.486 205.154 124.528 204.534 125.434C203.95 126.261 202.548 128.956 202.548 128.956L200.444 134.345" fill="white"/>
<path d="M200.429 134.572C200.402 134.576 200.374 134.576 200.347 134.572C200.283 134.551 200.231 134.509 200.201 134.455C200.172 134.401 200.167 134.338 200.188 134.281L202.292 128.892C202.358 128.76 203.715 126.166 204.298 125.32C204.897 124.453 205.207 123.453 205.194 122.435C205.194 122.063 205.035 121.808 204.764 121.749C204.493 121.69 204.083 121.849 203.812 122.331C203.328 123.04 202.762 123.702 202.123 124.307C201.658 124.736 201.249 125.21 200.905 125.72C200.669 126.347 198.858 129.846 198.796 129.992C198.766 130.043 198.715 130.082 198.653 130.101C198.591 130.119 198.524 130.117 198.465 130.093C198.405 130.069 198.358 130.026 198.333 129.973C198.309 129.919 198.307 129.859 198.331 129.805C198.331 129.769 200.193 126.17 200.424 125.579C200.773 125.002 201.216 124.474 201.739 124.012C202.345 123.431 202.887 122.8 203.356 122.126C203.468 121.854 203.682 121.625 203.961 121.476C204.24 121.327 204.569 121.268 204.892 121.308C205.157 121.379 205.385 121.531 205.536 121.738C205.687 121.944 205.751 122.191 205.716 122.435C205.73 123.538 205.392 124.621 204.743 125.561C204.175 126.37 202.788 129.033 202.773 129.06L200.685 134.431C200.664 134.475 200.628 134.512 200.582 134.537C200.536 134.563 200.483 134.575 200.429 134.572Z" fill="#263238"/>
<path d="M199.963 133.209L203.351 127.715C203.351 127.715 205.567 125.443 205.803 125.952C205.998 126.267 206.11 126.617 206.131 126.976C206.151 127.335 206.079 127.693 205.92 128.024C205.297 128.902 204.594 129.734 203.817 130.51L201.012 137.248" fill="white"/>
<path d="M201.012 137.494H200.925C200.893 137.483 200.864 137.468 200.84 137.448C200.815 137.427 200.795 137.403 200.782 137.376C200.768 137.349 200.76 137.32 200.759 137.29C200.758 137.26 200.764 137.23 200.777 137.203L203.576 130.464C203.585 130.439 203.601 130.415 203.622 130.396C204.376 129.632 205.061 128.816 205.669 127.956C205.812 127.667 205.878 127.353 205.863 127.038C205.847 126.723 205.752 126.415 205.582 126.138C204.816 126.629 204.128 127.208 203.535 127.86L200.162 133.336C200.146 133.362 200.124 133.385 200.098 133.404C200.072 133.423 200.042 133.437 200.01 133.445C199.977 133.454 199.943 133.456 199.91 133.453C199.876 133.45 199.844 133.441 199.814 133.427C199.785 133.412 199.759 133.393 199.738 133.37C199.716 133.347 199.701 133.32 199.691 133.291C199.682 133.262 199.679 133.232 199.682 133.203C199.686 133.173 199.696 133.144 199.712 133.118L203.1 127.624L203.131 127.583C203.858 126.834 205.178 125.579 205.721 125.67C205.786 125.68 205.847 125.705 205.899 125.742C205.95 125.78 205.989 125.829 206.012 125.884C206.225 126.23 206.345 126.615 206.364 127.009C206.382 127.403 206.299 127.795 206.12 128.156C205.502 129.043 204.798 129.881 204.016 130.66L201.227 137.357C201.209 137.396 201.18 137.429 201.142 137.453C201.104 137.477 201.059 137.491 201.012 137.494Z" fill="#263238"/>
<path d="M200.316 135.799C200.316 135.799 204.748 131.032 204.984 131.55C205.337 132.385 205.337 133.305 204.984 134.14C204.486 134.938 203.942 135.713 203.356 136.462C203.356 136.462 202.65 139.32 202.297 140.152C201.944 140.983 199.845 141.515 199.262 141.706L196.345 142.533" fill="white"/>
<path d="M196.345 142.76C196.277 142.769 196.208 142.754 196.152 142.717C196.097 142.681 196.06 142.627 196.05 142.567C196.04 142.507 196.057 142.445 196.098 142.396C196.139 142.347 196.2 142.315 196.268 142.305L199.185 141.474L199.559 141.356C200.29 141.129 201.805 140.656 202.061 140.056C202.399 139.252 203.085 136.421 203.085 136.398C203.093 136.371 203.107 136.345 203.126 136.321C203.126 136.321 204.283 134.831 204.733 134.022C205.036 133.302 205.056 132.513 204.789 131.782C204.165 132.154 202.194 134.095 200.49 135.93C200.469 135.953 200.443 135.972 200.413 135.986C200.383 136 200.351 136.009 200.317 136.011C200.284 136.014 200.25 136.01 200.219 136.001C200.187 135.992 200.157 135.977 200.132 135.958C200.08 135.92 200.047 135.865 200.04 135.805C200.034 135.746 200.054 135.686 200.096 135.64C202.855 132.677 204.487 131.209 204.948 131.273C205.004 131.279 205.057 131.299 205.101 131.33C205.146 131.361 205.179 131.403 205.199 131.45C205.429 131.95 205.71 133.268 205.199 134.226C204.705 135.022 204.165 135.794 203.581 136.539C203.489 136.916 202.855 139.429 202.522 140.215C202.189 141.001 200.91 141.41 199.712 141.783L199.344 141.901L196.406 142.737C196.387 142.748 196.366 142.755 196.345 142.76Z" fill="#263238"/>
</svg>
