<svg width="177" height="39" viewBox="0 0 177 39" fill="none" xmlns="http://www.w3.org/2000/svg">
<g filter="url(#filter0_d_334_848)">
<path d="M5.65854 24.9024V26.122H4.43902V24.9024H5.65854ZM5.65854 23.6829V24.9024H4.43902V23.6829H5.65854ZM5.65854 22.4634V23.6829H4.43902V22.4634H5.65854ZM5.65854 21.2439V22.4634H4.43902V21.2439H5.65854ZM5.65854 20.0244V21.2439H4.43902V20.0244H5.65854ZM5.65854 18.8049V20.0244H4.43902V18.8049H5.65854ZM5.65854 17.5854V18.8049H4.43902V17.5854H5.65854ZM5.65854 16.3659V17.5854H4.43902V16.3659H5.65854ZM5.65854 15.1463V16.3659H4.43902V15.1463H5.65854ZM5.65854 13.9268V15.1463H4.43902V13.9268H5.65854ZM5.65854 12.7073V13.9268H4.43902V12.7073H5.65854ZM6.87805 12.7073V13.9268H5.65854V12.7073H6.87805ZM6.87805 13.9268V15.1463H5.65854V13.9268H6.87805ZM6.87805 15.1463V16.3659H5.65854V15.1463H6.87805ZM6.87805 16.3659V17.5854H5.65854V16.3659H6.87805ZM6.87805 17.5854V18.8049H5.65854V17.5854H6.87805ZM6.87805 18.8049V20.0244H5.65854V18.8049H6.87805ZM6.87805 20.0244V21.2439H5.65854V20.0244H6.87805ZM8.09756 21.2439V22.4634H6.87805V21.2439H8.09756ZM8.09756 22.4634V23.6829H6.87805V22.4634H8.09756ZM8.09756 23.6829V24.9024H6.87805V23.6829H8.09756ZM8.09756 24.9024V26.122H6.87805V24.9024H8.09756ZM8.09756 26.122V27.3415H6.87805V26.122H8.09756ZM8.09756 27.3415V28.561H6.87805V27.3415H8.09756ZM8.09756 28.561V29.7805H6.87805V28.561H8.09756ZM10.5366 29.7805V31H9.31707V29.7805H10.5366ZM10.5366 28.561V29.7805H9.31707V28.561H10.5366ZM10.5366 27.3415V28.561H9.31707V27.3415H10.5366ZM10.5366 26.122V27.3415H9.31707V26.122H10.5366ZM10.5366 24.9024V26.122H9.31707V24.9024H10.5366ZM10.5366 23.6829V24.9024H9.31707V23.6829H10.5366ZM10.5366 22.4634V23.6829H9.31707V22.4634H10.5366ZM10.5366 21.2439V22.4634H9.31707V21.2439H10.5366ZM9.31707 21.2439V22.4634H8.09756V21.2439H9.31707ZM9.31707 20.0244V21.2439H8.09756V20.0244H9.31707ZM9.31707 22.4634V23.6829H8.09756V22.4634H9.31707ZM9.31707 23.6829V24.9024H8.09756V23.6829H9.31707ZM9.31707 24.9024V26.122H8.09756V24.9024H9.31707ZM9.31707 26.122V27.3415H8.09756V26.122H9.31707ZM9.31707 27.3415V28.561H8.09756V27.3415H9.31707ZM9.31707 28.561V29.7805H8.09756V28.561H9.31707ZM6.87805 27.3415V28.561H5.65854V27.3415H6.87805ZM6.87805 26.122V27.3415H5.65854V26.122H6.87805ZM6.87805 24.9024V26.122H5.65854V24.9024H6.87805ZM6.87805 23.6829V24.9024H5.65854V23.6829H6.87805ZM6.87805 22.4634V23.6829H5.65854V22.4634H6.87805ZM6.87805 21.2439V22.4634H5.65854V21.2439H6.87805ZM5.65854 11.4878V12.7073H4.43902V11.4878H5.65854ZM9.31707 11.4878V12.7073H8.09756V11.4878H9.31707ZM9.31707 12.7073V13.9268H8.09756V12.7073H9.31707ZM9.31707 13.9268V15.1463H8.09756V13.9268H9.31707ZM9.31707 15.1463V16.3659H8.09756V15.1463H9.31707ZM9.31707 16.3659V17.5854H8.09756V16.3659H9.31707ZM10.5366 17.5854V18.8049H9.31707V17.5854H10.5366ZM10.5366 18.8049V20.0244H9.31707V18.8049H10.5366ZM10.5366 20.0244V21.2439H9.31707V20.0244H10.5366ZM10.5366 16.3659V17.5854H9.31707V16.3659H10.5366ZM10.5366 15.1463V16.3659H9.31707V15.1463H10.5366ZM10.5366 13.9268V15.1463H9.31707V13.9268H10.5366ZM10.5366 12.7073V13.9268H9.31707V12.7073H10.5366ZM10.5366 11.4878V12.7073H9.31707V11.4878H10.5366ZM6.87805 11.4878V12.7073H5.65854V11.4878H6.87805ZM8.09756 11.4878V12.7073H6.87805V11.4878H8.09756ZM8.09756 12.7073V13.9268H6.87805V12.7073H8.09756ZM8.09756 13.9268V15.1463H6.87805V13.9268H8.09756ZM8.09756 15.1463V16.3659H6.87805V15.1463H8.09756ZM8.09756 16.3659V17.5854H6.87805V16.3659H8.09756ZM8.09756 17.5854V18.8049H6.87805V17.5854H8.09756ZM8.09756 18.8049V20.0244H6.87805V18.8049H8.09756ZM8.09756 20.0244V21.2439H6.87805V20.0244H8.09756ZM9.31707 18.8049V20.0244H8.09756V18.8049H9.31707ZM9.31707 17.5854V18.8049H8.09756V17.5854H9.31707ZM20.2927 29.7805V31H19.0732V29.7805H20.2927ZM20.2927 28.561V29.7805H19.0732V28.561H20.2927ZM20.2927 27.3415V28.561H19.0732V27.3415H20.2927ZM20.2927 26.122V27.3415H19.0732V26.122H20.2927ZM20.2927 24.9024V26.122H19.0732V24.9024H20.2927ZM20.2927 23.6829V24.9024H19.0732V23.6829H20.2927ZM20.2927 22.4634V23.6829H19.0732V22.4634H20.2927ZM22.7317 22.4634V23.6829H21.5122V22.4634H22.7317ZM22.7317 23.6829V24.9024H21.5122V23.6829H22.7317ZM22.7317 24.9024V26.122H21.5122V24.9024H22.7317ZM22.7317 26.122V27.3415H21.5122V26.122H22.7317ZM22.7317 27.3415V28.561H21.5122V27.3415H22.7317ZM22.7317 28.561V29.7805H21.5122V28.561H22.7317ZM25.1707 24.9024V26.122H23.9512V24.9024H25.1707ZM25.1707 23.6829V24.9024H23.9512V23.6829H25.1707ZM25.1707 22.4634V23.6829H23.9512V22.4634H25.1707ZM23.9512 22.4634V23.6829H22.7317V22.4634H23.9512ZM23.9512 23.6829V24.9024H22.7317V23.6829H23.9512ZM23.9512 24.9024V26.122H22.7317V24.9024H23.9512ZM23.9512 26.122V27.3415H22.7317V26.122H23.9512ZM23.9512 27.3415V28.561H22.7317V27.3415H23.9512ZM21.5122 28.561V29.7805H20.2927V28.561H21.5122ZM21.5122 27.3415V28.561H20.2927V27.3415H21.5122ZM21.5122 26.122V27.3415H20.2927V26.122H21.5122ZM21.5122 24.9024V26.122H20.2927V24.9024H21.5122ZM21.5122 23.6829V24.9024H20.2927V23.6829H21.5122ZM21.5122 22.4634V23.6829H20.2927V22.4634H21.5122ZM11.7561 29.7805V31H10.5366V29.7805H11.7561ZM12.9756 29.7805V31H11.7561V29.7805H12.9756ZM14.1951 29.7805V31H12.9756V29.7805H14.1951ZM15.4146 29.7805V31H14.1951V29.7805H15.4146ZM16.6341 29.7805V31H15.4146V29.7805H16.6341ZM19.0732 29.7805V31H17.8537V29.7805H19.0732ZM19.0732 28.561V29.7805H17.8537V28.561H19.0732ZM16.6341 28.561V29.7805H15.4146V28.561H16.6341ZM15.4146 28.561V29.7805H14.1951V28.561H15.4146ZM14.1951 28.561V29.7805H12.9756V28.561H14.1951ZM12.9756 28.561V29.7805H11.7561V28.561H12.9756ZM11.7561 28.561V29.7805H10.5366V28.561H11.7561ZM11.7561 27.3415V28.561H10.5366V27.3415H11.7561ZM12.9756 27.3415V28.561H11.7561V27.3415H12.9756ZM14.1951 27.3415V28.561H12.9756V27.3415H14.1951ZM15.4146 27.3415V28.561H14.1951V27.3415H15.4146ZM16.6341 27.3415V28.561H15.4146V27.3415H16.6341ZM19.0732 27.3415V28.561H17.8537V27.3415H19.0732ZM19.0732 26.122V27.3415H17.8537V26.122H19.0732ZM16.6341 26.122V27.3415H15.4146V26.122H16.6341ZM15.4146 26.122V27.3415H14.1951V26.122H15.4146ZM14.1951 26.122V27.3415H12.9756V26.122H14.1951ZM12.9756 26.122V27.3415H11.7561V26.122H12.9756ZM11.7561 26.122V27.3415H10.5366V26.122H11.7561ZM11.7561 24.9024V26.122H10.5366V24.9024H11.7561ZM19.0732 24.9024V26.122H17.8537V24.9024H19.0732ZM23.9512 6.60976V5.39024H25.1707V6.60976H23.9512ZM23.9512 7.82927V6.60976H25.1707V7.82927H23.9512ZM23.9512 9.04878V7.82927H25.1707V9.04878H23.9512ZM21.5122 9.04878V7.82927H22.7317V9.04878H21.5122ZM21.5122 7.82927V6.60976H22.7317V7.82927H21.5122ZM21.5122 6.60976V5.39024H22.7317V6.60976H21.5122ZM21.5122 5.39024V4.17073H22.7317V5.39024H21.5122ZM21.5122 4.17073V2.95122H22.7317V4.17073H21.5122ZM21.5122 2.95122V1.73171H22.7317V2.95122H21.5122ZM19.0732 1.73171V0.512194H20.2927V1.73171H19.0732ZM19.0732 2.95122V1.73171H20.2927V2.95122H19.0732ZM19.0732 4.17073V2.95122H20.2927V4.17073H19.0732ZM19.0732 5.39024V4.17073H20.2927V5.39024H19.0732ZM19.0732 6.60976V5.39024H20.2927V6.60976H19.0732ZM19.0732 7.82927V6.60976H20.2927V7.82927H19.0732ZM19.0732 9.04878V7.82927H20.2927V9.04878H19.0732ZM20.2927 9.04878V7.82927H21.5122V9.04878H20.2927ZM20.2927 7.82927V6.60976H21.5122V7.82927H20.2927ZM20.2927 6.60976V5.39024H21.5122V6.60976H20.2927ZM20.2927 5.39024V4.17073H21.5122V5.39024H20.2927ZM20.2927 4.17073V2.95122H21.5122V4.17073H20.2927ZM20.2927 2.95122V1.73171H21.5122V2.95122H20.2927ZM22.7317 4.17073V2.95122H23.9512V4.17073H22.7317ZM22.7317 5.39024V4.17073H23.9512V5.39024H22.7317ZM22.7317 6.60976V5.39024H23.9512V6.60976H22.7317ZM22.7317 7.82927V6.60976H23.9512V7.82927H22.7317ZM22.7317 9.04878V7.82927H23.9512V9.04878H22.7317ZM9.31707 1.73171V0.512194H10.5366V1.73171H9.31707ZM9.31707 2.95122V1.73171H10.5366V2.95122H9.31707ZM9.31707 4.17073V2.95122H10.5366V4.17073H9.31707ZM9.31707 5.39024V4.17073H10.5366V5.39024H9.31707ZM9.31707 6.60976V5.39024H10.5366V6.60976H9.31707ZM9.31707 7.82927V6.60976H10.5366V7.82927H9.31707ZM9.31707 9.04878V7.82927H10.5366V9.04878H9.31707ZM6.87805 9.04878V7.82927H8.09756V9.04878H6.87805ZM6.87805 7.82927V6.60976H8.09756V7.82927H6.87805ZM6.87805 6.60976V5.39024H8.09756V6.60976H6.87805ZM6.87805 5.39024V4.17073H8.09756V5.39024H6.87805ZM6.87805 4.17073V2.95122H8.09756V4.17073H6.87805ZM6.87805 2.95122V1.73171H8.09756V2.95122H6.87805ZM4.43902 6.60976V5.39024H5.65854V6.60976H4.43902ZM4.43902 7.82927V6.60976H5.65854V7.82927H4.43902ZM4.43902 9.04878V7.82927H5.65854V9.04878H4.43902ZM5.65854 9.04878V7.82927H6.87805V9.04878H5.65854ZM5.65854 7.82927V6.60976H6.87805V7.82927H5.65854ZM5.65854 6.60976V5.39024H6.87805V6.60976H5.65854ZM5.65854 5.39024V4.17073H6.87805V5.39024H5.65854ZM5.65854 4.17073V2.95122H6.87805V4.17073H5.65854ZM8.09756 2.95122V1.73171H9.31707V2.95122H8.09756ZM8.09756 4.17073V2.95122H9.31707V4.17073H8.09756ZM8.09756 5.39024V4.17073H9.31707V5.39024H8.09756ZM8.09756 6.60976V5.39024H9.31707V6.60976H8.09756ZM8.09756 7.82927V6.60976H9.31707V7.82927H8.09756ZM8.09756 9.04878V7.82927H9.31707V9.04878H8.09756ZM17.8537 1.73171V0.512194H19.0732V1.73171H17.8537ZM15.4146 1.73171V0.512194H16.6341V1.73171H15.4146ZM14.1951 1.73171V0.512194H15.4146V1.73171H14.1951ZM12.9756 1.73171V0.512194H14.1951V1.73171H12.9756ZM11.7561 1.73171V0.512194H12.9756V1.73171H11.7561ZM10.5366 1.73171V0.512194H11.7561V1.73171H10.5366ZM10.5366 2.95122V1.73171H11.7561V2.95122H10.5366ZM11.7561 2.95122V1.73171H12.9756V2.95122H11.7561ZM12.9756 2.95122V1.73171H14.1951V2.95122H12.9756ZM14.1951 2.95122V1.73171H15.4146V2.95122H14.1951ZM15.4146 2.95122V1.73171H16.6341V2.95122H15.4146ZM17.8537 2.95122V1.73171H19.0732V2.95122H17.8537ZM17.8537 4.17073V2.95122H19.0732V4.17073H17.8537ZM15.4146 4.17073V2.95122H16.6341V4.17073H15.4146ZM14.1951 4.17073V2.95122H15.4146V4.17073H14.1951ZM12.9756 4.17073V2.95122H14.1951V4.17073H12.9756ZM11.7561 4.17073V2.95122H12.9756V4.17073H11.7561ZM10.5366 4.17073V2.95122H11.7561V4.17073H10.5366ZM10.5366 5.39024V4.17073H11.7561V5.39024H10.5366ZM11.7561 5.39024V4.17073H12.9756V5.39024H11.7561ZM12.9756 5.39024V4.17073H14.1951V5.39024H12.9756ZM14.1951 5.39024V4.17073H15.4146V5.39024H14.1951ZM15.4146 5.39024V4.17073H16.6341V5.39024H15.4146ZM17.8537 5.39024V4.17073H19.0732V5.39024H17.8537ZM17.8537 6.60976V5.39024H19.0732V6.60976H17.8537ZM10.5366 6.60976V5.39024H11.7561V6.60976H10.5366ZM5.65854 10.2683V11.4878H4.43902V10.2683H5.65854ZM6.87805 10.2683V11.4878H5.65854V10.2683H6.87805ZM5.65854 9.04878V10.2683H4.43902V9.04878H5.65854ZM9.31707 9.04878V10.2683H8.09756V9.04878H9.31707ZM9.31707 10.2683V11.4878H8.09756V10.2683H9.31707ZM10.5366 10.2683V11.4878H9.31707V10.2683H10.5366ZM10.5366 9.04878V10.2683H9.31707V9.04878H10.5366ZM6.87805 9.04878V10.2683H5.65854V9.04878H6.87805ZM8.09756 9.04878V10.2683H6.87805V9.04878H8.09756ZM8.09756 10.2683V11.4878H6.87805V10.2683H8.09756ZM12.9756 24.9024V26.122H11.7561V24.9024H12.9756ZM14.1951 24.9024V26.122H12.9756V24.9024H14.1951ZM15.4146 24.9024V26.122H14.1951V24.9024H15.4146ZM16.6341 24.9024V26.122H15.4146V24.9024H16.6341ZM19.0732 23.6829V24.9024H17.8537V23.6829H19.0732ZM11.7561 23.6829V24.9024H10.5366V23.6829H11.7561ZM20.2927 21.2439V22.4634H19.0732V21.2439H20.2927ZM21.5122 21.2439V22.4634H20.2927V21.2439H21.5122ZM22.7317 21.2439V22.4634H21.5122V21.2439H22.7317ZM23.9512 21.2439V22.4634H22.7317V21.2439H23.9512ZM25.1707 21.2439V22.4634H23.9512V21.2439H25.1707ZM11.7561 6.60976V7.82927H10.5366V6.60976H11.7561ZM12.9756 5.39024V6.60976H11.7561V5.39024H12.9756ZM14.1951 5.39024V6.60976H12.9756V5.39024H14.1951ZM15.4146 5.39024V6.60976H14.1951V5.39024H15.4146ZM16.6341 5.39024V6.60976H15.4146V5.39024H16.6341ZM19.0732 6.60976V7.82927H17.8537V6.60976H19.0732ZM20.2927 9.04878V10.2683H19.0732V9.04878H20.2927ZM21.5122 9.04878V10.2683H20.2927V9.04878H21.5122ZM22.7317 9.04878V10.2683H21.5122V9.04878H22.7317ZM23.9512 9.04878V10.2683H22.7317V9.04878H23.9512ZM25.1707 9.04878V10.2683H23.9512V9.04878H25.1707ZM17.8537 0.512194V1.73171H16.6341V0.512194H17.8537ZM17.8537 1.73171V2.95122H16.6341V1.73171H17.8537ZM17.8537 2.95122V4.17073H16.6341V2.95122H17.8537ZM17.8537 4.17073V5.39024H16.6341V4.17073H17.8537ZM17.8537 5.39024V6.60976H16.6341V5.39024H17.8537ZM17.8537 24.9024V26.122H16.6341V24.9024H17.8537ZM17.8537 26.122V27.3415H16.6341V26.122H17.8537ZM17.8537 27.3415V28.561H16.6341V27.3415H17.8537ZM17.8537 28.561V29.7805H16.6341V28.561H17.8537ZM17.8537 29.7805V31H16.6341V29.7805H17.8537ZM33.6835 23.6829V22.4634H34.903V23.6829H33.6835ZM32.464 23.6829V22.4634H33.6835V23.6829H32.464ZM31.2445 23.6829V22.4634H32.464V23.6829H31.2445ZM30.025 23.6829V22.4634H31.2445V23.6829H30.025ZM28.8054 23.6829V22.4634H30.025V23.6829H28.8054ZM28.8054 24.9024V23.6829H30.025V24.9024H28.8054ZM28.8054 26.122V24.9024H30.025V26.122H28.8054ZM30.025 26.122V24.9024H31.2445V26.122H30.025ZM31.2445 26.122V24.9024H32.464V26.122H31.2445ZM32.464 26.122V24.9024H33.6835V26.122H32.464ZM32.464 24.9024V23.6829H33.6835V24.9024H32.464ZM33.6835 24.9024V23.6829H34.903V24.9024H33.6835ZM31.2445 24.9024V23.6829H32.464V24.9024H31.2445ZM30.025 24.9024V23.6829H31.2445V24.9024H30.025ZM33.6835 26.122V24.9024H34.903V26.122H33.6835ZM34.903 26.122V24.9024H36.1225V26.122H34.903ZM34.903 27.3415V26.122H36.1225V27.3415H34.903ZM33.6835 27.3415V26.122H34.903V27.3415H33.6835ZM32.464 27.3415V26.122H33.6835V27.3415H32.464ZM31.2445 27.3415V26.122H32.464V27.3415H31.2445ZM30.025 27.3415V26.122H31.2445V27.3415H30.025ZM30.025 28.561V27.3415H31.2445V28.561H30.025ZM31.2445 28.561V27.3415H32.464V28.561H31.2445ZM32.464 28.561V27.3415H33.6835V28.561H32.464ZM33.6835 28.561V27.3415H34.903V28.561H33.6835ZM34.903 28.561V27.3415H36.1225V28.561H34.903ZM32.464 29.7805V28.561H33.6835V29.7805H32.464ZM31.2445 29.7805V28.561H32.464V29.7805H31.2445ZM33.6835 29.7805V28.561H34.903V29.7805H33.6835ZM33.6835 31V29.7805H34.903V31H33.6835ZM34.903 31V29.7805H36.1225V31H34.903ZM34.903 29.7805V28.561H36.1225V29.7805H34.903ZM36.1225 29.7805V28.561H37.342V29.7805H36.1225ZM36.1225 31V29.7805H37.342V31H36.1225ZM36.1225 28.561V27.3415H37.342V28.561H36.1225ZM37.342 28.561V27.3415H38.5615V28.561H37.342ZM37.342 27.3415V26.122H38.5615V27.3415H37.342ZM36.1225 27.3415V26.122H37.342V27.3415H36.1225ZM38.5615 27.3415V26.122H39.7811V27.3415H38.5615ZM38.5615 28.561V27.3415H39.7811V28.561H38.5615ZM38.5615 29.7805V28.561H39.7811V29.7805H38.5615ZM38.5615 31V29.7805H39.7811V31H38.5615ZM37.342 31V29.7805H38.5615V31H37.342ZM37.342 29.7805V28.561H38.5615V29.7805H37.342ZM39.7811 31V29.7805H41.0006V31H39.7811ZM42.2201 29.7805V28.561H43.4396V29.7805H42.2201ZM42.2201 28.561V27.3415H43.4396V28.561H42.2201ZM42.2201 27.3415V26.122H43.4396V27.3415H42.2201ZM41.0006 27.3415V26.122H42.2201V27.3415H41.0006ZM39.7811 27.3415V26.122H41.0006V27.3415H39.7811ZM39.7811 28.561V27.3415H41.0006V28.561H39.7811ZM39.7811 29.7805V28.561H41.0006V29.7805H39.7811ZM41.0006 29.7805V28.561H42.2201V29.7805H41.0006ZM41.0006 28.561V27.3415H42.2201V28.561H41.0006ZM43.4396 28.561V27.3415H44.6591V28.561H43.4396ZM43.4396 29.7805V28.561H44.6591V29.7805H43.4396ZM44.6591 29.7805V28.561H45.8786V29.7805H44.6591ZM44.6591 28.561V27.3415H45.8786V28.561H44.6591ZM45.8786 28.561V27.3415H47.0981V28.561H45.8786ZM45.8786 27.3415V26.122H47.0981V27.3415H45.8786ZM45.8786 26.122V24.9024H47.0981V26.122H45.8786ZM44.6591 26.122V24.9024H45.8786V26.122H44.6591ZM44.6591 27.3415V26.122H45.8786V27.3415H44.6591ZM43.4396 27.3415V26.122H44.6591V27.3415H43.4396ZM43.4396 26.122V24.9024H44.6591V26.122H43.4396ZM42.2201 26.122V24.9024H43.4396V26.122H42.2201ZM47.0981 26.122V24.9024H48.3176V26.122H47.0981ZM47.0981 24.9024V23.6829H48.3176V24.9024H47.0981ZM47.0981 23.6829V22.4634H48.3176V23.6829H47.0981ZM47.0981 22.4634V21.2439H48.3176V22.4634H47.0981ZM47.0981 21.2439V20.0244H48.3176V21.2439H47.0981ZM47.0981 20.0244V18.8049H48.3176V20.0244H47.0981ZM47.0981 18.8049V17.5854H48.3176V18.8049H47.0981ZM47.0981 17.5854V16.3659H48.3176V17.5854H47.0981ZM47.0981 16.3659V15.1463H48.3176V16.3659H47.0981ZM47.0981 15.1463V13.9268H48.3176V15.1463H47.0981ZM45.8786 15.1463V13.9268H47.0981V15.1463H45.8786ZM45.8786 13.9268V12.7073H47.0981V13.9268H45.8786ZM47.0981 13.9268V12.7073H48.3176V13.9268H47.0981ZM44.6591 13.9268V12.7073H45.8786V13.9268H44.6591ZM43.4396 13.9268V12.7073H44.6591V13.9268H43.4396ZM42.2201 13.9268V12.7073H43.4396V13.9268H42.2201ZM41.0006 13.9268V12.7073H42.2201V13.9268H41.0006ZM42.2201 15.1463V13.9268H43.4396V15.1463H42.2201ZM42.2201 16.3659V15.1463H43.4396V16.3659H42.2201ZM42.2201 17.5854V16.3659H43.4396V17.5854H42.2201ZM42.2201 18.8049V17.5854H43.4396V18.8049H42.2201ZM42.2201 20.0244V18.8049H43.4396V20.0244H42.2201ZM42.2201 21.2439V20.0244H43.4396V21.2439H42.2201ZM42.2201 22.4634V21.2439H43.4396V22.4634H42.2201ZM42.2201 23.6829V22.4634H43.4396V23.6829H42.2201ZM42.2201 24.9024V23.6829H43.4396V24.9024H42.2201ZM43.4396 24.9024V23.6829H44.6591V24.9024H43.4396ZM44.6591 24.9024V23.6829H45.8786V24.9024H44.6591ZM45.8786 24.9024V23.6829H47.0981V24.9024H45.8786ZM45.8786 23.6829V22.4634H47.0981V23.6829H45.8786ZM45.8786 22.4634V21.2439H47.0981V22.4634H45.8786ZM45.8786 21.2439V20.0244H47.0981V21.2439H45.8786ZM45.8786 20.0244V18.8049H47.0981V20.0244H45.8786ZM45.8786 18.8049V17.5854H47.0981V18.8049H45.8786ZM45.8786 17.5854V16.3659H47.0981V17.5854H45.8786ZM45.8786 16.3659V15.1463H47.0981V16.3659H45.8786ZM44.6591 15.1463V13.9268H45.8786V15.1463H44.6591ZM43.4396 15.1463V13.9268H44.6591V15.1463H43.4396ZM43.4396 16.3659V15.1463H44.6591V16.3659H43.4396ZM43.4396 17.5854V16.3659H44.6591V17.5854H43.4396ZM43.4396 18.8049V17.5854H44.6591V18.8049H43.4396ZM43.4396 20.0244V18.8049H44.6591V20.0244H43.4396ZM44.6591 20.0244V18.8049H45.8786V20.0244H44.6591ZM44.6591 21.2439V20.0244H45.8786V21.2439H44.6591ZM44.6591 22.4634V21.2439H45.8786V22.4634H44.6591ZM44.6591 23.6829V22.4634H45.8786V23.6829H44.6591ZM43.4396 23.6829V22.4634H44.6591V23.6829H43.4396ZM43.4396 22.4634V21.2439H44.6591V22.4634H43.4396ZM43.4396 21.2439V20.0244H44.6591V21.2439H43.4396ZM44.6591 17.5854V16.3659H45.8786V17.5854H44.6591ZM44.6591 16.3659V15.1463H45.8786V16.3659H44.6591ZM44.6591 18.8049V17.5854H45.8786V18.8049H44.6591ZM33.6835 15.1463V13.9268H34.903V15.1463H33.6835ZM32.464 15.1463V13.9268H33.6835V15.1463H32.464ZM31.2445 15.1463V13.9268H32.464V15.1463H31.2445ZM30.025 15.1463V13.9268H31.2445V15.1463H30.025ZM28.8054 15.1463V13.9268H30.025V15.1463H28.8054ZM28.8054 13.9268V12.7073H30.025V13.9268H28.8054ZM30.025 13.9268V12.7073H31.2445V13.9268H30.025ZM31.2445 13.9268V12.7073H32.464V13.9268H31.2445ZM32.464 13.9268V12.7073H33.6835V13.9268H32.464ZM33.6835 13.9268V12.7073H34.903V13.9268H33.6835ZM34.903 13.9268V12.7073H36.1225V13.9268H34.903ZM34.903 12.7073V11.4878H36.1225V12.7073H34.903ZM33.6835 12.7073V11.4878H34.903V12.7073H33.6835ZM32.464 12.7073V11.4878H33.6835V12.7073H32.464ZM31.2445 12.7073V11.4878H32.464V12.7073H31.2445ZM31.2445 11.4878V10.2683H32.464V11.4878H31.2445ZM30.025 11.4878V10.2683H31.2445V11.4878H30.025ZM30.025 12.7073V11.4878H31.2445V12.7073H30.025ZM31.2445 10.2683V9.04878H32.464V10.2683H31.2445ZM32.464 10.2683V9.04878H33.6835V10.2683H32.464ZM32.464 11.4878V10.2683H33.6835V11.4878H32.464ZM33.6835 11.4878V10.2683H34.903V11.4878H33.6835ZM33.6835 10.2683V9.04878H34.903V10.2683H33.6835ZM33.6835 9.04878V7.82927H34.903V9.04878H33.6835ZM34.903 9.04878V7.82927H36.1225V9.04878H34.903ZM36.1225 9.04878V7.82927H37.342V9.04878H36.1225ZM37.342 9.04878V7.82927H38.5615V9.04878H37.342ZM38.5615 9.04878V7.82927H39.7811V9.04878H38.5615ZM39.7811 9.04878V7.82927H41.0006V9.04878H39.7811ZM41.0006 9.04878V7.82927H42.2201V9.04878H41.0006ZM42.2201 9.04878V7.82927H43.4396V9.04878H42.2201ZM41.0006 10.2683V9.04878H42.2201V10.2683H41.0006ZM39.7811 10.2683V9.04878H41.0006V10.2683H39.7811ZM38.5615 10.2683V9.04878H39.7811V10.2683H38.5615ZM37.342 10.2683V9.04878H38.5615V10.2683H37.342ZM36.1225 10.2683V9.04878H37.342V10.2683H36.1225ZM34.903 10.2683V9.04878H36.1225V10.2683H34.903ZM34.903 11.4878V10.2683H36.1225V11.4878H34.903ZM36.1225 11.4878V10.2683H37.342V11.4878H36.1225ZM37.342 11.4878V10.2683H38.5615V11.4878H37.342ZM38.5615 11.4878V10.2683H39.7811V11.4878H38.5615ZM39.7811 11.4878V10.2683H41.0006V11.4878H39.7811ZM41.0006 11.4878V10.2683H42.2201V11.4878H41.0006ZM42.2201 10.2683V9.04878H43.4396V10.2683H42.2201ZM43.4396 10.2683V9.04878H44.6591V10.2683H43.4396ZM44.6591 10.2683V9.04878H45.8786V10.2683H44.6591ZM44.6591 11.4878V10.2683H45.8786V11.4878H44.6591ZM45.8786 11.4878V10.2683H47.0981V11.4878H45.8786ZM45.8786 12.7073V11.4878H47.0981V12.7073H45.8786ZM44.6591 12.7073V11.4878H45.8786V12.7073H44.6591ZM43.4396 12.7073V11.4878H44.6591V12.7073H43.4396ZM42.2201 12.7073V11.4878H43.4396V12.7073H42.2201ZM41.0006 12.7073V11.4878H42.2201V12.7073H41.0006ZM39.7811 12.7073V11.4878H41.0006V12.7073H39.7811ZM38.5615 12.7073V11.4878H39.7811V12.7073H38.5615ZM37.342 12.7073V11.4878H38.5615V12.7073H37.342ZM36.1225 12.7073V11.4878H37.342V12.7073H36.1225ZM42.2201 11.4878V10.2683H43.4396V11.4878H42.2201ZM43.4396 11.4878V10.2683H44.6591V11.4878H43.4396ZM30.025 22.4634V21.2439H31.2445V22.4634H30.025ZM31.2445 22.4634V21.2439H32.464V22.4634H31.2445ZM32.464 22.4634V21.2439H33.6835V22.4634H32.464ZM33.6835 22.4634V21.2439H34.903V22.4634H33.6835ZM31.2445 21.2439V20.0244H32.464V21.2439H31.2445ZM32.464 21.2439V20.0244H33.6835V21.2439H32.464ZM34.903 21.2439V20.0244H36.1225V21.2439H34.903ZM36.1225 21.2439V20.0244H37.342V21.2439H36.1225ZM37.342 21.2439V20.0244H38.5615V21.2439H37.342ZM38.5615 21.2439V20.0244H39.7811V21.2439H38.5615ZM39.7811 21.2439V20.0244H41.0006V21.2439H39.7811ZM41.0006 21.2439V20.0244H42.2201V21.2439H41.0006ZM33.6835 21.2439V20.0244H34.903V21.2439H33.6835ZM30.025 21.2439V20.0244H31.2445V21.2439H30.025ZM31.2445 20.0244V18.8049H32.464V20.0244H31.2445ZM32.464 20.0244V18.8049H33.6835V20.0244H32.464ZM33.6835 20.0244V18.8049H34.903V20.0244H33.6835ZM34.903 20.0244V18.8049H36.1225V20.0244H34.903ZM36.1225 20.0244V18.8049H37.342V20.0244H36.1225ZM37.342 20.0244V18.8049H38.5615V20.0244H37.342ZM38.5615 20.0244V18.8049H39.7811V20.0244H38.5615ZM39.7811 20.0244V18.8049H41.0006V20.0244H39.7811ZM41.0006 20.0244V18.8049H42.2201V20.0244H41.0006ZM41.0006 18.8049V17.5854H42.2201V18.8049H41.0006ZM39.7811 18.8049V17.5854H41.0006V18.8049H39.7811ZM38.5615 18.8049V17.5854H39.7811V18.8049H38.5615ZM36.1225 18.8049V17.5854H37.342V18.8049H36.1225ZM34.903 18.8049V17.5854H36.1225V18.8049H34.903ZM33.6835 18.8049V17.5854H34.903V18.8049H33.6835ZM37.342 18.8049V17.5854H38.5615V18.8049H37.342ZM48.3176 26.122V27.3415H47.0981V26.122H48.3176ZM48.3176 27.3415V28.561H47.0981V27.3415H48.3176ZM48.3176 28.561V29.7805H47.0981V28.561H48.3176ZM48.3176 29.7805V31H47.0981V29.7805H48.3176ZM47.0981 29.7805V31H45.8786V29.7805H47.0981ZM47.0981 28.561V29.7805H45.8786V28.561H47.0981ZM45.8786 29.7805V31H44.6591V29.7805H45.8786ZM44.6591 29.7805V31H43.4396V29.7805H44.6591ZM43.4396 29.7805V31H42.2201V29.7805H43.4396ZM42.2201 24.9024V26.122H41.0006V24.9024H42.2201ZM33.6835 29.7805V31H32.464V29.7805H33.6835ZM36.1225 21.2439V22.4634H34.903V21.2439H36.1225ZM54.4378 29.7805V31H53.2183V29.7805H54.4378ZM54.4378 28.561V29.7805H53.2183V28.561H54.4378ZM54.4378 27.3415V28.561H53.2183V27.3415H54.4378ZM54.4378 26.122V27.3415H53.2183V26.122H54.4378ZM54.4378 24.9024V26.122H53.2183V24.9024H54.4378ZM54.4378 23.6829V24.9024H53.2183V23.6829H54.4378ZM54.4378 22.4634V23.6829H53.2183V22.4634H54.4378ZM54.4378 21.2439V22.4634H53.2183V21.2439H54.4378ZM54.4378 20.0244V21.2439H53.2183V20.0244H54.4378ZM54.4378 18.8049V20.0244H53.2183V18.8049H54.4378ZM54.4378 17.5854V18.8049H53.2183V17.5854H54.4378ZM54.4378 16.3659V17.5854H53.2183V16.3659H54.4378ZM54.4378 15.1463V16.3659H53.2183V15.1463H54.4378ZM54.4378 13.9268V15.1463H53.2183V13.9268H54.4378ZM54.4378 12.7073V13.9268H53.2183V12.7073H54.4378ZM55.6573 12.7073V13.9268H54.4378V12.7073H55.6573ZM55.6573 13.9268V15.1463H54.4378V13.9268H55.6573ZM55.6573 15.1463V16.3659H54.4378V15.1463H55.6573ZM55.6573 16.3659V17.5854H54.4378V16.3659H55.6573ZM55.6573 17.5854V18.8049H54.4378V17.5854H55.6573ZM55.6573 18.8049V20.0244H54.4378V18.8049H55.6573ZM55.6573 20.0244V21.2439H54.4378V20.0244H55.6573ZM56.8769 21.2439V22.4634H55.6573V21.2439H56.8769ZM56.8769 22.4634V23.6829H55.6573V22.4634H56.8769ZM56.8769 23.6829V24.9024H55.6573V23.6829H56.8769ZM56.8769 24.9024V26.122H55.6573V24.9024H56.8769ZM56.8769 26.122V27.3415H55.6573V26.122H56.8769ZM56.8769 27.3415V28.561H55.6573V27.3415H56.8769ZM56.8769 28.561V29.7805H55.6573V28.561H56.8769ZM56.8769 29.7805V31H55.6573V29.7805H56.8769ZM58.0964 29.7805V31H56.8769V29.7805H58.0964ZM59.3159 29.7805V31H58.0964V29.7805H59.3159ZM59.3159 28.561V29.7805H58.0964V28.561H59.3159ZM59.3159 27.3415V28.561H58.0964V27.3415H59.3159ZM59.3159 26.122V27.3415H58.0964V26.122H59.3159ZM59.3159 24.9024V26.122H58.0964V24.9024H59.3159ZM59.3159 23.6829V24.9024H58.0964V23.6829H59.3159ZM59.3159 22.4634V23.6829H58.0964V22.4634H59.3159ZM59.3159 21.2439V22.4634H58.0964V21.2439H59.3159ZM58.0964 21.2439V22.4634H56.8769V21.2439H58.0964ZM58.0964 20.0244V21.2439H56.8769V20.0244H58.0964ZM58.0964 22.4634V23.6829H56.8769V22.4634H58.0964ZM58.0964 23.6829V24.9024H56.8769V23.6829H58.0964ZM58.0964 24.9024V26.122H56.8769V24.9024H58.0964ZM58.0964 26.122V27.3415H56.8769V26.122H58.0964ZM58.0964 27.3415V28.561H56.8769V27.3415H58.0964ZM58.0964 28.561V29.7805H56.8769V28.561H58.0964ZM55.6573 29.7805V31H54.4378V29.7805H55.6573ZM55.6573 28.561V29.7805H54.4378V28.561H55.6573ZM55.6573 27.3415V28.561H54.4378V27.3415H55.6573ZM55.6573 26.122V27.3415H54.4378V26.122H55.6573ZM55.6573 24.9024V26.122H54.4378V24.9024H55.6573ZM55.6573 23.6829V24.9024H54.4378V23.6829H55.6573ZM55.6573 22.4634V23.6829H54.4378V22.4634H55.6573ZM55.6573 21.2439V22.4634H54.4378V21.2439H55.6573ZM54.4378 7.82927V9.04878H53.2183V7.82927H54.4378ZM54.4378 9.04878V10.2683H53.2183V9.04878H54.4378ZM54.4378 10.2683V11.4878H53.2183V10.2683H54.4378ZM54.4378 11.4878V12.7073H53.2183V11.4878H54.4378ZM58.0964 9.04878V10.2683H56.8769V9.04878H58.0964ZM58.0964 10.2683V11.4878H56.8769V10.2683H58.0964ZM58.0964 11.4878V12.7073H56.8769V11.4878H58.0964ZM58.0964 12.7073V13.9268H56.8769V12.7073H58.0964ZM58.0964 13.9268V15.1463H56.8769V13.9268H58.0964ZM58.0964 15.1463V16.3659H56.8769V15.1463H58.0964ZM58.0964 16.3659V17.5854H56.8769V16.3659H58.0964ZM59.3159 17.5854V18.8049H58.0964V17.5854H59.3159ZM59.3159 18.8049V20.0244H58.0964V18.8049H59.3159ZM59.3159 20.0244V21.2439H58.0964V20.0244H59.3159ZM59.3159 16.3659V17.5854H58.0964V16.3659H59.3159ZM59.3159 15.1463V16.3659H58.0964V15.1463H59.3159ZM59.3159 13.9268V15.1463H58.0964V13.9268H59.3159ZM59.3159 12.7073V13.9268H58.0964V12.7073H59.3159ZM59.3159 11.4878V12.7073H58.0964V11.4878H59.3159ZM59.3159 10.2683V11.4878H58.0964V10.2683H59.3159ZM59.3159 9.04878V10.2683H58.0964V9.04878H59.3159ZM59.3159 7.82927V9.04878H58.0964V7.82927H59.3159ZM58.0964 7.82927V9.04878H56.8769V7.82927H58.0964ZM56.8769 7.82927V9.04878H55.6573V7.82927H56.8769ZM56.8769 9.04878V10.2683H55.6573V9.04878H56.8769ZM55.6573 10.2683V11.4878H54.4378V10.2683H55.6573ZM55.6573 11.4878V12.7073H54.4378V11.4878H55.6573ZM55.6573 9.04878V10.2683H54.4378V9.04878H55.6573ZM55.6573 7.82927V9.04878H54.4378V7.82927H55.6573ZM56.8769 10.2683V11.4878H55.6573V10.2683H56.8769ZM56.8769 11.4878V12.7073H55.6573V11.4878H56.8769ZM56.8769 12.7073V13.9268H55.6573V12.7073H56.8769ZM56.8769 13.9268V15.1463H55.6573V13.9268H56.8769ZM56.8769 15.1463V16.3659H55.6573V15.1463H56.8769ZM56.8769 16.3659V17.5854H55.6573V16.3659H56.8769ZM56.8769 17.5854V18.8049H55.6573V17.5854H56.8769ZM56.8769 18.8049V20.0244H55.6573V18.8049H56.8769ZM56.8769 20.0244V21.2439H55.6573V20.0244H56.8769ZM58.0964 18.8049V20.0244H56.8769V18.8049H58.0964ZM58.0964 17.5854V18.8049H56.8769V17.5854H58.0964ZM67.8525 12.7073V13.9268H66.633V12.7073H67.8525ZM67.8525 7.82927V9.04878H66.633V7.82927H67.8525ZM67.8525 9.04878V10.2683H66.633V9.04878H67.8525ZM69.072 9.04878V10.2683H67.8525V9.04878H69.072ZM70.2915 10.2683V11.4878H69.072V10.2683H70.2915ZM69.072 11.4878V12.7073H67.8525V11.4878H69.072ZM69.072 10.2683V11.4878H67.8525V10.2683H69.072ZM67.8525 10.2683V11.4878H66.633V10.2683H67.8525ZM66.633 10.2683V11.4878H65.4134V10.2683H66.633ZM66.633 11.4878V12.7073H65.4134V11.4878H66.633ZM67.8525 11.4878V12.7073H66.633V11.4878H67.8525ZM66.633 12.7073V13.9268H65.4134V12.7073H66.633ZM65.4134 11.4878V12.7073H64.1939V11.4878H65.4134ZM65.4134 10.2683V11.4878H64.1939V10.2683H65.4134ZM65.4134 9.04878V10.2683H64.1939V9.04878H65.4134ZM65.4134 7.82927V9.04878H64.1939V7.82927H65.4134ZM66.633 7.82927V9.04878H65.4134V7.82927H66.633ZM66.633 9.04878V10.2683H65.4134V9.04878H66.633ZM64.1939 7.82927V9.04878H62.9744V7.82927H64.1939ZM64.1939 9.04878V10.2683H62.9744V9.04878H64.1939ZM64.1939 10.2683V11.4878H62.9744V10.2683H64.1939ZM64.1939 11.4878V12.7073H62.9744V11.4878H64.1939ZM62.9744 7.82927V9.04878H61.7549V7.82927H62.9744ZM62.9744 9.04878V10.2683H61.7549V9.04878H62.9744ZM61.7549 9.04878V10.2683H60.5354V9.04878H61.7549ZM61.7549 10.2683V11.4878H60.5354V10.2683H61.7549ZM60.5354 10.2683V11.4878H59.3159V10.2683H60.5354ZM60.5354 11.4878V12.7073H59.3159V11.4878H60.5354ZM61.7549 11.4878V12.7073H60.5354V11.4878H61.7549ZM62.9744 11.4878V12.7073H61.7549V11.4878H62.9744ZM62.9744 10.2683V11.4878H61.7549V10.2683H62.9744ZM60.5354 12.7073V13.9268H59.3159V12.7073H60.5354ZM61.7549 7.82927V9.04878H60.5354V7.82927H61.7549ZM60.5354 9.04878V10.2683H59.3159V9.04878H60.5354ZM65.4134 12.7073V13.9268H64.1939V12.7073H65.4134ZM66.633 13.9268V15.1463H65.4134V13.9268H66.633Z" fill="black"/>
<path d="M73.9691 1.73171H72.7496V0.512194H73.9691V1.73171ZM73.9691 2.95122H72.7496V1.73171H73.9691V2.95122ZM73.9691 4.17073H72.7496V2.95122H73.9691V4.17073ZM73.9691 5.39024H72.7496V4.17073H73.9691V5.39024ZM73.9691 6.60976H72.7496V5.39024H73.9691V6.60976ZM73.9691 7.82927H72.7496V6.60976H73.9691V7.82927ZM73.9691 9.04878H72.7496V7.82927H73.9691V9.04878ZM73.9691 10.2683H72.7496V9.04878H73.9691V10.2683ZM73.9691 11.4878H72.7496V10.2683H73.9691V11.4878ZM73.9691 12.7073H72.7496V11.4878H73.9691V12.7073ZM73.9691 13.9268H72.7496V12.7073H73.9691V13.9268ZM73.9691 15.1463H72.7496V13.9268H73.9691V15.1463ZM73.9691 16.3659H72.7496V15.1463H73.9691V16.3659ZM73.9691 17.5854H72.7496V16.3659H73.9691V17.5854ZM73.9691 18.8049H72.7496V17.5854H73.9691V18.8049ZM75.1886 18.8049H73.9691V17.5854H75.1886V18.8049ZM75.1886 17.5854H73.9691V16.3659H75.1886V17.5854ZM75.1886 16.3659H73.9691V15.1463H75.1886V16.3659ZM75.1886 15.1463H73.9691V13.9268H75.1886V15.1463ZM75.1886 13.9268H73.9691V12.7073H75.1886V13.9268ZM75.1886 12.7073H73.9691V11.4878H75.1886V12.7073ZM75.1886 11.4878H73.9691V10.2683H75.1886V11.4878ZM76.4081 10.2683H75.1886V9.04878H76.4081V10.2683ZM76.4081 9.04878H75.1886V7.82927H76.4081V9.04878ZM76.4081 7.82927H75.1886V6.60976H76.4081V7.82927ZM76.4081 6.60976H75.1886V5.39024H76.4081V6.60976ZM76.4081 5.39024H75.1886V4.17073H76.4081V5.39024ZM76.4081 4.17073H75.1886V2.95122H76.4081V4.17073ZM76.4081 2.95122H75.1886V1.73171H76.4081V2.95122ZM76.4081 1.73171H75.1886V0.512194H76.4081V1.73171ZM77.6276 1.73171H76.4081V0.512194H77.6276V1.73171ZM78.8471 1.73171H77.6276V0.512194H78.8471V1.73171ZM78.8471 2.95122H77.6276V1.73171H78.8471V2.95122ZM78.8471 4.17073H77.6276V2.95122H78.8471V4.17073ZM78.8471 5.39024H77.6276V4.17073H78.8471V5.39024ZM78.8471 6.60976H77.6276V5.39024H78.8471V6.60976ZM78.8471 7.82927H77.6276V6.60976H78.8471V7.82927ZM78.8471 9.04878H77.6276V7.82927H78.8471V9.04878ZM78.8471 10.2683H77.6276V9.04878H78.8471V10.2683ZM77.6276 10.2683H76.4081V9.04878H77.6276V10.2683ZM77.6276 11.4878H76.4081V10.2683H77.6276V11.4878ZM77.6276 9.04878H76.4081V7.82927H77.6276V9.04878ZM77.6276 7.82927H76.4081V6.60976H77.6276V7.82927ZM77.6276 6.60976H76.4081V5.39024H77.6276V6.60976ZM77.6276 5.39024H76.4081V4.17073H77.6276V5.39024ZM77.6276 4.17073H76.4081V2.95122H77.6276V4.17073ZM77.6276 2.95122H76.4081V1.73171H77.6276V2.95122ZM75.1886 1.73171H73.9691V0.512194H75.1886V1.73171ZM75.1886 2.95122H73.9691V1.73171H75.1886V2.95122ZM75.1886 4.17073H73.9691V2.95122H75.1886V4.17073ZM75.1886 5.39024H73.9691V4.17073H75.1886V5.39024ZM75.1886 6.60976H73.9691V5.39024H75.1886V6.60976ZM75.1886 7.82927H73.9691V6.60976H75.1886V7.82927ZM75.1886 9.04878H73.9691V7.82927H75.1886V9.04878ZM75.1886 10.2683H73.9691V9.04878H75.1886V10.2683ZM73.9691 22.4634H72.7496V21.2439H73.9691V22.4634ZM73.9691 21.2439H72.7496V20.0244H73.9691V21.2439ZM73.9691 20.0244H72.7496V18.8049H73.9691V20.0244ZM77.6276 24.9024H76.4081V23.6829H77.6276V24.9024ZM77.6276 22.4634H76.4081V21.2439H77.6276V22.4634ZM77.6276 21.2439H76.4081V20.0244H77.6276V21.2439ZM77.6276 20.0244H76.4081V18.8049H77.6276V20.0244ZM77.6276 18.8049H76.4081V17.5854H77.6276V18.8049ZM77.6276 17.5854H76.4081V16.3659H77.6276V17.5854ZM77.6276 16.3659H76.4081V15.1463H77.6276V16.3659ZM77.6276 15.1463H76.4081V13.9268H77.6276V15.1463ZM78.8471 13.9268H77.6276V12.7073H78.8471V13.9268ZM78.8471 12.7073H77.6276V11.4878H78.8471V12.7073ZM78.8471 11.4878H77.6276V10.2683H78.8471V11.4878ZM78.8471 15.1463H77.6276V13.9268H78.8471V15.1463ZM78.8471 16.3659H77.6276V15.1463H78.8471V16.3659ZM78.8471 17.5854H77.6276V16.3659H78.8471V17.5854ZM78.8471 18.8049H77.6276V17.5854H78.8471V18.8049ZM78.8471 20.0244H77.6276V18.8049H78.8471V20.0244ZM78.8471 21.2439H77.6276V20.0244H78.8471V21.2439ZM78.8471 22.4634H77.6276V21.2439H78.8471V22.4634ZM78.8471 23.6829H77.6276V22.4634H78.8471V23.6829ZM78.8471 24.9024H77.6276V23.6829H78.8471V24.9024ZM78.8471 26.122H77.6276V24.9024H78.8471V26.122ZM77.6276 23.6829H76.4081V22.4634H77.6276V23.6829ZM78.8471 27.3415H77.6276V26.122H78.8471V27.3415ZM78.8471 28.561H77.6276V27.3415H78.8471V28.561ZM76.4081 24.9024H75.1886V23.6829H76.4081V24.9024ZM76.4081 23.6829H75.1886V22.4634H76.4081V23.6829ZM76.4081 22.4634H75.1886V21.2439H76.4081V22.4634ZM75.1886 21.2439H73.9691V20.0244H75.1886V21.2439ZM75.1886 20.0244H73.9691V18.8049H75.1886V20.0244ZM75.1886 22.4634H73.9691V21.2439H75.1886V22.4634ZM75.1886 23.6829H73.9691V22.4634H75.1886V23.6829ZM76.4081 21.2439H75.1886V20.0244H76.4081V21.2439ZM76.4081 20.0244H75.1886V18.8049H76.4081V20.0244ZM76.4081 18.8049H75.1886V17.5854H76.4081V18.8049ZM76.4081 17.5854H75.1886V16.3659H76.4081V17.5854ZM76.4081 16.3659H75.1886V15.1463H76.4081V16.3659ZM76.4081 15.1463H75.1886V13.9268H76.4081V15.1463ZM76.4081 13.9268H75.1886V12.7073H76.4081V13.9268ZM76.4081 12.7073H75.1886V11.4878H76.4081V12.7073ZM76.4081 11.4878H75.1886V10.2683H76.4081V11.4878ZM77.6276 12.7073H76.4081V11.4878H77.6276V12.7073ZM77.6276 13.9268H76.4081V12.7073H77.6276V13.9268ZM86.1642 28.561H84.9447V27.3415H86.1642V28.561ZM86.1642 27.3415H84.9447V26.122H86.1642V27.3415ZM86.1642 26.122H84.9447V24.9024H86.1642V26.122ZM86.1642 24.9024H84.9447V23.6829H86.1642V24.9024ZM87.3837 26.122H86.1642V24.9024H87.3837V26.122ZM87.3837 27.3415H86.1642V26.122H87.3837V27.3415ZM81.2862 31H80.0666V29.7805H81.2862V31ZM82.5057 31H81.2862V29.7805H82.5057V31ZM83.7252 31H82.5057V29.7805H83.7252V31ZM84.9447 29.7805H83.7252V28.561H84.9447V29.7805ZM83.7252 29.7805H82.5057V28.561H83.7252V29.7805ZM82.5057 29.7805H81.2862V28.561H82.5057V29.7805ZM81.2862 29.7805H80.0666V28.561H81.2862V29.7805ZM80.0666 29.7805H78.8471V28.561H80.0666V29.7805ZM80.0666 28.561H78.8471V27.3415H80.0666V28.561ZM80.0666 27.3415H78.8471V26.122H80.0666V27.3415ZM81.2862 28.561H80.0666V27.3415H81.2862V28.561ZM82.5057 28.561H81.2862V27.3415H82.5057V28.561ZM83.7252 28.561H82.5057V27.3415H83.7252V28.561ZM84.9447 28.561H83.7252V27.3415H84.9447V28.561ZM84.9447 27.3415H83.7252V26.122H84.9447V27.3415ZM83.7252 27.3415H82.5057V26.122H83.7252V27.3415ZM82.5057 27.3415H81.2862V26.122H82.5057V27.3415ZM81.2862 27.3415H80.0666V26.122H81.2862V27.3415ZM80.0666 26.122H78.8471V24.9024H80.0666V26.122ZM81.2862 26.122H80.0666V24.9024H81.2862V26.122ZM84.9447 26.122H83.7252V24.9024H84.9447V26.122ZM83.7252 26.122H82.5057V24.9024H83.7252V26.122ZM84.9447 24.9024H83.7252V23.6829H84.9447V24.9024ZM80.0666 24.9024H78.8471V23.6829H80.0666V24.9024ZM77.6276 27.3415H76.4081V26.122H77.6276V27.3415ZM77.6276 26.122H76.4081V24.9024H77.6276V26.122ZM76.4081 26.122H75.1886V24.9024H76.4081V26.122ZM75.1886 24.9024H73.9691V23.6829H75.1886V24.9024ZM73.9691 23.6829H72.7496V22.4634H73.9691V23.6829ZM80.0666 23.6829H78.8471V22.4634H80.0666V23.6829ZM81.2862 24.9024H80.0666V23.6829H81.2862V24.9024ZM82.5057 26.122H81.2862V24.9024H82.5057V26.122ZM83.7252 24.9024H82.5057V23.6829H83.7252V24.9024ZM84.9447 23.6829H83.7252V22.4634H84.9447V23.6829ZM82.5057 24.9024H81.2862V23.6829H82.5057V24.9024ZM81.2862 23.6829H80.0666V22.4634H81.2862V23.6829ZM80.0666 22.4634H78.8471V21.2439H80.0666V22.4634ZM83.7252 23.6829H82.5057V22.4634H83.7252V23.6829ZM84.9447 22.4634H83.7252V21.2439H84.9447V22.4634ZM86.1642 1.73171H84.9447V0.512194H86.1642V1.73171ZM86.1642 2.95122H84.9447V1.73171H86.1642V2.95122ZM86.1642 4.17073H84.9447V2.95122H86.1642V4.17073ZM86.1642 5.39024H84.9447V4.17073H86.1642V5.39024ZM86.1642 6.60976H84.9447V5.39024H86.1642V6.60976ZM86.1642 9.04878H84.9447V7.82927H86.1642V9.04878ZM86.1642 10.2683H84.9447V9.04878H86.1642V10.2683ZM86.1642 11.4878H84.9447V10.2683H86.1642V11.4878ZM86.1642 12.7073H84.9447V11.4878H86.1642V12.7073ZM86.1642 13.9268H84.9447V12.7073H86.1642V13.9268ZM86.1642 15.1463H84.9447V13.9268H86.1642V15.1463ZM86.1642 16.3659H84.9447V15.1463H86.1642V16.3659ZM86.1642 17.5854H84.9447V16.3659H86.1642V17.5854ZM86.1642 18.8049H84.9447V17.5854H86.1642V18.8049ZM87.3837 18.8049H86.1642V17.5854H87.3837V18.8049ZM87.3837 17.5854H86.1642V16.3659H87.3837V17.5854ZM87.3837 16.3659H86.1642V15.1463H87.3837V16.3659ZM87.3837 13.9268H86.1642V12.7073H87.3837V13.9268ZM87.3837 12.7073H86.1642V11.4878H87.3837V12.7073ZM87.3837 11.4878H86.1642V10.2683H87.3837V11.4878ZM88.6032 9.04878H87.3837V7.82927H88.6032V9.04878ZM88.6032 7.82927H87.3837V6.60976H88.6032V7.82927ZM88.6032 6.60976H87.3837V5.39024H88.6032V6.60976ZM88.6032 5.39024H87.3837V4.17073H88.6032V5.39024ZM88.6032 4.17073H87.3837V2.95122H88.6032V4.17073ZM88.6032 2.95122H87.3837V1.73171H88.6032V2.95122ZM88.6032 1.73171H87.3837V0.512194H88.6032V1.73171ZM91.0423 1.73171H89.8227V0.512194H91.0423V1.73171ZM91.0423 2.95122H89.8227V1.73171H91.0423V2.95122ZM91.0423 4.17073H89.8227V2.95122H91.0423V4.17073ZM91.0423 6.60976H89.8227V5.39024H91.0423V6.60976ZM91.0423 7.82927H89.8227V6.60976H91.0423V7.82927ZM91.0423 10.2683H89.8227V9.04878H91.0423V10.2683ZM89.8227 10.2683H88.6032V9.04878H89.8227V10.2683ZM89.8227 11.4878H88.6032V10.2683H89.8227V11.4878ZM89.8227 9.04878H88.6032V7.82927H89.8227V9.04878ZM89.8227 7.82927H88.6032V6.60976H89.8227V7.82927ZM89.8227 6.60976H88.6032V5.39024H89.8227V6.60976ZM89.8227 5.39024H88.6032V4.17073H89.8227V5.39024ZM89.8227 4.17073H88.6032V2.95122H89.8227V4.17073ZM89.8227 2.95122H88.6032V1.73171H89.8227V2.95122ZM87.3837 1.73171H86.1642V0.512194H87.3837V1.73171ZM87.3837 4.17073H86.1642V2.95122H87.3837V4.17073ZM87.3837 5.39024H86.1642V4.17073H87.3837V5.39024ZM87.3837 6.60976H86.1642V5.39024H87.3837V6.60976ZM87.3837 7.82927H86.1642V6.60976H87.3837V7.82927ZM87.3837 9.04878H86.1642V7.82927H87.3837V9.04878ZM86.1642 22.4634H84.9447V21.2439H86.1642V22.4634ZM86.1642 20.0244H84.9447V18.8049H86.1642V20.0244ZM89.8227 24.9024H88.6032V23.6829H89.8227V24.9024ZM89.8227 22.4634H88.6032V21.2439H89.8227V22.4634ZM89.8227 21.2439H88.6032V20.0244H89.8227V21.2439ZM89.8227 20.0244H88.6032V18.8049H89.8227V20.0244ZM89.8227 18.8049H88.6032V17.5854H89.8227V18.8049ZM89.8227 17.5854H88.6032V16.3659H89.8227V17.5854ZM89.8227 16.3659H88.6032V15.1463H89.8227V16.3659ZM89.8227 15.1463H88.6032V13.9268H89.8227V15.1463ZM91.0423 13.9268H89.8227V12.7073H91.0423V13.9268ZM91.0423 12.7073H89.8227V11.4878H91.0423V12.7073ZM91.0423 11.4878H89.8227V10.2683H91.0423V11.4878ZM91.0423 15.1463H89.8227V13.9268H91.0423V15.1463ZM91.0423 16.3659H89.8227V15.1463H91.0423V16.3659ZM91.0423 17.5854H89.8227V16.3659H91.0423V17.5854ZM91.0423 18.8049H89.8227V17.5854H91.0423V18.8049ZM91.0423 20.0244H89.8227V18.8049H91.0423V20.0244ZM91.0423 21.2439H89.8227V20.0244H91.0423V21.2439ZM91.0423 22.4634H89.8227V21.2439H91.0423V22.4634ZM91.0423 23.6829H89.8227V22.4634H91.0423V23.6829ZM91.0423 24.9024H89.8227V23.6829H91.0423V24.9024ZM91.0423 26.122H89.8227V24.9024H91.0423V26.122ZM89.8227 23.6829H88.6032V22.4634H89.8227V23.6829ZM91.0423 27.3415H89.8227V26.122H91.0423V27.3415ZM91.0423 28.561H89.8227V27.3415H91.0423V28.561ZM88.6032 24.9024H87.3837V23.6829H88.6032V24.9024ZM88.6032 23.6829H87.3837V22.4634H88.6032V23.6829ZM88.6032 22.4634H87.3837V21.2439H88.6032V22.4634ZM87.3837 21.2439H86.1642V20.0244H87.3837V21.2439ZM87.3837 20.0244H86.1642V18.8049H87.3837V20.0244ZM87.3837 22.4634H86.1642V21.2439H87.3837V22.4634ZM87.3837 23.6829H86.1642V22.4634H87.3837V23.6829ZM88.6032 21.2439H87.3837V20.0244H88.6032V21.2439ZM88.6032 20.0244H87.3837V18.8049H88.6032V20.0244ZM88.6032 16.3659H87.3837V15.1463H88.6032V16.3659ZM88.6032 15.1463H87.3837V13.9268H88.6032V15.1463ZM88.6032 13.9268H87.3837V12.7073H88.6032V13.9268ZM88.6032 12.7073H87.3837V11.4878H88.6032V12.7073ZM88.6032 11.4878H87.3837V10.2683H88.6032V11.4878ZM89.8227 12.7073H88.6032V11.4878H89.8227V12.7073ZM89.8227 13.9268H88.6032V12.7073H89.8227V13.9268ZM98.3593 1.73171H97.1398V0.512194H98.3593V1.73171ZM98.3593 2.95122H97.1398V1.73171H98.3593V2.95122ZM98.3593 4.17073H97.1398V2.95122H98.3593V4.17073ZM98.3593 5.39024H97.1398V4.17073H98.3593V5.39024ZM98.3593 6.60976H97.1398V5.39024H98.3593V6.60976ZM98.3593 7.82927H97.1398V6.60976H98.3593V7.82927ZM98.3593 9.04878H97.1398V7.82927H98.3593V9.04878ZM98.3593 10.2683H97.1398V9.04878H98.3593V10.2683ZM98.3593 11.4878H97.1398V10.2683H98.3593V11.4878ZM98.3593 12.7073H97.1398V11.4878H98.3593V12.7073ZM98.3593 13.9268H97.1398V12.7073H98.3593V13.9268ZM98.3593 15.1463H97.1398V13.9268H98.3593V15.1463ZM98.3593 16.3659H97.1398V15.1463H98.3593V16.3659ZM98.3593 17.5854H97.1398V16.3659H98.3593V17.5854ZM98.3593 18.8049H97.1398V17.5854H98.3593V18.8049ZM99.5788 18.8049H98.3593V17.5854H99.5788V18.8049ZM99.5788 17.5854H98.3593V16.3659H99.5788V17.5854ZM99.5788 16.3659H98.3593V15.1463H99.5788V16.3659ZM99.5788 15.1463H98.3593V13.9268H99.5788V15.1463ZM99.5788 13.9268H98.3593V12.7073H99.5788V13.9268ZM99.5788 12.7073H98.3593V11.4878H99.5788V12.7073ZM99.5788 11.4878H98.3593V10.2683H99.5788V11.4878ZM100.798 10.2683H99.5788V9.04878H100.798V10.2683ZM100.798 9.04878H99.5788V7.82927H100.798V9.04878ZM100.798 7.82927H99.5788V6.60976H100.798V7.82927ZM100.798 6.60976H99.5788V5.39024H100.798V6.60976ZM100.798 5.39024H99.5788V4.17073H100.798V5.39024ZM100.798 4.17073H99.5788V2.95122H100.798V4.17073ZM100.798 2.95122H99.5788V1.73171H100.798V2.95122ZM100.798 1.73171H99.5788V0.512194H100.798V1.73171ZM102.018 1.73171H100.798V0.512194H102.018V1.73171ZM103.237 1.73171H102.018V0.512194H103.237V1.73171ZM103.237 2.95122H102.018V1.73171H103.237V2.95122ZM103.237 4.17073H102.018V2.95122H103.237V4.17073ZM103.237 5.39024H102.018V4.17073H103.237V5.39024ZM103.237 6.60976H102.018V5.39024H103.237V6.60976ZM103.237 7.82927H102.018V6.60976H103.237V7.82927ZM103.237 9.04878H102.018V7.82927H103.237V9.04878ZM103.237 10.2683H102.018V9.04878H103.237V10.2683ZM102.018 10.2683H100.798V9.04878H102.018V10.2683ZM102.018 11.4878H100.798V10.2683H102.018V11.4878ZM102.018 9.04878H100.798V7.82927H102.018V9.04878ZM102.018 7.82927H100.798V6.60976H102.018V7.82927ZM102.018 6.60976H100.798V5.39024H102.018V6.60976ZM102.018 5.39024H100.798V4.17073H102.018V5.39024ZM102.018 4.17073H100.798V2.95122H102.018V4.17073ZM102.018 2.95122H100.798V1.73171H102.018V2.95122ZM99.5788 1.73171H98.3593V0.512194H99.5788V1.73171ZM99.5788 2.95122H98.3593V1.73171H99.5788V2.95122ZM99.5788 4.17073H98.3593V2.95122H99.5788V4.17073ZM99.5788 5.39024H98.3593V4.17073H99.5788V5.39024ZM99.5788 6.60976H98.3593V5.39024H99.5788V6.60976ZM99.5788 7.82927H98.3593V6.60976H99.5788V7.82927ZM99.5788 9.04878H98.3593V7.82927H99.5788V9.04878ZM99.5788 10.2683H98.3593V9.04878H99.5788V10.2683ZM98.3593 28.561H97.1398V27.3415H98.3593V28.561ZM98.3593 27.3415H97.1398V26.122H98.3593V27.3415ZM98.3593 26.122H97.1398V24.9024H98.3593V26.122ZM98.3593 24.9024H97.1398V23.6829H98.3593V24.9024ZM98.3593 23.6829H97.1398V22.4634H98.3593V23.6829ZM98.3593 22.4634H97.1398V21.2439H98.3593V22.4634ZM98.3593 21.2439H97.1398V20.0244H98.3593V21.2439ZM98.3593 20.0244H97.1398V18.8049H98.3593V20.0244ZM102.018 24.9024H100.798V23.6829H102.018V24.9024ZM102.018 22.4634H100.798V21.2439H102.018V22.4634ZM102.018 21.2439H100.798V20.0244H102.018V21.2439ZM102.018 20.0244H100.798V18.8049H102.018V20.0244ZM102.018 18.8049H100.798V17.5854H102.018V18.8049ZM102.018 17.5854H100.798V16.3659H102.018V17.5854ZM102.018 16.3659H100.798V15.1463H102.018V16.3659ZM102.018 15.1463H100.798V13.9268H102.018V15.1463ZM103.237 13.9268H102.018V12.7073H103.237V13.9268ZM103.237 12.7073H102.018V11.4878H103.237V12.7073ZM103.237 11.4878H102.018V10.2683H103.237V11.4878ZM103.237 15.1463H102.018V13.9268H103.237V15.1463ZM103.237 16.3659H102.018V15.1463H103.237V16.3659ZM103.237 17.5854H102.018V16.3659H103.237V17.5854ZM103.237 18.8049H102.018V17.5854H103.237V18.8049ZM103.237 20.0244H102.018V18.8049H103.237V20.0244ZM103.237 21.2439H102.018V20.0244H103.237V21.2439ZM103.237 22.4634H102.018V21.2439H103.237V22.4634ZM103.237 23.6829H102.018V22.4634H103.237V23.6829ZM102.018 23.6829H100.798V22.4634H102.018V23.6829ZM100.798 26.122H99.5788V24.9024H100.798V26.122ZM100.798 24.9024H99.5788V23.6829H100.798V24.9024ZM100.798 23.6829H99.5788V22.4634H100.798V23.6829ZM100.798 22.4634H99.5788V21.2439H100.798V22.4634ZM99.5788 21.2439H98.3593V20.0244H99.5788V21.2439ZM99.5788 20.0244H98.3593V18.8049H99.5788V20.0244ZM99.5788 22.4634H98.3593V21.2439H99.5788V22.4634ZM99.5788 23.6829H98.3593V22.4634H99.5788V23.6829ZM99.5788 24.9024H98.3593V23.6829H99.5788V24.9024ZM99.5788 26.122H98.3593V24.9024H99.5788V26.122ZM99.5788 27.3415H98.3593V26.122H99.5788V27.3415ZM100.798 21.2439H99.5788V20.0244H100.798V21.2439ZM100.798 20.0244H99.5788V18.8049H100.798V20.0244ZM100.798 18.8049H99.5788V17.5854H100.798V18.8049ZM100.798 17.5854H99.5788V16.3659H100.798V17.5854ZM100.798 16.3659H99.5788V15.1463H100.798V16.3659ZM100.798 15.1463H99.5788V13.9268H100.798V15.1463ZM100.798 13.9268H99.5788V12.7073H100.798V13.9268ZM100.798 12.7073H99.5788V11.4878H100.798V12.7073ZM100.798 11.4878H99.5788V10.2683H100.798V11.4878ZM102.018 12.7073H100.798V11.4878H102.018V12.7073ZM102.018 13.9268H100.798V12.7073H102.018V13.9268ZM93.4813 31H92.2618V29.7805H93.4813V31ZM94.7008 31H93.4813V29.7805H94.7008V31ZM95.9203 31H94.7008V29.7805H95.9203V31ZM97.1398 29.7805H95.9203V28.561H97.1398V29.7805ZM95.9203 29.7805H94.7008V28.561H95.9203V29.7805ZM94.7008 29.7805H93.4813V28.561H94.7008V29.7805ZM93.4813 29.7805H92.2618V28.561H93.4813V29.7805ZM92.2618 29.7805H91.0423V28.561H92.2618V29.7805ZM92.2618 28.561H91.0423V27.3415H92.2618V28.561ZM92.2618 27.3415H91.0423V26.122H92.2618V27.3415ZM93.4813 28.561H92.2618V27.3415H93.4813V28.561ZM94.7008 28.561H93.4813V27.3415H94.7008V28.561ZM95.9203 28.561H94.7008V27.3415H95.9203V28.561ZM97.1398 28.561H95.9203V27.3415H97.1398V28.561ZM97.1398 27.3415H95.9203V26.122H97.1398V27.3415ZM95.9203 27.3415H94.7008V26.122H95.9203V27.3415ZM94.7008 27.3415H93.4813V26.122H94.7008V27.3415ZM93.4813 27.3415H92.2618V26.122H93.4813V27.3415ZM92.2618 26.122H91.0423V24.9024H92.2618V26.122ZM93.4813 26.122H92.2618V24.9024H93.4813V26.122ZM97.1398 26.122H95.9203V24.9024H97.1398V26.122ZM95.9203 26.122H94.7008V24.9024H95.9203V26.122ZM97.1398 24.9024H95.9203V23.6829H97.1398V24.9024ZM92.2618 24.9024H91.0423V23.6829H92.2618V24.9024ZM89.8227 27.3415H88.6032V26.122H89.8227V27.3415ZM89.8227 26.122H88.6032V24.9024H89.8227V26.122ZM88.6032 26.122H87.3837V24.9024H88.6032V26.122ZM87.3837 24.9024H86.1642V23.6829H87.3837V24.9024ZM86.1642 23.6829H84.9447V22.4634H86.1642V23.6829ZM92.2618 23.6829H91.0423V22.4634H92.2618V23.6829ZM93.4813 24.9024H92.2618V23.6829H93.4813V24.9024ZM94.7008 26.122H93.4813V24.9024H94.7008V26.122ZM95.9203 24.9024H94.7008V23.6829H95.9203V24.9024ZM97.1398 23.6829H95.9203V22.4634H97.1398V23.6829ZM94.7008 24.9024H93.4813V23.6829H94.7008V24.9024ZM93.4813 23.6829H92.2618V22.4634H93.4813V23.6829ZM92.2618 22.4634H91.0423V21.2439H92.2618V22.4634ZM95.9203 23.6829H94.7008V22.4634H95.9203V23.6829ZM97.1398 22.4634H95.9203V21.2439H97.1398V22.4634ZM86.1642 20.0244V21.2439H84.9447V20.0244H86.1642ZM88.6032 17.5854V18.8049H87.3837V17.5854H88.6032ZM88.6032 16.3659V17.5854H87.3837V16.3659H88.6032ZM87.3837 13.9268V15.1463H86.1642V13.9268H87.3837ZM89.8227 0.512194V1.73171H88.6032V0.512194H89.8227ZM87.3837 1.73171V2.95122H86.1642V1.73171H87.3837ZM91.0423 4.17073V5.39024H89.8227V4.17073H91.0423ZM86.1642 6.60976V7.82927H84.9447V6.60976H86.1642ZM91.0423 7.82927V9.04878H89.8227V7.82927H91.0423ZM88.6032 9.04878V10.2683H87.3837V9.04878H88.6032ZM87.3837 9.04878V10.2683H86.1642V9.04878H87.3837ZM111.76 23.6829V22.4634H112.979V23.6829H111.76ZM110.54 23.6829V22.4634H111.76V23.6829H110.54ZM109.321 23.6829V22.4634H110.54V23.6829H109.321ZM108.101 23.6829V22.4634H109.321V23.6829H108.101ZM106.882 23.6829V22.4634H108.101V23.6829H106.882ZM106.882 24.9024V23.6829H108.101V24.9024H106.882ZM106.882 26.122V24.9024H108.101V26.122H106.882ZM108.101 26.122V24.9024H109.321V26.122H108.101ZM109.321 26.122V24.9024H110.54V26.122H109.321ZM110.54 26.122V24.9024H111.76V26.122H110.54ZM110.54 24.9024V23.6829H111.76V24.9024H110.54ZM111.76 24.9024V23.6829H112.979V24.9024H111.76ZM109.321 24.9024V23.6829H110.54V24.9024H109.321ZM108.101 24.9024V23.6829H109.321V24.9024H108.101ZM111.76 26.122V24.9024H112.979V26.122H111.76ZM112.979 26.122V24.9024H114.199V26.122H112.979ZM112.979 27.3415V26.122H114.199V27.3415H112.979ZM111.76 27.3415V26.122H112.979V27.3415H111.76ZM110.54 27.3415V26.122H111.76V27.3415H110.54ZM109.321 27.3415V26.122H110.54V27.3415H109.321ZM108.101 27.3415V26.122H109.321V27.3415H108.101ZM108.101 28.561V27.3415H109.321V28.561H108.101ZM109.321 28.561V27.3415H110.54V28.561H109.321ZM110.54 28.561V27.3415H111.76V28.561H110.54ZM111.76 28.561V27.3415H112.979V28.561H111.76ZM112.979 28.561V27.3415H114.199V28.561H112.979ZM110.54 29.7805V28.561H111.76V29.7805H110.54ZM109.321 29.7805V28.561H110.54V29.7805H109.321ZM111.76 29.7805V28.561H112.979V29.7805H111.76ZM111.76 31V29.7805H112.979V31H111.76ZM112.979 31V29.7805H114.199V31H112.979ZM112.979 29.7805V28.561H114.199V29.7805H112.979ZM114.199 29.7805V28.561H115.418V29.7805H114.199ZM114.199 31V29.7805H115.418V31H114.199ZM114.199 28.561V27.3415H115.418V28.561H114.199ZM115.418 28.561V27.3415H116.638V28.561H115.418ZM115.418 27.3415V26.122H116.638V27.3415H115.418ZM114.199 27.3415V26.122H115.418V27.3415H114.199ZM116.638 27.3415V26.122H117.857V27.3415H116.638ZM116.638 28.561V27.3415H117.857V28.561H116.638ZM116.638 29.7805V28.561H117.857V29.7805H116.638ZM116.638 31V29.7805H117.857V31H116.638ZM115.418 31V29.7805H116.638V31H115.418ZM115.418 29.7805V28.561H116.638V29.7805H115.418ZM117.857 31V29.7805H119.077V31H117.857ZM120.296 29.7805V28.561H121.516V29.7805H120.296ZM120.296 28.561V27.3415H121.516V28.561H120.296ZM120.296 27.3415V26.122H121.516V27.3415H120.296ZM119.077 27.3415V26.122H120.296V27.3415H119.077ZM117.857 27.3415V26.122H119.077V27.3415H117.857ZM117.857 28.561V27.3415H119.077V28.561H117.857ZM117.857 29.7805V28.561H119.077V29.7805H117.857ZM119.077 29.7805V28.561H120.296V29.7805H119.077ZM119.077 28.561V27.3415H120.296V28.561H119.077ZM121.516 28.561V27.3415H122.735V28.561H121.516ZM121.516 29.7805V28.561H122.735V29.7805H121.516ZM122.735 29.7805V28.561H123.955V29.7805H122.735ZM122.735 28.561V27.3415H123.955V28.561H122.735ZM123.955 28.561V27.3415H125.174V28.561H123.955ZM123.955 27.3415V26.122H125.174V27.3415H123.955ZM123.955 26.122V24.9024H125.174V26.122H123.955ZM122.735 26.122V24.9024H123.955V26.122H122.735ZM122.735 27.3415V26.122H123.955V27.3415H122.735ZM121.516 27.3415V26.122H122.735V27.3415H121.516ZM121.516 26.122V24.9024H122.735V26.122H121.516ZM120.296 26.122V24.9024H121.516V26.122H120.296ZM125.174 26.122V24.9024H126.394V26.122H125.174ZM125.174 24.9024V23.6829H126.394V24.9024H125.174ZM125.174 23.6829V22.4634H126.394V23.6829H125.174ZM125.174 22.4634V21.2439H126.394V22.4634H125.174ZM125.174 21.2439V20.0244H126.394V21.2439H125.174ZM125.174 20.0244V18.8049H126.394V20.0244H125.174ZM125.174 18.8049V17.5854H126.394V18.8049H125.174ZM125.174 17.5854V16.3659H126.394V17.5854H125.174ZM125.174 16.3659V15.1463H126.394V16.3659H125.174ZM125.174 15.1463V13.9268H126.394V15.1463H125.174ZM123.955 15.1463V13.9268H125.174V15.1463H123.955ZM123.955 13.9268V12.7073H125.174V13.9268H123.955ZM125.174 13.9268V12.7073H126.394V13.9268H125.174ZM122.735 13.9268V12.7073H123.955V13.9268H122.735ZM121.516 13.9268V12.7073H122.735V13.9268H121.516ZM120.296 13.9268V12.7073H121.516V13.9268H120.296ZM119.077 13.9268V12.7073H120.296V13.9268H119.077ZM120.296 15.1463V13.9268H121.516V15.1463H120.296ZM120.296 16.3659V15.1463H121.516V16.3659H120.296ZM120.296 17.5854V16.3659H121.516V17.5854H120.296ZM120.296 18.8049V17.5854H121.516V18.8049H120.296ZM120.296 20.0244V18.8049H121.516V20.0244H120.296ZM120.296 21.2439V20.0244H121.516V21.2439H120.296ZM120.296 22.4634V21.2439H121.516V22.4634H120.296ZM120.296 23.6829V22.4634H121.516V23.6829H120.296ZM120.296 24.9024V23.6829H121.516V24.9024H120.296ZM121.516 24.9024V23.6829H122.735V24.9024H121.516ZM122.735 24.9024V23.6829H123.955V24.9024H122.735ZM123.955 24.9024V23.6829H125.174V24.9024H123.955ZM123.955 23.6829V22.4634H125.174V23.6829H123.955ZM123.955 22.4634V21.2439H125.174V22.4634H123.955ZM123.955 21.2439V20.0244H125.174V21.2439H123.955ZM123.955 20.0244V18.8049H125.174V20.0244H123.955ZM123.955 18.8049V17.5854H125.174V18.8049H123.955ZM123.955 17.5854V16.3659H125.174V17.5854H123.955ZM123.955 16.3659V15.1463H125.174V16.3659H123.955ZM122.735 15.1463V13.9268H123.955V15.1463H122.735ZM121.516 15.1463V13.9268H122.735V15.1463H121.516ZM121.516 16.3659V15.1463H122.735V16.3659H121.516ZM121.516 17.5854V16.3659H122.735V17.5854H121.516ZM121.516 18.8049V17.5854H122.735V18.8049H121.516ZM121.516 20.0244V18.8049H122.735V20.0244H121.516ZM122.735 20.0244V18.8049H123.955V20.0244H122.735ZM122.735 21.2439V20.0244H123.955V21.2439H122.735ZM122.735 22.4634V21.2439H123.955V22.4634H122.735ZM122.735 23.6829V22.4634H123.955V23.6829H122.735ZM121.516 23.6829V22.4634H122.735V23.6829H121.516ZM121.516 22.4634V21.2439H122.735V22.4634H121.516ZM121.516 21.2439V20.0244H122.735V21.2439H121.516ZM122.735 17.5854V16.3659H123.955V17.5854H122.735ZM122.735 16.3659V15.1463H123.955V16.3659H122.735ZM122.735 18.8049V17.5854H123.955V18.8049H122.735ZM111.76 15.1463V13.9268H112.979V15.1463H111.76ZM110.54 15.1463V13.9268H111.76V15.1463H110.54ZM109.321 15.1463V13.9268H110.54V15.1463H109.321ZM108.101 15.1463V13.9268H109.321V15.1463H108.101ZM106.882 15.1463V13.9268H108.101V15.1463H106.882ZM106.882 13.9268V12.7073H108.101V13.9268H106.882ZM108.101 13.9268V12.7073H109.321V13.9268H108.101ZM109.321 13.9268V12.7073H110.54V13.9268H109.321ZM110.54 13.9268V12.7073H111.76V13.9268H110.54ZM111.76 13.9268V12.7073H112.979V13.9268H111.76ZM112.979 13.9268V12.7073H114.199V13.9268H112.979ZM112.979 12.7073V11.4878H114.199V12.7073H112.979ZM111.76 12.7073V11.4878H112.979V12.7073H111.76ZM110.54 12.7073V11.4878H111.76V12.7073H110.54ZM109.321 12.7073V11.4878H110.54V12.7073H109.321ZM109.321 11.4878V10.2683H110.54V11.4878H109.321ZM108.101 11.4878V10.2683H109.321V11.4878H108.101ZM108.101 12.7073V11.4878H109.321V12.7073H108.101ZM109.321 10.2683V9.04878H110.54V10.2683H109.321ZM110.54 10.2683V9.04878H111.76V10.2683H110.54ZM110.54 11.4878V10.2683H111.76V11.4878H110.54ZM111.76 11.4878V10.2683H112.979V11.4878H111.76ZM111.76 10.2683V9.04878H112.979V10.2683H111.76ZM111.76 9.04878V7.82927H112.979V9.04878H111.76ZM112.979 9.04878V7.82927H114.199V9.04878H112.979ZM114.199 9.04878V7.82927H115.418V9.04878H114.199ZM115.418 9.04878V7.82927H116.638V9.04878H115.418ZM116.638 9.04878V7.82927H117.857V9.04878H116.638ZM117.857 9.04878V7.82927H119.077V9.04878H117.857ZM119.077 9.04878V7.82927H120.296V9.04878H119.077ZM120.296 9.04878V7.82927H121.516V9.04878H120.296ZM119.077 10.2683V9.04878H120.296V10.2683H119.077ZM117.857 10.2683V9.04878H119.077V10.2683H117.857ZM116.638 10.2683V9.04878H117.857V10.2683H116.638ZM115.418 10.2683V9.04878H116.638V10.2683H115.418ZM114.199 10.2683V9.04878H115.418V10.2683H114.199ZM112.979 10.2683V9.04878H114.199V10.2683H112.979ZM112.979 11.4878V10.2683H114.199V11.4878H112.979ZM114.199 11.4878V10.2683H115.418V11.4878H114.199ZM115.418 11.4878V10.2683H116.638V11.4878H115.418ZM116.638 11.4878V10.2683H117.857V11.4878H116.638ZM117.857 11.4878V10.2683H119.077V11.4878H117.857ZM119.077 11.4878V10.2683H120.296V11.4878H119.077ZM120.296 10.2683V9.04878H121.516V10.2683H120.296ZM121.516 10.2683V9.04878H122.735V10.2683H121.516ZM122.735 10.2683V9.04878H123.955V10.2683H122.735ZM122.735 11.4878V10.2683H123.955V11.4878H122.735ZM123.955 11.4878V10.2683H125.174V11.4878H123.955ZM123.955 12.7073V11.4878H125.174V12.7073H123.955ZM122.735 12.7073V11.4878H123.955V12.7073H122.735ZM121.516 12.7073V11.4878H122.735V12.7073H121.516ZM120.296 12.7073V11.4878H121.516V12.7073H120.296ZM119.077 12.7073V11.4878H120.296V12.7073H119.077ZM117.857 12.7073V11.4878H119.077V12.7073H117.857ZM116.638 12.7073V11.4878H117.857V12.7073H116.638ZM115.418 12.7073V11.4878H116.638V12.7073H115.418ZM114.199 12.7073V11.4878H115.418V12.7073H114.199ZM120.296 11.4878V10.2683H121.516V11.4878H120.296ZM121.516 11.4878V10.2683H122.735V11.4878H121.516ZM108.101 22.4634V21.2439H109.321V22.4634H108.101ZM109.321 22.4634V21.2439H110.54V22.4634H109.321ZM110.54 22.4634V21.2439H111.76V22.4634H110.54ZM111.76 22.4634V21.2439H112.979V22.4634H111.76ZM109.321 21.2439V20.0244H110.54V21.2439H109.321ZM110.54 21.2439V20.0244H111.76V21.2439H110.54ZM112.979 21.2439V20.0244H114.199V21.2439H112.979ZM114.199 21.2439V20.0244H115.418V21.2439H114.199ZM115.418 21.2439V20.0244H116.638V21.2439H115.418ZM116.638 21.2439V20.0244H117.857V21.2439H116.638ZM117.857 21.2439V20.0244H119.077V21.2439H117.857ZM119.077 21.2439V20.0244H120.296V21.2439H119.077ZM111.76 21.2439V20.0244H112.979V21.2439H111.76ZM108.101 21.2439V20.0244H109.321V21.2439H108.101ZM109.321 20.0244V18.8049H110.54V20.0244H109.321ZM110.54 20.0244V18.8049H111.76V20.0244H110.54ZM111.76 20.0244V18.8049H112.979V20.0244H111.76ZM112.979 20.0244V18.8049H114.199V20.0244H112.979ZM114.199 20.0244V18.8049H115.418V20.0244H114.199ZM115.418 20.0244V18.8049H116.638V20.0244H115.418ZM116.638 20.0244V18.8049H117.857V20.0244H116.638ZM117.857 20.0244V18.8049H119.077V20.0244H117.857ZM119.077 20.0244V18.8049H120.296V20.0244H119.077ZM119.077 18.8049V17.5854H120.296V18.8049H119.077ZM117.857 18.8049V17.5854H119.077V18.8049H117.857ZM116.638 18.8049V17.5854H117.857V18.8049H116.638ZM114.199 18.8049V17.5854H115.418V18.8049H114.199ZM112.979 18.8049V17.5854H114.199V18.8049H112.979ZM111.76 18.8049V17.5854H112.979V18.8049H111.76ZM115.418 18.8049V17.5854H116.638V18.8049H115.418ZM126.394 26.122V27.3415H125.174V26.122H126.394ZM126.394 27.3415V28.561H125.174V27.3415H126.394ZM126.394 28.561V29.7805H125.174V28.561H126.394ZM126.394 29.7805V31H125.174V29.7805H126.394ZM125.174 29.7805V31H123.955V29.7805H125.174ZM125.174 28.561V29.7805H123.955V28.561H125.174ZM123.955 29.7805V31H122.735V29.7805H123.955ZM122.735 29.7805V31H121.516V29.7805H122.735ZM121.516 29.7805V31H120.296V29.7805H121.516ZM120.296 24.9024V26.122H119.077V24.9024H120.296ZM111.76 29.7805V31H110.54V29.7805H111.76ZM114.199 21.2439V22.4634H112.979V21.2439H114.199ZM148.368 12.7073V13.9268H147.148V12.7073H148.368ZM147.148 12.7073V13.9268H145.929V12.7073H147.148ZM145.929 12.7073V13.9268H144.709V12.7073H145.929ZM144.709 12.7073V13.9268H143.49V12.7073H144.709ZM143.49 11.4878V12.7073H142.27V11.4878H143.49ZM144.709 11.4878V12.7073H143.49V11.4878H144.709ZM145.929 11.4878V12.7073H144.709V11.4878H145.929ZM147.148 11.4878V12.7073H145.929V11.4878H147.148ZM148.368 11.4878V12.7073H147.148V11.4878H148.368ZM148.368 10.2683V11.4878H147.148V10.2683H148.368ZM147.148 10.2683V11.4878H145.929V10.2683H147.148ZM145.929 10.2683V11.4878H144.709V10.2683H145.929ZM144.709 10.2683V11.4878H143.49V10.2683H144.709ZM143.49 10.2683V11.4878H142.27V10.2683H143.49ZM145.929 9.04878V10.2683H144.709V9.04878H145.929ZM147.148 9.04878V10.2683H145.929V9.04878H147.148ZM144.709 9.04878V10.2683H143.49V9.04878H144.709ZM144.709 7.82927V9.04878H143.49V7.82927H144.709ZM143.49 7.82927V9.04878H142.27V7.82927H143.49ZM143.49 9.04878V10.2683H142.27V9.04878H143.49ZM142.27 9.04878V10.2683H141.051V9.04878H142.27ZM142.27 7.82927V9.04878H141.051V7.82927H142.27ZM142.27 10.2683V11.4878H141.051V10.2683H142.27ZM141.051 10.2683V11.4878H139.831V10.2683H141.051ZM141.051 11.4878V12.7073H139.831V11.4878H141.051ZM142.27 11.4878V12.7073H141.051V11.4878H142.27ZM139.831 11.4878V12.7073H138.612V11.4878H139.831ZM139.831 10.2683V11.4878H138.612V10.2683H139.831ZM139.831 9.04878V10.2683H138.612V9.04878H139.831ZM139.831 7.82927V9.04878H138.612V7.82927H139.831ZM141.051 7.82927V9.04878H139.831V7.82927H141.051ZM141.051 9.04878V10.2683H139.831V9.04878H141.051ZM138.612 7.82927V9.04878H137.392V7.82927H138.612ZM137.392 7.82927V9.04878H136.173V7.82927H137.392ZM136.173 7.82927V9.04878H134.953V7.82927H136.173ZM136.173 9.04878V10.2683H134.953V9.04878H136.173ZM136.173 10.2683V11.4878H134.953V10.2683H136.173ZM136.173 11.4878V12.7073H134.953V11.4878H136.173ZM137.392 11.4878V12.7073H136.173V11.4878H137.392ZM138.612 11.4878V12.7073H137.392V11.4878H138.612ZM138.612 10.2683V11.4878H137.392V10.2683H138.612ZM138.612 9.04878V10.2683H137.392V9.04878H138.612ZM137.392 9.04878V10.2683H136.173V9.04878H137.392ZM137.392 10.2683V11.4878H136.173V10.2683H137.392ZM134.953 10.2683V11.4878H133.734V10.2683H134.953ZM134.953 9.04878V10.2683H133.734V9.04878H134.953ZM133.734 9.04878V10.2683H132.514V9.04878H133.734ZM133.734 10.2683V11.4878H132.514V10.2683H133.734ZM132.514 10.2683V11.4878H131.294V10.2683H132.514ZM132.514 11.4878V12.7073H131.294V11.4878H132.514ZM132.514 12.7073V13.9268H131.294V12.7073H132.514ZM133.734 12.7073V13.9268H132.514V12.7073H133.734ZM133.734 11.4878V12.7073H132.514V11.4878H133.734ZM134.953 11.4878V12.7073H133.734V11.4878H134.953ZM134.953 12.7073V13.9268H133.734V12.7073H134.953ZM136.173 12.7073V13.9268H134.953V12.7073H136.173ZM137.392 12.7073V13.9268H136.173V12.7073H137.392ZM131.294 12.7073V13.9268H130.075V12.7073H131.294ZM131.294 13.9268V15.1463H130.075V13.9268H131.294ZM131.294 15.1463V16.3659H130.075V15.1463H131.294ZM131.294 23.6829V24.9024H130.075V23.6829H131.294ZM132.514 23.6829V24.9024H131.294V23.6829H132.514ZM132.514 24.9024V26.122H131.294V24.9024H132.514ZM131.294 24.9024V26.122H130.075V24.9024H131.294ZM133.734 24.9024V26.122H132.514V24.9024H133.734ZM134.953 24.9024V26.122H133.734V24.9024H134.953ZM136.173 24.9024V26.122H134.953V24.9024H136.173ZM137.392 24.9024V26.122H136.173V24.9024H137.392ZM136.173 23.6829V24.9024H134.953V23.6829H136.173ZM136.173 15.1463V16.3659H134.953V15.1463H136.173ZM136.173 13.9268V15.1463H134.953V13.9268H136.173ZM134.953 13.9268V15.1463H133.734V13.9268H134.953ZM133.734 13.9268V15.1463H132.514V13.9268H133.734ZM132.514 13.9268V15.1463H131.294V13.9268H132.514ZM132.514 15.1463V16.3659H131.294V15.1463H132.514ZM133.734 23.6829V24.9024H132.514V23.6829H133.734ZM134.953 23.6829V24.9024H133.734V23.6829H134.953ZM133.734 15.1463V16.3659H132.514V15.1463H133.734ZM134.953 15.1463V16.3659H133.734V15.1463H134.953ZM144.709 22.4634V23.6829H143.49V22.4634H144.709ZM144.709 23.6829V24.9024H143.49V23.6829H144.709ZM145.929 23.6829V24.9024H144.709V23.6829H145.929ZM147.148 23.6829V24.9024H145.929V23.6829H147.148ZM148.368 23.6829V24.9024H147.148V23.6829H148.368ZM149.587 23.6829V24.9024H148.368V23.6829H149.587ZM149.587 22.4634V23.6829H148.368V22.4634H149.587ZM148.368 22.4634V23.6829H147.148V22.4634H148.368ZM147.148 22.4634V23.6829H145.929V22.4634H147.148ZM145.929 22.4634V23.6829H144.709V22.4634H145.929ZM149.587 24.9024V26.122H148.368V24.9024H149.587ZM148.368 24.9024V26.122H147.148V24.9024H148.368ZM147.148 24.9024V26.122H145.929V24.9024H147.148ZM145.929 24.9024V26.122H144.709V24.9024H145.929ZM144.709 24.9024V26.122H143.49V24.9024H144.709ZM143.49 24.9024V26.122H142.27V24.9024H143.49ZM143.49 26.122V27.3415H142.27V26.122H143.49ZM144.709 26.122V27.3415H143.49V26.122H144.709ZM145.929 26.122V27.3415H144.709V26.122H145.929ZM147.148 26.122V27.3415H145.929V26.122H147.148ZM147.148 27.3415V28.561H145.929V27.3415H147.148ZM148.368 27.3415V28.561H147.148V27.3415H148.368ZM148.368 26.122V27.3415H147.148V26.122H148.368ZM147.148 28.561V29.7805H145.929V28.561H147.148ZM145.929 28.561V29.7805H144.709V28.561H145.929ZM145.929 27.3415V28.561H144.709V27.3415H145.929ZM144.709 27.3415V28.561H143.49V27.3415H144.709ZM144.709 28.561V29.7805H143.49V28.561H144.709ZM144.709 29.7805V31H143.49V29.7805H144.709ZM143.49 29.7805V31H142.27V29.7805H143.49ZM142.27 29.7805V31H141.051V29.7805H142.27ZM141.051 29.7805V31H139.831V29.7805H141.051ZM139.831 29.7805V31H138.612V29.7805H139.831ZM138.612 29.7805V31H137.392V29.7805H138.612ZM137.392 29.7805V31H136.173V29.7805H137.392ZM136.173 29.7805V31H134.953V29.7805H136.173ZM137.392 28.561V29.7805H136.173V28.561H137.392ZM138.612 28.561V29.7805H137.392V28.561H138.612ZM139.831 28.561V29.7805H138.612V28.561H139.831ZM141.051 28.561V29.7805H139.831V28.561H141.051ZM142.27 28.561V29.7805H141.051V28.561H142.27ZM143.49 28.561V29.7805H142.27V28.561H143.49ZM143.49 27.3415V28.561H142.27V27.3415H143.49ZM142.27 27.3415V28.561H141.051V27.3415H142.27ZM141.051 27.3415V28.561H139.831V27.3415H141.051ZM139.831 27.3415V28.561H138.612V27.3415H139.831ZM138.612 27.3415V28.561H137.392V27.3415H138.612ZM137.392 27.3415V28.561H136.173V27.3415H137.392ZM136.173 28.561V29.7805H134.953V28.561H136.173ZM134.953 28.561V29.7805H133.734V28.561H134.953ZM133.734 28.561V29.7805H132.514V28.561H133.734ZM133.734 27.3415V28.561H132.514V27.3415H133.734ZM132.514 27.3415V28.561H131.294V27.3415H132.514ZM132.514 26.122V27.3415H131.294V26.122H132.514ZM133.734 26.122V27.3415H132.514V26.122H133.734ZM134.953 26.122V27.3415H133.734V26.122H134.953ZM136.173 26.122V27.3415H134.953V26.122H136.173ZM137.392 26.122V27.3415H136.173V26.122H137.392ZM138.612 26.122V27.3415H137.392V26.122H138.612ZM139.831 26.122V27.3415H138.612V26.122H139.831ZM141.051 26.122V27.3415H139.831V26.122H141.051ZM142.27 26.122V27.3415H141.051V26.122H142.27ZM136.173 27.3415V28.561H134.953V27.3415H136.173ZM134.953 27.3415V28.561H133.734V27.3415H134.953ZM147.148 20.0244V21.2439H145.929V20.0244H147.148ZM149.587 21.2439V22.4634H148.368V21.2439H149.587ZM148.368 21.2439V22.4634H147.148V21.2439H148.368ZM147.148 21.2439V22.4634H145.929V21.2439H147.148ZM145.929 21.2439V22.4634H144.709V21.2439H145.929ZM145.929 20.0244V21.2439H144.709V20.0244H145.929ZM144.709 20.0244V21.2439H143.49V20.0244H144.709ZM144.709 21.2439V22.4634H143.49V21.2439H144.709ZM137.392 15.1463V16.3659H136.173V15.1463H137.392ZM132.514 16.3659V17.5854H131.294V16.3659H132.514ZM132.514 17.5854V18.8049H131.294V17.5854H132.514ZM133.734 17.5854V18.8049H132.514V17.5854H133.734ZM133.734 18.8049V20.0244H132.514V18.8049H133.734ZM134.953 18.8049V20.0244H133.734V18.8049H134.953ZM136.173 20.0244V21.2439H134.953V20.0244H136.173ZM136.173 18.8049V20.0244H134.953V18.8049H136.173ZM136.173 17.5854V18.8049H134.953V17.5854H136.173ZM136.173 16.3659V17.5854H134.953V16.3659H136.173ZM134.953 16.3659V17.5854H133.734V16.3659H134.953ZM134.953 17.5854V18.8049H133.734V17.5854H134.953ZM133.734 16.3659V17.5854H132.514V16.3659H133.734ZM137.392 20.0244V21.2439H136.173V20.0244H137.392ZM138.612 20.0244V21.2439H137.392V20.0244H138.612ZM139.831 20.0244V21.2439H138.612V20.0244H139.831ZM141.051 20.0244V21.2439H139.831V20.0244H141.051ZM141.051 18.8049V20.0244H139.831V18.8049H141.051ZM139.831 18.8049V20.0244H138.612V18.8049H139.831ZM138.612 18.8049V20.0244H137.392V18.8049H138.612ZM137.392 18.8049V20.0244H136.173V18.8049H137.392ZM137.392 17.5854V18.8049H136.173V17.5854H137.392ZM137.392 16.3659V17.5854H136.173V16.3659H137.392ZM138.612 16.3659V17.5854H137.392V16.3659H138.612ZM139.831 16.3659V17.5854H138.612V16.3659H139.831ZM141.051 16.3659V17.5854H139.831V16.3659H141.051ZM141.051 17.5854V18.8049H139.831V17.5854H141.051ZM139.831 17.5854V18.8049H138.612V17.5854H139.831ZM138.612 17.5854V18.8049H137.392V17.5854H138.612ZM142.27 16.3659V17.5854H141.051V16.3659H142.27ZM143.49 16.3659V17.5854H142.27V16.3659H143.49ZM143.49 17.5854V18.8049H142.27V17.5854H143.49ZM143.49 18.8049V20.0244H142.27V18.8049H143.49ZM143.49 20.0244V21.2439H142.27V20.0244H143.49ZM142.27 20.0244V21.2439H141.051V20.0244H142.27ZM142.27 18.8049V20.0244H141.051V18.8049H142.27ZM142.27 17.5854V18.8049H141.051V17.5854H142.27ZM143.49 21.2439V22.4634H142.27V21.2439H143.49ZM144.709 16.3659V17.5854H143.49V16.3659H144.709ZM148.368 20.0244V21.2439H147.148V20.0244H148.368ZM148.368 18.8049V20.0244H147.148V18.8049H148.368ZM147.148 17.5854V18.8049H145.929V17.5854H147.148ZM145.929 17.5854V18.8049H144.709V17.5854H145.929ZM144.709 17.5854V18.8049H143.49V17.5854H144.709ZM144.709 18.8049V20.0244H143.49V18.8049H144.709ZM145.929 18.8049V20.0244H144.709V18.8049H145.929ZM147.148 18.8049V20.0244H145.929V18.8049H147.148ZM143.49 12.7073V13.9268H142.27V12.7073H143.49ZM154.487 29.7805V31H153.267V29.7805H154.487ZM154.487 28.561V29.7805H153.267V28.561H154.487ZM154.487 27.3415V28.561H153.267V27.3415H154.487ZM154.487 26.122V27.3415H153.267V26.122H154.487ZM154.487 24.9024V26.122H153.267V24.9024H154.487ZM154.487 23.6829V24.9024H153.267V23.6829H154.487ZM154.487 22.4634V23.6829H153.267V22.4634H154.487ZM154.487 21.2439V22.4634H153.267V21.2439H154.487ZM154.487 20.0244V21.2439H153.267V20.0244H154.487ZM154.487 18.8049V20.0244H153.267V18.8049H154.487ZM154.487 17.5854V18.8049H153.267V17.5854H154.487ZM154.487 16.3659V17.5854H153.267V16.3659H154.487ZM154.487 15.1463V16.3659H153.267V15.1463H154.487ZM154.487 13.9268V15.1463H153.267V13.9268H154.487ZM154.487 12.7073V13.9268H153.267V12.7073H154.487ZM155.706 12.7073V13.9268H154.487V12.7073H155.706ZM155.706 13.9268V15.1463H154.487V13.9268H155.706ZM155.706 15.1463V16.3659H154.487V15.1463H155.706ZM155.706 16.3659V17.5854H154.487V16.3659H155.706ZM155.706 17.5854V18.8049H154.487V17.5854H155.706ZM155.706 18.8049V20.0244H154.487V18.8049H155.706ZM155.706 20.0244V21.2439H154.487V20.0244H155.706ZM156.926 21.2439V22.4634H155.706V21.2439H156.926ZM156.926 22.4634V23.6829H155.706V22.4634H156.926ZM156.926 23.6829V24.9024H155.706V23.6829H156.926ZM156.926 24.9024V26.122H155.706V24.9024H156.926ZM156.926 26.122V27.3415H155.706V26.122H156.926ZM156.926 27.3415V28.561H155.706V27.3415H156.926ZM156.926 28.561V29.7805H155.706V28.561H156.926ZM156.926 29.7805V31H155.706V29.7805H156.926ZM158.145 29.7805V31H156.926V29.7805H158.145ZM159.365 29.7805V31H158.145V29.7805H159.365ZM159.365 28.561V29.7805H158.145V28.561H159.365ZM159.365 27.3415V28.561H158.145V27.3415H159.365ZM159.365 26.122V27.3415H158.145V26.122H159.365ZM159.365 24.9024V26.122H158.145V24.9024H159.365ZM159.365 23.6829V24.9024H158.145V23.6829H159.365ZM159.365 22.4634V23.6829H158.145V22.4634H159.365ZM159.365 21.2439V22.4634H158.145V21.2439H159.365ZM158.145 21.2439V22.4634H156.926V21.2439H158.145ZM158.145 20.0244V21.2439H156.926V20.0244H158.145ZM158.145 22.4634V23.6829H156.926V22.4634H158.145ZM158.145 23.6829V24.9024H156.926V23.6829H158.145ZM158.145 24.9024V26.122H156.926V24.9024H158.145ZM158.145 26.122V27.3415H156.926V26.122H158.145ZM158.145 27.3415V28.561H156.926V27.3415H158.145ZM158.145 28.561V29.7805H156.926V28.561H158.145ZM155.706 29.7805V31H154.487V29.7805H155.706ZM155.706 28.561V29.7805H154.487V28.561H155.706ZM155.706 27.3415V28.561H154.487V27.3415H155.706ZM155.706 26.122V27.3415H154.487V26.122H155.706ZM155.706 24.9024V26.122H154.487V24.9024H155.706ZM155.706 23.6829V24.9024H154.487V23.6829H155.706ZM155.706 22.4634V23.6829H154.487V22.4634H155.706ZM155.706 21.2439V22.4634H154.487V21.2439H155.706ZM154.487 0.512194V1.73171H153.267V0.512194H154.487ZM154.487 1.73171V2.95122H153.267V1.73171H154.487ZM154.487 2.95122V4.17073H153.267V2.95122H154.487ZM154.487 4.17073V5.39024H153.267V4.17073H154.487ZM154.487 5.39024V6.60976H153.267V5.39024H154.487ZM154.487 6.60976V7.82927H153.267V6.60976H154.487ZM154.487 7.82927V9.04878H153.267V7.82927H154.487ZM154.487 9.04878V10.2683H153.267V9.04878H154.487ZM154.487 10.2683V11.4878H153.267V10.2683H154.487ZM154.487 11.4878V12.7073H153.267V11.4878H154.487ZM158.145 0.512194V1.73171H156.926V0.512194H158.145ZM158.145 1.73171V2.95122H156.926V1.73171H158.145ZM158.145 2.95122V4.17073H156.926V2.95122H158.145ZM158.145 4.17073V5.39024H156.926V4.17073H158.145ZM158.145 5.39024V6.60976H156.926V5.39024H158.145ZM158.145 6.60976V7.82927H156.926V6.60976H158.145ZM158.145 9.04878V10.2683H156.926V9.04878H158.145ZM158.145 10.2683V11.4878H156.926V10.2683H158.145ZM158.145 11.4878V12.7073H156.926V11.4878H158.145ZM158.145 12.7073V13.9268H156.926V12.7073H158.145ZM158.145 13.9268V15.1463H156.926V13.9268H158.145ZM158.145 15.1463V16.3659H156.926V15.1463H158.145ZM158.145 16.3659V17.5854H156.926V16.3659H158.145ZM159.365 17.5854V18.8049H158.145V17.5854H159.365ZM159.365 18.8049V20.0244H158.145V18.8049H159.365ZM159.365 20.0244V21.2439H158.145V20.0244H159.365ZM159.365 16.3659V17.5854H158.145V16.3659H159.365ZM159.365 15.1463V16.3659H158.145V15.1463H159.365ZM159.365 13.9268V15.1463H158.145V13.9268H159.365ZM159.365 12.7073V13.9268H158.145V12.7073H159.365ZM159.365 11.4878V12.7073H158.145V11.4878H159.365ZM159.365 10.2683V11.4878H158.145V10.2683H159.365ZM159.365 9.04878V10.2683H158.145V9.04878H159.365ZM159.365 7.82927V9.04878H158.145V7.82927H159.365ZM159.365 6.60976V7.82927H158.145V6.60976H159.365ZM159.365 5.39024V6.60976H158.145V5.39024H159.365ZM158.145 7.82927V9.04878H156.926V7.82927H158.145ZM159.365 4.17073V5.39024H158.145V4.17073H159.365ZM159.365 2.95122V4.17073H158.145V2.95122H159.365ZM159.365 1.73171V2.95122H158.145V1.73171H159.365ZM159.365 0.512194V1.73171H158.145V0.512194H159.365ZM156.926 0.512194V1.73171H155.706V0.512194H156.926ZM155.706 0.512194V1.73171H154.487V0.512194H155.706ZM155.706 1.73171V2.95122H154.487V1.73171H155.706ZM156.926 1.73171V2.95122H155.706V1.73171H156.926ZM156.926 2.95122V4.17073H155.706V2.95122H156.926ZM156.926 4.17073V5.39024H155.706V4.17073H156.926ZM156.926 5.39024V6.60976H155.706V5.39024H156.926ZM156.926 6.60976V7.82927H155.706V6.60976H156.926ZM156.926 7.82927V9.04878H155.706V7.82927H156.926ZM156.926 9.04878V10.2683H155.706V9.04878H156.926ZM155.706 10.2683V11.4878H154.487V10.2683H155.706ZM155.706 11.4878V12.7073H154.487V11.4878H155.706ZM155.706 9.04878V10.2683H154.487V9.04878H155.706ZM155.706 7.82927V9.04878H154.487V7.82927H155.706ZM155.706 6.60976V7.82927H154.487V6.60976H155.706ZM155.706 5.39024V6.60976H154.487V5.39024H155.706ZM155.706 4.17073V5.39024H154.487V4.17073H155.706ZM155.706 2.95122V4.17073H154.487V2.95122H155.706ZM156.926 10.2683V11.4878H155.706V10.2683H156.926ZM156.926 11.4878V12.7073H155.706V11.4878H156.926ZM156.926 12.7073V13.9268H155.706V12.7073H156.926ZM156.926 13.9268V15.1463H155.706V13.9268H156.926ZM156.926 15.1463V16.3659H155.706V15.1463H156.926ZM156.926 16.3659V17.5854H155.706V16.3659H156.926ZM156.926 17.5854V18.8049H155.706V17.5854H156.926ZM156.926 18.8049V20.0244H155.706V18.8049H156.926ZM156.926 20.0244V21.2439H155.706V20.0244H156.926ZM158.145 18.8049V20.0244H156.926V18.8049H158.145ZM158.145 17.5854V18.8049H156.926V17.5854H158.145ZM167.901 29.7805V31H166.682V29.7805H167.901ZM169.121 29.7805V31H167.901V29.7805H169.121ZM170.34 29.7805V31H169.121V29.7805H170.34ZM171.56 29.7805V31H170.34V29.7805H171.56ZM172.779 28.561V29.7805H171.56V28.561H172.779ZM172.779 27.3415V28.561H171.56V27.3415H172.779ZM172.779 29.7805V31H171.56V29.7805H172.779ZM171.56 28.561V29.7805H170.34V28.561H171.56ZM170.34 28.561V29.7805H169.121V28.561H170.34ZM169.121 28.561V29.7805H167.901V28.561H169.121ZM167.901 28.561V29.7805H166.682V28.561H167.901ZM167.901 27.3415V28.561H166.682V27.3415H167.901ZM167.901 26.122V27.3415H166.682V26.122H167.901ZM169.121 26.122V27.3415H167.901V26.122H169.121ZM170.34 26.122V27.3415H169.121V26.122H170.34ZM171.56 26.122V27.3415H170.34V26.122H171.56ZM172.779 26.122V27.3415H171.56V26.122H172.779ZM171.56 27.3415V28.561H170.34V27.3415H171.56ZM170.34 27.3415V28.561H169.121V27.3415H170.34ZM169.121 27.3415V28.561H167.901V27.3415H169.121ZM172.779 12.7073V13.9268H171.56V12.7073H172.779ZM171.56 12.7073V13.9268H170.34V12.7073H171.56ZM169.121 12.7073V13.9268H167.901V12.7073H169.121ZM169.121 13.9268V15.1463H167.901V13.9268H169.121ZM169.121 15.1463V16.3659H167.901V15.1463H169.121ZM167.901 16.3659V17.5854H166.682V16.3659H167.901ZM167.901 17.5854V18.8049H166.682V17.5854H167.901ZM167.901 18.8049V20.0244H166.682V18.8049H167.901ZM167.901 20.0244V21.2439H166.682V20.0244H167.901ZM167.901 21.2439V22.4634H166.682V21.2439H167.901ZM167.901 22.4634V23.6829H166.682V22.4634H167.901ZM167.901 23.6829V24.9024H166.682V23.6829H167.901ZM167.901 24.9024V26.122H166.682V24.9024H167.901ZM169.121 24.9024V26.122H167.901V24.9024H169.121ZM170.34 24.9024V26.122H169.121V24.9024H170.34ZM171.56 24.9024V26.122H170.34V24.9024H171.56ZM172.779 24.9024V26.122H171.56V24.9024H172.779ZM172.779 23.6829V24.9024H171.56V23.6829H172.779ZM172.779 21.2439V22.4634H171.56V21.2439H172.779ZM172.779 20.0244V21.2439H171.56V20.0244H172.779ZM172.779 18.8049V20.0244H171.56V18.8049H172.779ZM172.779 17.5854V18.8049H171.56V17.5854H172.779ZM172.779 16.3659V17.5854H171.56V16.3659H172.779ZM172.779 15.1463V16.3659H171.56V15.1463H172.779ZM172.779 13.9268V15.1463H171.56V13.9268H172.779ZM171.56 18.8049V20.0244H170.34V18.8049H171.56ZM171.56 21.2439V22.4634H170.34V21.2439H171.56ZM171.56 22.4634V23.6829H170.34V22.4634H171.56ZM171.56 23.6829V24.9024H170.34V23.6829H171.56ZM172.779 22.4634V23.6829H171.56V22.4634H172.779ZM171.56 16.3659V17.5854H170.34V16.3659H171.56ZM170.34 16.3659V17.5854H169.121V16.3659H170.34ZM169.121 16.3659V17.5854H167.901V16.3659H169.121ZM169.121 17.5854V18.8049H167.901V17.5854H169.121ZM169.121 18.8049V20.0244H167.901V18.8049H169.121ZM169.121 20.0244V21.2439H167.901V20.0244H169.121ZM169.121 21.2439V22.4634H167.901V21.2439H169.121ZM169.121 22.4634V23.6829H167.901V22.4634H169.121ZM169.121 23.6829V24.9024H167.901V23.6829H169.121ZM170.34 23.6829V24.9024H169.121V23.6829H170.34ZM170.34 22.4634V23.6829H169.121V22.4634H170.34ZM170.34 21.2439V22.4634H169.121V21.2439H170.34ZM170.34 20.0244V21.2439H169.121V20.0244H170.34ZM170.34 18.8049V20.0244H169.121V18.8049H170.34ZM170.34 17.5854V18.8049H169.121V17.5854H170.34ZM171.56 17.5854V18.8049H170.34V17.5854H171.56ZM171.56 20.0244V21.2439H170.34V20.0244H171.56ZM171.56 15.1463V16.3659H170.34V15.1463H171.56ZM171.56 13.9268V15.1463H170.34V13.9268H171.56ZM170.34 13.9268V15.1463H169.121V13.9268H170.34ZM170.34 15.1463V16.3659H169.121V15.1463H170.34ZM167.901 15.1463V16.3659H166.682V15.1463H167.901ZM167.901 13.9268V15.1463H166.682V13.9268H167.901ZM167.901 12.7073V13.9268H166.682V12.7073H167.901ZM170.34 12.7073V13.9268H169.121V12.7073H170.34ZM167.901 7.82927V9.04878H166.682V7.82927H167.901ZM167.901 9.04878V10.2683H166.682V9.04878H167.901ZM169.121 9.04878V10.2683H167.901V9.04878H169.121ZM170.34 9.04878V10.2683H169.121V9.04878H170.34ZM170.34 10.2683V11.4878H169.121V10.2683H170.34ZM171.56 10.2683V11.4878H170.34V10.2683H171.56ZM171.56 11.4878V12.7073H170.34V11.4878H171.56ZM170.34 11.4878V12.7073H169.121V11.4878H170.34ZM169.121 11.4878V12.7073H167.901V11.4878H169.121ZM169.121 10.2683V11.4878H167.901V10.2683H169.121ZM167.901 10.2683V11.4878H166.682V10.2683H167.901ZM166.682 10.2683V11.4878H165.462V10.2683H166.682ZM166.682 11.4878V12.7073H165.462V11.4878H166.682ZM167.901 11.4878V12.7073H166.682V11.4878H167.901ZM166.682 12.7073V13.9268H165.462V12.7073H166.682ZM165.462 11.4878V12.7073H164.243V11.4878H165.462ZM165.462 10.2683V11.4878H164.243V10.2683H165.462ZM165.462 9.04878V10.2683H164.243V9.04878H165.462ZM165.462 7.82927V9.04878H164.243V7.82927H165.462ZM166.682 7.82927V9.04878H165.462V7.82927H166.682ZM166.682 9.04878V10.2683H165.462V9.04878H166.682ZM164.243 7.82927V9.04878H163.023V7.82927H164.243ZM164.243 9.04878V10.2683H163.023V9.04878H164.243ZM164.243 10.2683V11.4878H163.023V10.2683H164.243ZM164.243 11.4878V12.7073H163.023V11.4878H164.243ZM163.023 7.82927V9.04878H161.804V7.82927H163.023ZM163.023 9.04878V10.2683H161.804V9.04878H163.023ZM161.804 9.04878V10.2683H160.584V9.04878H161.804ZM161.804 10.2683V11.4878H160.584V10.2683H161.804ZM160.584 10.2683V11.4878H159.365V10.2683H160.584ZM160.584 11.4878V12.7073H159.365V11.4878H160.584ZM161.804 11.4878V12.7073H160.584V11.4878H161.804ZM163.023 11.4878V12.7073H161.804V11.4878H163.023ZM163.023 10.2683V11.4878H161.804V10.2683H163.023ZM160.584 12.7073V13.9268H159.365V12.7073H160.584ZM161.804 7.82927V9.04878H160.584V7.82927H161.804ZM160.584 9.04878V10.2683H159.365V9.04878H160.584Z" fill="#00CCDD"/>
</g>
<defs>
<filter id="filter0_d_334_848" x="0.438965" y="0.512207" width="176.34" height="38.4878" filterUnits="userSpaceOnUse" color-interpolation-filters="sRGB">
<feFlood flood-opacity="0" result="BackgroundImageFix"/>
<feColorMatrix in="SourceAlpha" type="matrix" values="0 0 0 0 0 0 0 0 0 0 0 0 0 0 0 0 0 0 127 0" result="hardAlpha"/>
<feOffset dy="4"/>
<feGaussianBlur stdDeviation="2"/>
<feComposite in2="hardAlpha" operator="out"/>
<feColorMatrix type="matrix" values="0 0 0 0 0 0 0 0 0 0 0 0 0 0 0 0 0 0 0.25 0"/>
<feBlend mode="normal" in2="BackgroundImageFix" result="effect1_dropShadow_334_848"/>
<feBlend mode="normal" in="SourceGraphic" in2="effect1_dropShadow_334_848" result="shape"/>
</filter>
</defs>
</svg>
